<?xml version="1.0" encoding="UTF-8"?>
<svg version="1.1" xmlns="http://www.w3.org/2000/svg" width="512" height="77">
<path d="M0 0 C7.59 0 15.18 0 23 0 C23 1.98 23 3.96 23 6 C21.35 6 19.7 6 18 6 C18 19.86 18 33.72 18 48 C20.64 48 23.28 48 26 48 C26 37.44 26 26.88 26 16 C24.68 16 23.36 16 22 16 C22 14.02 22 12.04 22 10 C28.93 10 35.86 10 43 10 C43 11.98 43 13.96 43 16 C41.35 16 39.7 16 38 16 C38.0314209 17.1144751 38.0628418 18.2289502 38.09521484 19.37719727 C38.20428678 23.5347777 38.27286624 27.69223325 38.32958984 31.85083008 C38.35965704 33.64629421 38.4005234 35.44161274 38.45263672 37.23657227 C38.52590349 39.82604974 38.55955491 42.41357699 38.5859375 45.00390625 C38.61690521 45.79898087 38.64787292 46.59405548 38.67977905 47.41322327 C38.68303064 52.8680475 37.30736224 55.69033939 33.64819336 59.71826172 C30.77290593 61.95426513 28.14032666 61.66964421 24.625 61.4375 C22.75714844 61.34275391 22.75714844 61.34275391 20.8515625 61.24609375 C19.91054688 61.16488281 18.96953125 61.08367188 18 61 C18 63.64 18 66.28 18 69 C19.65 69 21.3 69 23 69 C23 71.64 23 74.28 23 77 C15.74 77 8.48 77 1 77 C1 74.36 1 71.72 1 69 C2.32 69 3.64 69 5 69 C5 66.36 5 63.72 5 61 C4.05898438 61.08121094 3.11796875 61.16242187 2.1484375 61.24609375 C0.90320313 61.30925781 -0.34203125 61.37242188 -1.625 61.4375 C-2.85476562 61.51871094 -4.08453125 61.59992187 -5.3515625 61.68359375 C-9.82723917 60.84500337 -10.97747318 59.51896651 -13.75259399 56.09117126 C-15.90584058 52.48143445 -15.74586076 49.10982537 -15.5859375 45.00390625 C-15.57744781 44.17036118 -15.56895813 43.3368161 -15.56021118 42.47801208 C-15.52685336 39.8381446 -15.45161644 37.20143026 -15.375 34.5625 C-15.34487721 32.76371627 -15.31750547 30.96488423 -15.29296875 29.16601562 C-15.22712108 24.77614481 -15.12372993 20.38860531 -15 16 C-16.32 16 -17.64 16 -19 16 C-19 14.02 -19 12.04 -19 10 C-12.4 10 -5.8 10 1 10 C1 11.98 1 13.96 1 16 C-0.32 16 -1.64 16 -3 16 C-3 26.56 -3 37.12 -3 48 C-0.36 48 2.28 48 5 48 C5 34.14 5 20.28 5 6 C3.35 6 1.7 6 0 6 C0 4.02 0 2.04 0 0 Z " fill="#990000" transform="translate(19,0)"/>
<path d="M0 0 C0.99 0 1.98 0 3 0 C4.50514646 4.12314058 6.00324372 8.24880702 7.5 12.375 C7.92925781 13.550625 8.35851562 14.72625 8.80078125 15.9375 C9.20683594 17.05898438 9.61289063 18.18046875 10.03125 19.3359375 C10.40830078 20.37282715 10.78535156 21.4097168 11.17382812 22.47802734 C12 25 12 25 12 27 C13.98 26.67 15.96 26.34 18 26 C18 17.42 18 8.84 18 0 C23 0 23 0 24.5456543 1.23754883 C24.96758057 1.80497803 25.38950684 2.37240723 25.82421875 2.95703125 C26.53094727 3.88418945 26.53094727 3.88418945 27.25195312 4.83007812 C27.96254883 5.81137695 27.96254883 5.81137695 28.6875 6.8125 C29.17283203 7.45509766 29.65816406 8.09769531 30.15820312 8.75976562 C32.18773902 11.46114788 34.12512418 14.18768627 36 17 C36.33 12.05 36.66 7.1 37 2 C36.01 2 35.02 2 34 2 C34 1.34 34 0.68 34 0 C36.97 0 39.94 0 43 0 C43 0.66 43 1.32 43 2 C42.01 2 41.02 2 40 2 C40 10.91 40 19.82 40 29 C34.375 27.875 34.375 27.875 31.66796875 24.40234375 C31.09755859 23.68369141 30.52714844 22.96503906 29.93945312 22.22460938 C29.36130859 21.46986328 28.78316406 20.71511719 28.1875 19.9375 C27.59001953 19.17888672 26.99253906 18.42027344 26.37695312 17.63867188 C24.90641153 15.76814296 23.45164783 13.88522932 22 12 C21.67 16.62 21.34 21.24 21 26 C21.99 26 22.98 26 24 26 C24 26.99 24 27.98 24 29 C16.41 29 8.82 29 1 29 C1 28.34 1 27.68 1 27 C1.99 26.67 2.98 26.34 4 26 C3.67 25.01 3.34 24.02 3 23 C0.36 23 -2.28 23 -5 23 C-5 23.99 -5 24.98 -5 26 C-4.34 26.33 -3.68 26.66 -3 27 C-3 27.66 -3 28.32 -3 29 C-6.3 29 -9.6 29 -13 29 C-12.505 27.515 -12.505 27.515 -12 26 C-11.01 26 -10.02 26 -9 26 C-8.91878906 25.22398438 -8.83757812 24.44796875 -8.75390625 23.6484375 C-7.73421214 18.71375203 -5.85640837 14.27147588 -3.9375 9.625 C-3.37192383 8.23474609 -3.37192383 8.23474609 -2.79492188 6.81640625 C-1.86873604 4.54197521 -0.93697332 2.27000333 0 0 Z M-2 11 C-2.66 13.64 -3.32 16.28 -4 19 C-2.02 19 -0.04 19 2 19 C1.01 16.36 0.02 13.72 -1 11 C-1.33 11 -1.66 11 -2 11 Z " fill="#000000" transform="translate(185,25)"/>
<path d="M0 0 C4.29 0 8.58 0 13 0 C13 0.66 13 1.32 13 2 C12.01 2 11.02 2 10 2 C10.3609375 2.83144531 10.721875 3.66289062 11.09375 4.51953125 C11.5578125 5.60621094 12.021875 6.69289063 12.5 7.8125 C12.9640625 8.89144531 13.428125 9.97039063 13.90625 11.08203125 C15 14 15 14 15 17 C15.66 17 16.32 17 17 17 C17.12117188 16.41992188 17.24234375 15.83984375 17.3671875 15.2421875 C18.33735474 10.71971558 19.43397783 6.36249034 21 2 C20.01 2 19.02 2 18 2 C18 1.34 18 0.68 18 0 C28.56 0 39.12 0 50 0 C51.35439668 2.70879335 51.06501451 5.00933268 51 8 C50.01 8 49.02 8 48 8 C47.76539063 7.36578125 47.53078125 6.7315625 47.2890625 6.078125 C46.17709092 3.81749261 46.17709092 3.81749261 43.8359375 3.171875 C42.61777344 2.96304687 42.61777344 2.96304687 41.375 2.75 C39.93125 2.5025 38.4875 2.255 37 2 C37 5.63 37 9.26 37 13 C38.65 12.67 40.3 12.34 42 12 C42 10.68 42 9.36 42 8 C42.99 8 43.98 8 45 8 C45 12.29 45 16.58 45 21 C44.01 21 43.02 21 42 21 C41.9175 20.38125 41.835 19.7625 41.75 19.125 C41.08785794 16.46510021 41.08785794 16.46510021 37 15 C37 18.63 37 22.26 37 26 C41.57884819 25.88797332 41.57884819 25.88797332 46 25 C48.16247221 22.09748698 48.16247221 22.09748698 49 19 C49.99 19 50.98 19 52 19 C51.67 22.3 51.34 25.6 51 29 C43.08 29 35.16 29 27 29 C27 28.34 27 27.68 27 27 C28.32 27 29.64 27 31 27 C31 18.75 31 10.5 31 2 C29.02 2.33 27.04 2.66 25 3 C22.03 11.25 19.06 19.5 16 28 C14.68 28 13.36 28 12 28 C11.70754395 27.2479126 11.41508789 26.4958252 11.11376953 25.72094727 C9.7913267 22.33195802 8.45832033 18.94722364 7.125 15.5625 C6.66480469 14.37849609 6.20460938 13.19449219 5.73046875 11.97460938 C5.06337891 10.28754883 5.06337891 10.28754883 4.3828125 8.56640625 C3.97434082 7.52427979 3.56586914 6.48215332 3.14501953 5.40844727 C2.23752446 2.86219257 2.23752446 2.86219257 0 2 C0 1.34 0 0.68 0 0 Z " fill="#000000" transform="translate(338,25)"/>
<path d="M0 0 C12.87 0 25.74 0 39 0 C39 0.66 39 1.32 39 2 C38.34 2.33 37.68 2.66 37 3 C37.66 3.94875 38.32 4.8975 39 5.875 C41 9 41 9 41 11 C41.66 11 42.32 11 43 11 C43.309375 10.05125 43.61875 9.1025 43.9375 8.125 C45 5 45 5 46 3 C45.34 2.67 44.68 2.34 44 2 C44 1.34 44 0.68 44 0 C46.97 0 49.94 0 53 0 C53 0.66 53 1.32 53 2 C52.01 2 51.02 2 50 2 C49.7525 2.66 49.505 3.32 49.25 4 C48 7 48 7 47.01171875 8.7265625 C43.81532423 14.37546337 43.23658412 19.56491189 43 26 C44.32 26 45.64 26 47 26 C47 26.99 47 27.98 47 29 C42.05 29 37.1 29 32 29 C32.495 27.515 32.495 27.515 33 26 C33.99 26.33 34.98 26.66 36 27 C36.11722905 17.55468822 33.84437868 10.51602411 28 3 C27.01 2.67 26.02 2.34 25 2 C25.33 4.31 25.66 6.62 26 9 C25.01 9 24.02 9 23 9 C22.773125 8.21625 22.54625 7.4325 22.3125 6.625 C21.05276848 3.37888902 21.05276848 3.37888902 16 2 C16 10.25 16 18.5 16 27 C17.32 27 18.64 27 20 27 C20 27.66 20 28.32 20 29 C15.05 29 10.1 29 5 29 C5 28.34 5 27.68 5 27 C6.32 27 7.64 27 9 27 C9 18.75 9 10.5 9 2 C3.94723152 3.37888902 3.94723152 3.37888902 2.6875 6.625 C2.3471875 7.800625 2.3471875 7.800625 2 9 C1.01 9 0.02 9 -1 9 C-0.67 6.03 -0.34 3.06 0 0 Z " fill="#000000" transform="translate(459,25)"/>
<path d="M0 0 C3.06303578 -0.08115993 6.12390815 -0.14057409 9.1875 -0.1875 C10.48397461 -0.22520508 10.48397461 -0.22520508 11.80664062 -0.26367188 C16.67769411 -0.319661 20.11544304 -0.29440312 24 3 C26.66204136 6.50870781 27.88133735 10.16936145 28.5 14.5 C27.88335749 18.81649759 26.78042958 22.58022031 24 26 C18.92537172 29.41144981 14.50466206 29.3703603 8.625 29.1875 C7.79355469 29.17396484 6.96210938 29.16042969 6.10546875 29.14648438 C4.07002934 29.11139059 2.03492709 29.05759228 0 29 C0 28.34 0 27.68 0 27 C0.99 27 1.98 27 3 27 C3 18.75 3 10.5 3 2 C2.01 2 1.02 2 0 2 C0 1.34 0 0.68 0 0 Z M10 2 C10 10.25 10 18.5 10 27 C16.63333333 26.76666667 16.63333333 26.76666667 19 24 C20.96880693 17.50293714 20.72099376 10.19781913 18 4 C17.34 3.34 16.68 2.68 16 2 C14.02 2 12.04 2 10 2 Z " fill="#000000" transform="translate(128,25)"/>
<path d="M0 0 C3.24983 -0.08728882 6.4993575 -0.14048658 9.75 -0.1875 C11.13058594 -0.22520508 11.13058594 -0.22520508 12.5390625 -0.26367188 C13.42851562 -0.27333984 14.31796875 -0.28300781 15.234375 -0.29296875 C16.05131836 -0.3086792 16.86826172 -0.32438965 17.70996094 -0.34057617 C20.5498311 0.08177126 21.90855676 1.06832796 24 3 C24.74556653 5.71912499 24.59544054 8.25181288 24 11 C22 13 22 13 20 14 C20.639375 14.33 21.27875 14.66 21.9375 15 C24.30978709 17.3003996 24.29889307 17.90494744 24.5625 21.0625 C24.706875 22.361875 24.85125 23.66125 25 25 C25.99 25.66 26.98 26.32 28 27 C28 27.66 28 28.32 28 29 C21.9453125 29.1953125 21.9453125 29.1953125 20 29 C17.57869669 26.57869669 17.47159496 25.19888623 16.875 21.875 C16.70742188 20.96492188 16.53984375 20.05484375 16.3671875 19.1171875 C16.24601562 18.41851562 16.12484375 17.71984375 16 17 C14.02 16.34 12.04 15.68 10 15 C10 18.96 10 22.92 10 27 C11.32 27 12.64 27 14 27 C14 27.66 14 28.32 14 29 C9.38 29 4.76 29 0 29 C0 28.34 0 27.68 0 27 C1.32 27 2.64 27 4 27 C4 18.75 4 10.5 4 2 C2.68 2 1.36 2 0 2 C0 1.34 0 0.68 0 0 Z M10 2 C10 5.3 10 8.6 10 12 C11.99954746 12.04254356 14.00041636 12.04080783 16 12 C17.39287806 10.82963695 17.39287806 10.82963695 17.1875 7.5625 C17.39564928 3.94967279 17.39564928 3.94967279 15 2 C13.35 2 11.7 2 10 2 Z " fill="#000000" transform="translate(391,25)"/>
<path d="M0 0 C5 0 5 0 6.8527832 1.56054688 C7.41312256 2.27275391 7.97346191 2.98496094 8.55078125 3.71875 C9.16630859 4.48574219 9.78183594 5.25273437 10.41601562 6.04296875 C11.04185547 6.85378906 11.66769531 7.66460937 12.3125 8.5 C12.95767578 9.31082031 13.60285156 10.12164062 14.26757812 10.95703125 C15.85866343 12.96062015 17.43114445 14.9789574 19 17 C19 12.38 19 7.76 19 3 C18.01 2.67 17.02 2.34 16 2 C16 1.34 16 0.68 16 0 C18.97 0 21.94 0 25 0 C25 0.66 25 1.32 25 2 C24.01 2.495 24.01 2.495 23 3 C22.67 11.58 22.34 20.16 22 29 C16.37443092 27.87488618 16.37443092 27.87488618 14.17578125 24.9453125 C13.70462891 24.33042969 13.23347656 23.71554688 12.74804688 23.08203125 C12.27431641 22.43621094 11.80058594 21.79039063 11.3125 21.125 C10.82716797 20.48691406 10.34183594 19.84882812 9.84179688 19.19140625 C7.8095491 16.50603609 5.8689007 13.80335106 4 11 C3.67 15.95 3.34 20.9 3 26 C4.32 26 5.64 26 7 26 C7 26.99 7 27.98 7 29 C3.7 29 0.4 29 -3 29 C-3 28.01 -3 27.02 -3 26 C-2.01 26 -1.02 26 0 26 C0 17.42 0 8.84 0 0 Z " fill="#000000" transform="translate(296,25)"/>
<path d="M0 0 C5 0 5 0 6.5456543 1.23754883 C7.1785437 2.08869263 7.1785437 2.08869263 7.82421875 2.95703125 C8.29537109 3.57513672 8.76652344 4.19324219 9.25195312 4.83007812 C9.72568359 5.48427734 10.19941406 6.13847656 10.6875 6.8125 C11.41549805 7.77639648 11.41549805 7.77639648 12.15820312 8.75976562 C14.18773902 11.46114788 16.12512418 14.18768627 18 17 C18.33 12.05 18.66 7.1 19 2 C18.01 2 17.02 2 16 2 C16 1.34 16 0.68 16 0 C18.97 0 21.94 0 25 0 C25 0.66 25 1.32 25 2 C24.01 2 23.02 2 22 2 C22 10.91 22 19.82 22 29 C16.375 27.875 16.375 27.875 13.44921875 24.18359375 C12.83369141 23.41982422 12.21816406 22.65605469 11.58398438 21.86914062 C10.95814453 21.06669922 10.33230469 20.26425781 9.6875 19.4375 C8.71973633 18.22803711 8.71973633 18.22803711 7.73242188 16.99414062 C6.14356808 15.00513106 4.57025661 13.00372393 3 11 C3 15.95 3 20.9 3 26 C3.99 26 4.98 26 6 26 C6 26.99 6 27.98 6 29 C3.03 29 0.06 29 -3 29 C-3 28.01 -3 27.02 -3 26 C-2.01 26 -1.02 26 0 26 C0 17.42 0 8.84 0 0 Z " fill="#000000" transform="translate(101,25)"/>
<path d="M0 0 C1.09570312 0.10183594 2.19140625 0.20367188 3.3203125 0.30859375 C4.16335938 0.39238281 5.00640625 0.47617187 5.875 0.5625 C5.875 3.2025 5.875 5.8425 5.875 8.5625 C5.215 8.5625 4.555 8.5625 3.875 8.5625 C3.215 6.9125 2.555 5.2625 1.875 3.5625 C-1.095 3.5625 -4.065 3.5625 -7.125 3.5625 C-7.125 5.2125 -7.125 6.8625 -7.125 8.5625 C-6.37734375 8.73265625 -5.6296875 8.9028125 -4.859375 9.078125 C-3.87453125 9.32046875 -2.8896875 9.5628125 -1.875 9.8125 C-0.41320312 10.16054688 -0.41320312 10.16054688 1.078125 10.515625 C4.25137056 11.70337613 5.7581603 12.93956529 7.875 15.5625 C8.9566744 19.52863946 9.31698675 21.61538553 7.5625 25.375 C4.41048759 29.46094201 4.41048759 29.46094201 0.25 30.25 C-4.02978534 30.70462921 -7.8865089 30.24368607 -12.125 29.5625 C-12.125 26.5925 -12.125 23.6225 -12.125 20.5625 C-9.125 21.5625 -9.125 21.5625 -6.75 24.125 C-4.38172219 26.77536929 -4.38172219 26.77536929 -1.4375 27 C1.06082291 26.75223497 1.06082291 26.75223497 2.875 24.5625 C3.01430476 22.51414947 3.01430476 22.51414947 1.875 20.5625 C-0.82497587 19.08402229 -0.82497587 19.08402229 -4.0625 18 C-9.91944153 15.8708377 -9.91944153 15.8708377 -12.125 12.5625 C-12.59297583 8.35071757 -12.59065795 6.27650886 -10.25 2.6875 C-6.71942068 -0.84307932 -4.84778321 -0.46414946 0 0 Z " fill="#000000" transform="translate(433.125,24.4375)"/>
<path d="M0 0 C4.62 0 9.24 0 14 0 C14 0.66 14 1.32 14 2 C12.68 2 11.36 2 10 2 C10.10954408 5.62564187 10.2402496 9.25021431 10.375 12.875 C10.4059375 13.90753906 10.436875 14.94007812 10.46875 16.00390625 C10.50742187 16.99003906 10.54609375 17.97617187 10.5859375 18.9921875 C10.6173584 19.90339355 10.6487793 20.81459961 10.68115234 21.75341797 C10.79882511 24.19931186 10.79882511 24.19931186 13 26 C16.59679066 25.67673447 16.59679066 25.67673447 20 25 C20.84191782 22.0751367 21.11819313 19.49258344 21.09765625 16.453125 C21.09282227 15.18662109 21.09282227 15.18662109 21.08789062 13.89453125 C21.07951172 13.02183594 21.07113281 12.14914063 21.0625 11.25 C21.05798828 10.36183594 21.05347656 9.47367188 21.04882812 8.55859375 C21.037074 6.37232671 21.02064249 4.18619821 21 2 C20.01 2 19.02 2 18 2 C18 1.34 18 0.68 18 0 C20.97 0 23.94 0 27 0 C27 0.66 27 1.32 27 2 C26.01 2.495 26.01 2.495 25 3 C24.9906543 3.64549805 24.98130859 4.29099609 24.97167969 4.95605469 C24.91790899 7.88813944 24.8342766 10.81864008 24.75 13.75 C24.72873047 15.27367187 24.72873047 15.27367187 24.70703125 16.828125 C24.46077181 24.31441206 24.46077181 24.31441206 22.22265625 27.64453125 C18.56212616 29.87687561 15.24195882 30.19962159 11 30 C8.31053148 29.30143675 6.46039635 28.38397295 4 27 C2.72138385 24.44276771 2.88663391 22.63262898 2.90234375 19.7734375 C2.90556641 18.7421875 2.90878906 17.7109375 2.91210938 16.6484375 C2.92048828 15.56820312 2.92886719 14.48796875 2.9375 13.375 C2.94201172 12.28703125 2.94652344 11.1990625 2.95117188 10.078125 C2.96298224 7.38536211 2.97945222 4.69270812 3 2 C2.01 2 1.02 2 0 2 C0 1.34 0 0.68 0 0 Z " fill="#000000" transform="translate(266,25)"/>
<path d="M0 0 C3 1 3 1 4.16674805 3.28491211 C4.52808838 4.27241455 4.88942871 5.25991699 5.26171875 6.27734375 C5.65810547 7.34791016 6.05449219 8.41847656 6.46289062 9.52148438 C7.06907227 11.21241211 7.06907227 11.21241211 7.6875 12.9375 C8.10322266 14.06091797 8.51894531 15.18433594 8.94726562 16.34179688 C12 24.67791718 12 24.67791718 12 27 C12.99 27 13.98 27 15 27 C15 27.66 15 28.32 15 29 C10.38 29 5.76 29 1 29 C1 28.34 1 27.68 1 27 C1.99 26.67 2.98 26.34 4 26 C3.67 24.68 3.34 23.36 3 22 C0.03 22 -2.94 22 -6 22 C-6 23.32 -6 24.64 -6 26 C-5.34 26.33 -4.68 26.66 -4 27 C-4 27.66 -4 28.32 -4 29 C-6.97 29 -9.94 29 -13 29 C-12 26 -12 26 -10.56298828 24.62939453 C-8.57324723 22.5551159 -7.93497416 20.63868283 -6.9921875 17.9296875 C-6.64542969 16.95128906 -6.29867187 15.97289062 -5.94140625 14.96484375 C-5.58949219 13.94519531 -5.23757812 12.92554688 -4.875 11.875 C-4.16638482 9.85074804 -3.455567 7.82726534 -2.7421875 5.8046875 C-2.4313623 4.90733887 -2.12053711 4.00999023 -1.80029297 3.08544922 C-1 1 -1 1 0 0 Z M-2 11 C-2.66 13.64 -3.32 16.28 -4 19 C-2.02 19 -0.04 19 2 19 C1.01 16.36 0.02 13.72 -1 11 C-1.33 11 -1.66 11 -2 11 Z " fill="#000000" transform="translate(240,25)"/>
<path d="M0 0 C4.62 0 9.24 0 14 0 C14 0.66 14 1.32 14 2 C13.01 2 12.02 2 11 2 C11 9.92 11 17.84 11 26 C11.99 26 12.98 26 14 26 C14 26.99 14 27.98 14 29 C9.38 29 4.76 29 0 29 C0 28.01 0 27.02 0 26 C1.32 26 2.64 26 4 26 C4 18.08 4 10.16 4 2 C2.68 2 1.36 2 0 2 C0 1.34 0 0.68 0 0 Z " fill="#000000" transform="translate(443,25)"/>
<path d="M0 0 C4.62 0 9.24 0 14 0 C14 0.66 14 1.32 14 2 C13.01 2 12.02 2 11 2 C11 9.92 11 17.84 11 26 C11.99 26 12.98 26 14 26 C14 26.99 14 27.98 14 29 C9.38 29 4.76 29 0 29 C0 28.01 0 27.02 0 26 C1.32 26 2.64 26 4 26 C4 18.08 4 10.16 4 2 C2.68 2 1.36 2 0 2 C0 1.34 0 0.68 0 0 Z " fill="#000000" transform="translate(157,25)"/>
<path d="M0 0 C4.62 0 9.24 0 14 0 C14 0.66 14 1.32 14 2 C12.68 2 11.36 2 10 2 C10 9.92 10 17.84 10 26 C11.32 26 12.64 26 14 26 C14 26.99 14 27.98 14 29 C9.38 29 4.76 29 0 29 C0 28.01 0 27.02 0 26 C0.99 26 1.98 26 3 26 C3 18.08 3 10.16 3 2 C2.01 2 1.02 2 0 2 C0 1.34 0 0.68 0 0 Z " fill="#000000" transform="translate(82,25)"/>
<path d="M0 0 C4.62 0 9.24 0 14 0 C14 0.66 14 1.32 14 2 C12.68 2 11.36 2 10 2 C10 9.92 10 17.84 10 26 C11.32 26.33 12.64 26.66 14 27 C14 27.66 14 28.32 14 29 C9.38 29 4.76 29 0 29 C0 28.01 0 27.02 0 26 C0.99 26 1.98 26 3 26 C3 18.08 3 10.16 3 2 C2.01 2 1.02 2 0 2 C0 1.34 0 0.68 0 0 Z " fill="#000000" transform="translate(322,25)"/>
</svg>
