<?xml version="1.0" encoding="UTF-8"?>
<svg version="1.1" xmlns="http://www.w3.org/2000/svg" width="1091" height="1026">
<path d="M0 0 C175.56 0 351.12 0 532 0 C532 240.9 532 481.8 532 730 C356.44 730 180.88 730 0 730 C0 489.1 0 248.2 0 0 Z " fill="#333335" transform="translate(287,20)"/>
<path d="M0 0 C-0.7626818 3.51681051 -2.03731028 6.72638291 -3.375 10.0625 C-7.5937023 21.05558222 -10.39974678 31.11587534 -9 43 C-7.70224339 45.87417261 -6.73175174 47.49787747 -4.1328125 49.28125 C1.13738896 51.05728859 6.62194816 50.97406078 11.765625 48.8671875 C19.30354514 44.55658047 23.52004655 39.60704672 27.10546875 31.734375 C28 30 28 30 30 28 C32.625 28.375 32.625 28.375 35 29 C34.83340874 35.49705903 31.30353381 39.49438721 27 44 C20.61267198 49.76985257 13.49251082 54.0285358 5.9375 58.0625 C5.23786133 58.43753662 4.53822266 58.81257324 3.81738281 59.19897461 C-11.84025964 67.27319729 -28.49392457 73.10708842 -45.10302734 78.86343384 C-49.8883979 80.52206117 -54.66896921 82.19433233 -59.44992065 83.86564636 C-61.87654762 84.71381572 -64.30340634 85.5613223 -66.73049927 86.40815735 C-77.00464346 89.99419249 -87.25653803 93.63990694 -97.5 97.3125 C-100.88258338 98.52407812 -104.26542876 99.7349226 -107.6484375 100.9453125 C-108.96331902 101.41576492 -108.96331902 101.41576492 -110.30476379 101.89572144 C-118.0036412 104.64811566 -125.70820888 107.3843946 -133.4140625 110.1171875 C-134.04644585 110.34145542 -134.67882919 110.56572334 -135.33037567 110.79678726 C-140.59503134 112.66371351 -145.85989861 114.53004278 -151.12475586 116.39640045 C-170.59346197 123.29817134 -190.05145816 130.22905808 -209.5 137.1875 C-229.07642511 144.19131646 -248.67655341 151.1249561 -268.29400635 158.01296997 C-284.68561019 163.7687564 -301.05918578 169.57201278 -317.41455078 175.42993164 C-326.67351567 178.74527235 -335.93799459 182.04424609 -345.2109375 185.3203125 C-346.25522919 185.68939728 -347.29952087 186.05848206 -348.37545776 186.43875122 C-360.63876957 190.77222123 -360.63876957 190.77222123 -366.23976135 192.73561096 C-368.11858507 193.40409176 -369.99182876 194.08845773 -371.85923767 194.78819275 C-376.76119296 196.60758738 -381.59409195 198.18967607 -386.68729115 199.39417362 C-401.65864675 202.8490728 -401.65864675 202.8490728 -413.42816162 212.05096436 C-418.26269931 219.96552248 -420.73869336 229.04867382 -423.20001221 237.91601562 C-424.23153469 241.53102136 -425.39976404 245.10129318 -426.55664062 248.67773438 C-428.56179097 254.92899704 -430.44693021 261.20373179 -432.24641418 267.51771545 C-433 270 -433 270 -434 272 C-432.94014893 271.52280518 -431.88029785 271.04561035 -430.78833008 270.55395508 C-407.73486389 260.17471665 -384.67443747 249.81138984 -361.60058594 239.47753906 C-339.72185944 229.67801812 -317.85995159 219.84131652 -296 210 C-271.87572702 199.13928948 -247.74595549 188.29127969 -223.60058594 177.47753906 C-201.72185944 167.67801812 -179.85995159 157.84131652 -158 148 C-136.14601409 138.16136922 -114.28999044 128.32755427 -92.41699219 118.53125 C-88.95698204 116.98072245 -85.49789886 115.42814406 -82.0390625 113.875 C-80.87213867 113.35123779 -79.70521484 112.82747559 -78.50292969 112.2878418 C-76.12838723 111.22202929 -73.7540378 110.15578665 -71.37988281 109.08911133 C-64.57931942 106.03798607 -57.76825796 103.01246957 -50.9453125 100.01171875 C3.52185283 78.8740189 3.52185283 78.8740189 42 38 C42.33 38 42.66 38 43 38 C43 161.42 43 284.84 43 412 C-132.56 412 -308.12 412 -489 412 C-489 342.04 -489 272.08 -489 200 C-485.7 199.01 -482.4 198.02 -479 197 C-476.20422191 195.766037 -473.51934856 194.5201717 -470.8125 193.125 C-470.15314453 192.79886719 -469.49378906 192.47273437 -468.81445312 192.13671875 C-453.24845946 184.25403821 -445.69331611 171.30342512 -440.3203125 155.03125 C-434.86815736 137.67172199 -431.45994746 119.83851646 -428 102 C-427.26612061 101.88027832 -426.53224121 101.76055664 -425.77612305 101.63720703 C-418.59392105 100.4412895 -418.59392105 100.4412895 -411.8125 97.875 C-411.07644531 97.52179688 -410.34039062 97.16859375 -409.58203125 96.8046875 C-409.05996094 96.53914063 -408.53789062 96.27359375 -408 96 C-402.38426977 104.28550362 -400.61278867 113.53426698 -398.53662109 123.14501953 C-394.23592157 144.06653402 -394.23592157 144.06653402 -382 161 C-377.77013311 163.11493344 -372.59220102 162.49202154 -368 162 C-361.30676042 159.71074781 -354.21442816 154.42885632 -351 148 C-350.34 148 -349.68 148 -349 148 C-348.484375 148.680625 -347.96875 149.36125 -347.4375 150.0625 C-344.65714477 152.27252595 -344.08492087 152.27156255 -340.6875 152 C-331.64971524 150.4641673 -326.22813921 145.22627775 -321 138 C-311.12710555 122.65413482 -305.47047511 104.81510555 -302 87 C-297.545 86.505 -297.545 86.505 -293 86 C-293.59748047 87.41539062 -293.59748047 87.41539062 -294.20703125 88.859375 C-298.85091367 100.02137215 -302.22067114 110.2320471 -302.375 122.4375 C-302.38901855 123.20747314 -302.40303711 123.97744629 -302.41748047 124.77075195 C-302.37915236 129.24973501 -302.07794041 132.48137014 -299 136 C-294.89369969 137.18887171 -290.81814559 136.29453241 -286.875 134.875 C-280.27984234 130.57381022 -275.62771135 125.58804388 -271.1875 119.125 C-269.50779008 116.69748959 -267.79855391 114.34438371 -266 112 C-265.34 112 -264.68 112 -264 112 C-263.66226563 112.71027344 -263.32453125 113.42054688 -262.9765625 114.15234375 C-262.30753906 115.53099609 -262.30753906 115.53099609 -261.625 116.9375 C-260.96371094 118.31228516 -260.96371094 118.31228516 -260.2890625 119.71484375 C-259.20800838 122.12903802 -259.20800838 122.12903802 -257 123 C-250.80157025 123.76121067 -247.29844029 122.71128554 -242.2421875 119.0546875 C-238.82878522 115.92672653 -236.30112295 112.31833723 -233.7265625 108.48828125 C-232.27470934 106.39590464 -230.86787537 104.71317403 -229 103 C-226 107.75 -226 107.75 -226 110 C-220.6834184 112.83551019 -214.56242129 113.00871427 -208.8203125 111.3828125 C-199.83839963 107.43356676 -195.56490768 99.99312934 -191.96582031 91.21166992 C-190.59997677 87.54401013 -189.82734654 84.17970296 -189.5234375 80.2734375 C-188.57973087 68.40762556 -188.57973087 68.40762556 -185.34619141 65.52636719 C-180.62460074 62.66250783 -174.58313712 60 -169 60 C-168.91896596 62.91722548 -168.85948919 65.83219516 -168.8125 68.75 C-168.77479492 69.9875 -168.77479492 69.9875 -168.73632812 71.25 C-168.69309587 74.82386665 -168.67333548 77.33251212 -170.26171875 80.578125 C-172 82 -172 82 -176 82 C-176.12375 80.88625 -176.2475 79.7725 -176.375 78.625 C-176.6465813 74.96896323 -176.6465813 74.96896323 -179 73 C-181.06270621 73.06232843 -181.06270621 73.06232843 -183 74 C-186.16277909 80.0996454 -186.99941397 86.17982332 -186 93 C-183.84050949 96.16211111 -181.45272727 97.48308489 -178 99 C-172.17783122 99.94117766 -167.78809779 98.87835243 -162.7265625 95.97265625 C-161 95 -161 95 -158 94 C-156.87061978 92.17976943 -156.87061978 92.17976943 -156 90 C-155.67 89.31421875 -155.34 88.6284375 -155 87.921875 C-154.67 87.20515625 -154.34 86.4884375 -154 85.75 C-153.67 85.04359375 -153.34 84.3371875 -153 83.609375 C-150.44766067 76.94936455 -149.71600973 71.05672212 -149.875 64 C-149.88853516 62.83791016 -149.88853516 62.83791016 -149.90234375 61.65234375 C-149.92560612 59.76809157 -149.9614636 57.88400168 -150 56 C-147.35261084 54.5393715 -146.10551666 54 -143 54 C-142.75984784 60.60418446 -143.39797091 66.98578177 -144.21386719 73.52880859 C-144.97851537 79.67456631 -145.54773167 85.8229668 -146 92 C-144.86820313 91.4946875 -143.73640625 90.989375 -142.5703125 90.46875 C-141.08862711 89.81230711 -139.60685159 89.15606763 -138.125 88.5 C-137.37863281 88.16613281 -136.63226562 87.83226562 -135.86328125 87.48828125 C-135.14785156 87.17246094 -134.43242188 86.85664063 -133.6953125 86.53125 C-133.03547363 86.23798828 -132.37563477 85.94472656 -131.69580078 85.64257812 C-130 85 -130 85 -128 85 C-128.33 84.13375 -128.66 83.2675 -129 82.375 C-129.98731341 79.04281725 -130.16420974 76.44840462 -130 73 C-129.45730469 73.34933594 -128.91460938 73.69867188 -128.35546875 74.05859375 C-127.64003906 74.51363281 -126.92460938 74.96867187 -126.1875 75.4375 C-125.47980469 75.88996094 -124.77210938 76.34242188 -124.04296875 76.80859375 C-117.59916474 80.56645269 -108.04165026 80.00391055 -100.96484375 78.24609375 C-95.45473719 76.126822 -90.907832 73.543776 -87.3125 68.75 C-86.879375 68.1725 -86.44625 67.595 -86 67 C-85.34 67 -84.68 67 -84 67 C-84 67.66 -84 68.32 -84 69 C-77.93347365 71.77263544 -71.15797669 72.25523825 -64.72265625 70.3125 C-59.70651195 67.92858984 -55.32459854 64.45047756 -51 61 C-50.13375 61.73089844 -50.13375 61.73089844 -49.25 62.4765625 C-45.89219972 64.7500731 -42.92945819 64.63065378 -39 64 C-36.65738392 62.62073227 -36.65738392 62.62073227 -35 61 C-34.34 61 -33.68 61 -33 61 C-32.72671875 60.41992188 -32.4534375 59.83984375 -32.171875 59.2421875 C-31.01795432 57.03435261 -29.70905015 55.1409994 -28.25 53.125 C-18.4144328 38.45540708 -14.03621961 20.18055973 -11 3 C-9.54293274 2.49632243 -8.08429904 1.99717444 -6.625 1.5 C-5.81289063 1.2215625 -5.00078125 0.943125 -4.1640625 0.65625 C-2 0 -2 0 0 0 Z " fill="#333335" transform="translate(776,338)"/>
<path d="M0 0 C0.33 0 0.66 0 1 0 C1.16025782 45.16499047 1.2835858 90.32995081 1.35745731 135.4951696 C1.36621215 140.82856731 1.37527241 146.16196446 1.38452148 151.49536133 C1.38635766 152.55713477 1.38819383 153.61890822 1.39008565 154.71285661 C1.42053636 171.90000636 1.4757237 189.08699204 1.54006957 206.27404449 C1.60555399 223.91245093 1.6444165 241.55077151 1.65861946 259.18929452 C1.66821943 270.07136379 1.69852832 280.95296931 1.75541527 291.83489581 C1.7924464 299.29929212 1.80359406 306.76344904 1.79450964 314.22793052 C1.79003052 318.53330277 1.79684595 322.83786524 1.83443832 327.14309311 C1.86864766 331.08981585 1.87013312 335.03518884 1.84629226 338.98197534 C1.84334841 340.40479999 1.85210933 341.82771085 1.87418228 343.25036732 C2.04609009 355.02083317 -1.42515385 361.80821263 -9 370.56640625 C-9.98553751 371.57937878 -10.98584097 372.57818349 -12 373.5625 C-12.55341064 374.10495361 -13.10682129 374.64740723 -13.67700195 375.20629883 C-19.85447956 381.07330709 -26.69770712 385.65631812 -34 390 C-34.99845947 390.59627197 -34.99845947 390.59627197 -36.01708984 391.20458984 C-57.19550123 403.69648452 -79.92224741 413.4147389 -102.35888672 423.38085938 C-108.18240567 425.97047837 -113.99735192 428.57915124 -119.8125 431.1875 C-120.98006836 431.71077881 -122.14763672 432.23405762 -123.35058594 432.77319336 C-133.90541903 437.50428799 -144.45279236 442.25193581 -155 447 C-172.45825901 454.85923034 -189.92605847 462.69684721 -207.39941406 470.52246094 C-229.27814056 480.32198188 -251.14004841 490.15868348 -273 500 C-279.89571101 503.10443847 -286.79149778 506.20870846 -293.6875 509.3125 C-294.5292276 509.69135345 -295.3709552 510.07020691 -296.2381897 510.46054077 C-307.79174934 515.66031783 -319.34989828 520.84968261 -330.9128418 526.02856445 C-341.28062071 530.67374096 -351.6405764 535.3362266 -362 540 C-374.62733427 545.68477822 -387.25774948 551.36244225 -399.89697266 557.02075195 C-406.89158423 560.15358155 -413.88111652 563.29739835 -420.8671875 566.44921875 C-451.99772448 580.49184746 -451.99772448 580.49184746 -464.875 586.125 C-465.80103027 586.53258545 -466.72706055 586.9401709 -467.68115234 587.36010742 C-468.50566895 587.7182251 -469.33018555 588.07634277 -470.1796875 588.4453125 C-470.87819824 588.74969238 -471.57670898 589.05407227 -472.29638672 589.36767578 C-474 590 -474 590 -476 590 C-472.73683987 578.82051435 -468.97593355 567.81899041 -465.15039062 556.82128906 C-464.29794922 554.3507755 -463.45847455 551.87575084 -462.63183594 549.39648438 C-461.42969649 545.79672873 -460.18457939 542.21446671 -458.9296875 538.6328125 C-458.56994843 537.52551788 -458.21020935 536.41822327 -457.83956909 535.27737427 C-455.19254846 527.91984848 -455.19254846 527.91984848 -452.11912537 525.54922485 C-449.77913422 524.46696139 -447.47448447 523.72240151 -445 523 C-443.08784468 522.29835182 -441.17824059 521.5897258 -439.27075195 520.87548828 C-437.0945629 520.10341893 -434.91698668 519.33525205 -432.73828125 518.5703125 C-430.90433627 517.92131176 -429.07039129 517.27231102 -427.23644638 516.62331009 C-425.28115226 515.93216294 -423.32523257 515.2428151 -421.36911011 514.55401611 C-417.24358085 513.10128794 -413.11983072 511.64355537 -408.99633789 510.18505859 C-403.95468966 508.40215071 -398.91264298 506.62037868 -393.87006664 504.84009743 C-380.85831472 500.24610219 -367.85412113 495.63086055 -354.85043335 491.01409912 C-350.92299945 489.61976502 -346.9953337 488.22608481 -343.06762695 486.83251953 C-328.20972171 481.56071477 -313.35373134 476.28355346 -298.5 471 C-281.0237 464.78358453 -263.5437932 458.57735769 -246.0625 452.375 C-245.08536482 452.02830891 -245.08536482 452.02830891 -244.08848953 451.67461395 C-233.38377464 447.87655421 -222.67891706 444.0788967 -211.9740448 440.28128052 C-207.26133475 438.60941681 -202.54863167 436.93753346 -197.8359375 435.265625 C-197.17428337 435.03089289 -196.51262924 434.79616077 -195.83092499 434.55431557 C-184.78010762 430.63383327 -173.72968652 426.71223519 -162.67950439 422.78996277 C-157.01225744 420.77846205 -151.34484277 418.76743906 -145.67675781 416.75830078 C-135.51966794 413.15793161 -125.36467377 409.55189083 -115.21582031 405.92835999 C-110.45131833 404.22787304 -105.68474431 402.53349872 -100.91503906 400.84765625 C-67.84183968 389.41357809 -67.84183968 389.41357809 -36 375 C-35.36288086 374.67386719 -34.72576172 374.34773438 -34.06933594 374.01171875 C-24.26396088 368.91097024 -12.1900768 361.81086113 -8 351 C-8 349.68 -8 348.36 -8 347 C-10.41781909 347.10176309 -10.41781909 347.10176309 -13 348 C-14.62575183 350.27921295 -14.62575183 350.27921295 -15.8125 353.125 C-19.50038355 360.42492374 -25.07026536 366.35675512 -33 369 C-38.4150039 369.64947573 -42.61694975 369.6793931 -47.5625 367.25 C-50.82835642 364.2353633 -51.84180814 362.32548129 -52.37109375 357.890625 C-52.63588887 343.37362193 -47.85730155 331.16023498 -42 318 C-42.54269531 318.2165625 -43.08539062 318.433125 -43.64453125 318.65625 C-44.35996094 318.9346875 -45.07539062 319.213125 -45.8125 319.5 C-46.87404297 319.91765625 -46.87404297 319.91765625 -47.95703125 320.34375 C-50 321 -50 321 -53 321 C-53.02578125 321.54785156 -53.0515625 322.09570312 -53.078125 322.66015625 C-54.47215952 342.14495693 -62.3338482 364.06302417 -75 379 C-78.29804023 381.77335201 -80.7794333 383.26004714 -85.0625 383.4375 C-88.9577147 383.00469837 -90.9053962 382.32095285 -94 380 C-94.74443359 380.70576172 -94.74443359 380.70576172 -95.50390625 381.42578125 C-102.74281366 388.0603017 -108.29549658 390.32178309 -118.1328125 390.3984375 C-121.42354961 389.94114161 -123.35449528 388.98655117 -126 387 C-126 386.34 -126 385.68 -126 385 C-126.639375 385.70125 -127.27875 386.4025 -127.9375 387.125 C-135.20583709 394.37268841 -143.05353439 398.26859314 -153.375 398.375 C-160.67216028 398.28889781 -165.69733842 397.30266158 -171 392 C-170.67 395.63 -170.34 399.26 -170 403 C-172.62309099 404.17112946 -175.24828142 405.33705964 -177.875 406.5 C-178.62136719 406.83386719 -179.36773438 407.16773438 -180.13671875 407.51171875 C-180.85214844 407.82753906 -181.56757812 408.14335937 -182.3046875 408.46875 C-183.2944458 408.90864258 -183.2944458 408.90864258 -184.30419922 409.35742188 C-186 410 -186 410 -188 410 C-188.21438854 401.29344318 -187.5842174 392.8846683 -186.5 384.25 C-186.35691406 383.0640625 -186.21382812 381.878125 -186.06640625 380.65625 C-185.71726293 377.76999852 -185.36170967 374.88469878 -185 372 C-187.31 372.66 -189.62 373.32 -192 374 C-191.67 374.66 -191.34 375.32 -191 376 C-190.04208926 388.13877046 -191.48225221 400.02750092 -198.5078125 410.34765625 C-202.22785194 414.46696694 -207.45311889 417.51029255 -212.98046875 418.2734375 C-219.18530377 418.55896973 -223.23521515 417.01117092 -228 413 C-230.22755523 408.54488955 -229.56734984 402.29518799 -228.3984375 397.56640625 C-227.30199564 394.54842235 -226.2857586 392.2857586 -224 390 C-221.06546739 390.36681658 -220.13562754 390.86437246 -218 393 C-217.875 396.625 -217.875 396.625 -218 400 C-216.05925139 399.72382467 -216.05925139 399.72382467 -214 399 C-211.9859044 395.9788566 -211.73163404 395.19339983 -211.5859375 391.76953125 C-211.54726563 390.96708984 -211.50859375 390.16464844 -211.46875 389.33789062 C-211.4378125 388.50451172 -211.406875 387.67113281 -211.375 386.8125 C-211.33632813 385.96751953 -211.29765625 385.12253906 -211.2578125 384.25195312 C-211.16363721 382.16832476 -211.08073325 380.08419247 -211 378 C-212.13179687 378.5053125 -213.26359375 379.010625 -214.4296875 379.53125 C-215.91137289 380.18769289 -217.39314841 380.84393237 -218.875 381.5 C-219.62136719 381.83386719 -220.36773438 382.16773438 -221.13671875 382.51171875 C-221.85214844 382.82753906 -222.56757812 383.14335937 -223.3046875 383.46875 C-224.2944458 383.90864258 -224.2944458 383.90864258 -225.30419922 384.35742188 C-227 385 -227 385 -229 385 C-229.03738281 385.72703125 -229.07476563 386.4540625 -229.11328125 387.203125 C-230.02824685 401.19671657 -232.83056736 415.73233663 -243.5625 425.625 C-248.98811275 430.20920756 -253.64070753 431.42245248 -260.6328125 431.24609375 C-263.84579445 430.91207087 -265.57485085 430.13983749 -268 428 C-270.3125 424.8125 -270.3125 424.8125 -272 422 C-272.37511719 422.58007812 -272.75023437 423.16015625 -273.13671875 423.7578125 C-284.0450606 440.40883305 -284.0450606 440.40883305 -293.1171875 442.484375 C-296.99894206 442.74804135 -298.81949556 442.14126435 -301.875 439.75 C-304.54463595 436.295177 -306 434.39516531 -306 430 C-306.66 430 -307.32 430 -308 430 C-308.23589844 430.52980469 -308.47179687 431.05960937 -308.71484375 431.60546875 C-313.65452176 440.80918492 -321.81175561 451.60391854 -332 455 C-334.15625 455.203125 -334.15625 455.203125 -336.5 455.25 C-337.2734375 455.27578125 -338.046875 455.3015625 -338.84375 455.328125 C-341.54631614 454.91686494 -342.35576978 454.14551992 -344 452 C-348.86155846 437.41532462 -343.29780962 420.0078169 -336.953125 406.87890625 C-336.63859375 406.25886719 -336.3240625 405.63882812 -336 405 C-338.64 405 -341.28 405 -344 405 C-344.17015625 406.93746094 -344.17015625 406.93746094 -344.34375 408.9140625 C-346.71382954 429.98966559 -356.6084475 453.90638115 -373.08984375 467.625 C-377.40658298 470.73234603 -381.76394896 471.56913598 -387 471 C-389.375 469.625 -389.375 469.625 -391 468 C-391 467.34 -391 466.68 -391 466 C-391.66 466 -392.32 466 -393 466 C-393.26554688 466.5878125 -393.53109375 467.175625 -393.8046875 467.78125 C-396.77816336 473.3006431 -401.98665203 477.79906634 -407.69921875 480.328125 C-413.25845748 481.95153597 -419.03267341 482.46381496 -424.3359375 479.84765625 C-436.80527185 470.07762225 -439.793274 450.86833993 -442.5 436.125 C-443.85315183 428.94169686 -445.67312897 420.32687103 -451 415 C-451.81404297 415.41572266 -451.81404297 415.41572266 -452.64453125 415.83984375 C-453.35996094 416.20207031 -454.07539063 416.56429688 -454.8125 416.9375 C-455.52019531 417.29714844 -456.22789062 417.65679687 -456.95703125 418.02734375 C-460.16201599 419.55323515 -462.67979266 420.1200034 -466.1875 420.0625 C-467.445625 420.041875 -468.70375 420.02125 -470 420 C-470.18175781 421.86978516 -470.18175781 421.86978516 -470.3671875 423.77734375 C-473.30589471 450.02604034 -479.25170781 486.23852105 -500.02734375 504.8125 C-505.34862367 508.88759984 -511.23914303 511.67987754 -517.3125 514.4375 C-518.08956299 514.79207275 -518.86662598 515.14664551 -519.66723633 515.51196289 C-520.78521606 515.99910767 -520.78521606 515.99910767 -521.92578125 516.49609375 C-522.59005127 516.78669678 -523.25432129 517.0772998 -523.9387207 517.37670898 C-526.36774014 518.11119751 -528.47631312 518.10564526 -531 518 C-531.60894002 509.04954833 -530.07477248 500.88598386 -528.02148438 492.23583984 C-527.49590347 489.98243633 -527.02157554 487.7216263 -526.546875 485.45703125 C-524.18868069 474.99279779 -524.18868069 474.99279779 -521.09179688 472.40625 C-519.02480287 471.63426344 -517.18484029 471.25993997 -515 471 C-504.49949097 466.74662925 -499.38256874 458.48698788 -494.8125 448.4375 C-488.92333526 433.67468867 -486.11127675 418.73420231 -483.89453125 403.03125 C-483.23864467 398.41304971 -482.39324646 393.87017188 -481.4440918 389.3046875 C-480.64213496 385.14280044 -480.22822988 380.93931623 -479.7890625 376.7265625 C-479.31858333 372.58959049 -478.45367316 368.90068965 -477 365 C-477.66 365 -478.32 365 -479 365 C-479 365.66 -479 366.32 -479 367 C-480.92627734 368.56396812 -482.83055563 369.98028754 -484.875 371.375 C-485.76203613 371.98118164 -485.76203613 371.98118164 -486.66699219 372.59960938 C-494.4588574 377.78857952 -501.63771471 380.39598159 -511 381 C-510.33086278 373.74594419 -509.02143216 366.74530249 -507.5 359.625 C-507.27441406 358.54605469 -507.04882812 357.46710938 -506.81640625 356.35546875 C-505.14580676 348.43742028 -505.14580676 348.43742028 -504 345 C-503.45859375 345.15855469 -502.9171875 345.31710937 -502.359375 345.48046875 C-495.47345831 346.99673849 -488.06839003 347.02056656 -481.8828125 343.41015625 C-477.22485901 339.92152304 -473.22449171 335.83673756 -470 331 C-467.1796875 330.70703125 -467.1796875 330.70703125 -463.875 330.8125 C-462.77929688 330.83957031 -461.68359375 330.86664063 -460.5546875 330.89453125 C-459.29011719 330.94673828 -459.29011719 330.94673828 -458 331 C-458.11747164 332.77134867 -458.24452298 334.54206179 -458.375 336.3125 C-458.44460938 337.29863281 -458.51421875 338.28476562 -458.5859375 339.30078125 C-458.91592332 342.24886209 -459.3631413 345.07115198 -459.9140625 347.98046875 C-461.22067506 354.95084918 -462.09984051 361.96750396 -463 369 C-464.11585748 377.71763655 -465.33543327 386.36938542 -467 395 C-467.20882812 396.14855469 -467.41765625 397.29710937 -467.6328125 398.48046875 C-468.08854167 400.98697917 -468.54427083 403.49348958 -469 406 C-443.63837576 397.49386019 -432.86810656 376.08633805 -420.42285156 353.89770508 C-406.43624653 328.9659609 -387.60753796 300.95053869 -359.015625 291.62890625 C-349.86506986 289.72056509 -340.28069772 289.55288502 -332.0546875 294.44140625 C-327.17618392 298.14202018 -323.91505575 302.15037517 -322 308 C-321.734375 310.71875 -321.734375 310.71875 -321.75 313.5 C-321.74484375 314.4178125 -321.7396875 315.335625 -321.734375 316.28125 C-322.29932469 322.06367624 -324.65543815 325.2478784 -329 329 C-332.28773043 331.05483152 -333.99232385 332.10953002 -337.875 331.6875 C-338.57625 331.460625 -339.2775 331.23375 -340 331 C-340.28875 330.113125 -340.5775 329.22625 -340.875 328.3125 C-342.64561236 322.2311686 -342.64561236 322.2311686 -347 318 C-353.26680252 317.42427474 -357.31202853 318.51562893 -362.8125 321.4375 C-363.85615723 321.978302 -363.85615723 321.978302 -364.92089844 322.5300293 C-371.29265702 325.94767579 -376.64356818 330.15294654 -382 335 C-382.93972656 335.77472656 -383.87945312 336.54945313 -384.84765625 337.34765625 C-393.44907465 344.67982714 -399.75627197 353.31377632 -406.24755859 362.51708984 C-409.05229215 366.49091825 -411.90230271 370.43190479 -414.75 374.375 C-415.5546167 375.49165039 -415.5546167 375.49165039 -416.37548828 376.63085938 C-423.48013329 386.47041075 -430.74762707 396.07913876 -439 405 C-438.73703125 405.50917969 -438.4740625 406.01835937 -438.203125 406.54296875 C-436.62785851 409.75999024 -435.18630585 413.03187818 -433.75 416.3125 C-433.4413501 417.01455566 -433.1327002 417.71661133 -432.81469727 418.43994141 C-431.0062105 422.58595649 -429.29585474 426.75511914 -427.6706543 430.97607422 C-422.84762975 444.41833216 -422.84762975 444.41833216 -413 454 C-408.03935309 454.78369884 -404.15326279 454.4736615 -399.5 452.5625 C-393.72667764 446.64484458 -394.215764 435.20109695 -393.375 427.3125 C-393.2409375 426.11560547 -393.106875 424.91871094 -392.96875 423.68554688 C-391.29951294 413.5156972 -391.29951294 413.5156972 -394 404 C-390.54289448 402.99572108 -387.08412303 401.9973056 -383.625 401 C-382.64015625 400.71382813 -381.6553125 400.42765625 -380.640625 400.1328125 C-379.69960938 399.86210937 -378.75859375 399.59140625 -377.7890625 399.3125 C-376.91975098 399.06113281 -376.05043945 398.80976563 -375.15478516 398.55078125 C-373 398 -373 398 -371 398 C-371.36564019 407.02753023 -372.14848659 415.87835358 -373.5 424.8125 C-373.63059814 425.6777832 -373.76119629 426.54306641 -373.89575195 427.43457031 C-374.41604754 430.75470857 -374.93438051 433.80314152 -376 437 C-376.06802967 438.72795352 -376.08495645 440.45835365 -376.0625 442.1875 C-376.05347656 443.08855469 -376.04445313 443.98960937 -376.03515625 444.91796875 C-376.02355469 445.60503906 -376.01195312 446.29210937 -376 447 C-374.05691586 446.74417473 -374.05691586 446.74417473 -372 446 C-362.18104702 430.04420141 -360.72332308 409.30755661 -360 391 C-353.66226532 389.46667709 -347.49850211 388.51553879 -341 388 C-341 388.99 -341 389.98 -341 391 C-339.78763672 390.67515625 -339.78763672 390.67515625 -338.55078125 390.34375 C-336.94783203 389.92609375 -336.94783203 389.92609375 -335.3125 389.5 C-333.72888672 389.08234375 -333.72888672 389.08234375 -332.11328125 388.65625 C-329.28857328 388.0608285 -326.87163292 387.87213508 -324 388 C-323.1290621 389.72078041 -322.27885442 391.45206323 -321.4375 393.1875 C-320.72400391 394.63189453 -320.72400391 394.63189453 -319.99609375 396.10546875 C-318.86006941 399.40662182 -318.89662984 400.72581319 -320 404 C-320.95530166 405.9187451 -321.95928304 407.81370913 -323 409.6875 C-325.8495674 415.18893754 -326.97270464 419.83124863 -327 426 C-322.06036644 425.5404992 -319.47820102 424.56515605 -316 421 C-310.04539952 413.36959938 -309.1693226 406.93161686 -309.25 397.4375 C-309.21442395 394.93872932 -309.17407767 392.44002189 -309.12890625 389.94140625 C-309.11230957 388.74402832 -309.09571289 387.54665039 -309.07861328 386.31298828 C-308.52835492 363.12352896 -303.12335626 335.54600534 -287 318 C-284.6875 318.0625 -284.6875 318.0625 -282 319 C-278.93288085 324.5354198 -278.48676485 329.30759821 -278.5625 335.5625 C-278.57224854 336.48015137 -278.58199707 337.39780273 -278.59204102 338.34326172 C-279.11572959 359.22334641 -285.16281757 379.49727752 -293.12133789 398.70654297 C-294.59119265 402.54311302 -293.88066061 406.06638261 -293 410 C-292.01919106 412.61982146 -292.01919106 412.61982146 -290 414 C-286.74623863 414.83235756 -284.87378979 414.45072583 -281.90234375 412.91796875 C-278.2814547 410.32223159 -276.31483711 408.26567684 -275.22265625 403.875 C-274.9427409 401.48638899 -274.69406183 399.0939619 -274.47265625 396.69921875 C-273.12055281 386.11705383 -267.89935602 375.33663117 -260.0625 368 C-256.60435724 365.74162105 -254.08897014 365.24533821 -250 365 C-249.1875 366.625 -249.1875 366.625 -249 369 C-250.18226703 370.38494138 -251.36985951 371.76574425 -252.5859375 373.12109375 C-257.97153229 380.27709125 -259.06093788 389.32744968 -258 398 C-257.16422917 400.93526743 -256.20907625 403.79092375 -254 406 C-251.62778044 406.50135199 -251.62778044 406.50135199 -249 406 C-244.33225974 401.33225974 -242.89297875 396.39968102 -242 390 C-243.11375 389.6596875 -243.11375 389.6596875 -244.25 389.3125 C-247.76679269 387.63403076 -249.07869347 386.41565605 -251 383 C-251.67902455 378.41281195 -251.53744902 374.4033391 -249.875 370.0625 C-247.44246582 367.3867124 -245.41230412 366.20434263 -242 365 C-238.78907794 364.93447098 -236.93361732 365.15704893 -234.51171875 367.34375 C-231 371.37975352 -231 371.37975352 -231 374 C-222.42334198 371.46168761 -215.15575752 368.50148102 -210.5390625 360.453125 C-209.24136056 357.66896447 -208.09390628 354.87003369 -207 352 C-206.27273244 350.14508762 -205.54367305 348.29087638 -204.8125 346.4375 C-204.35810547 345.22900391 -204.35810547 345.22900391 -203.89453125 343.99609375 C-203 342 -203 342 -201 340 C-198.0906442 339.85482256 -195.280054 339.81369204 -192.375 339.875 C-191.57320312 339.88402344 -190.77140625 339.89304687 -189.9453125 339.90234375 C-187.96341477 339.92593777 -185.98167019 339.96180935 -184 340 C-184.61488281 340.87011719 -184.61488281 340.87011719 -185.2421875 341.7578125 C-190.10038952 348.80104318 -192.12470316 354.53879719 -193 363 C-188.8154067 362.24840558 -186.07739438 360.96151681 -183 358 C-180.5959481 352.47586768 -180.04526751 346.22088406 -179.22671509 340.30053711 C-178.53165042 335.2865261 -177.69159803 330.29616074 -176.875 325.30078125 C-176.71872635 324.31796173 -176.5624527 323.33514221 -176.40144348 322.32254028 C-175.12833789 314.4146782 -173.45216812 306.72458451 -171.3125 299 C-170.92058472 297.54847534 -170.92058472 297.54847534 -170.52075195 296.06762695 C-165.12068153 277.05365043 -165.12068153 277.05365043 -159 272 C-156.4375 272 -156.4375 272 -154 273 C-148.95499095 278.04500905 -148.74424955 284.57373424 -148.7265625 291.3125 C-148.73429687 292.323125 -148.74203125 293.33375 -148.75 294.375 C-148.74226563 295.37789063 -148.73453125 296.38078125 -148.7265625 297.4140625 C-148.74873229 305.88292392 -150.34596727 312.70836478 -153.4375 320.625 C-153.84871094 321.68976563 -154.25992187 322.75453125 -154.68359375 323.8515625 C-155.99148605 326.97963725 -157.44804561 329.98658419 -159 333 C-158.05125 332.505 -157.1025 332.01 -156.125 331.5 C-151.47351619 329.52807279 -146.97873041 329.23845078 -142 330 C-138.89262055 331.334419 -136.55048522 332.89902957 -135 336 C-133.93220326 345.61017065 -138.06568843 353.84860379 -143.8125 361.375 C-147.36495174 365.55435499 -151.22614518 369.24326693 -156 372 C-156.66 372 -157.32 372 -158 372 C-155.77075233 376.45849533 -153.4725679 378.76371605 -149 381 C-144.79074283 381.91200572 -141.47027991 381.8341487 -137.6796875 379.68359375 C-135.31060125 377.92163892 -133.08802598 376.08802598 -131 374 C-130.88593103 372.12631161 -130.77874913 370.25189102 -130.71044922 368.37597656 C-130.10174794 351.89582424 -124.92752979 338.16698949 -113.25390625 326.0390625 C-109.38576147 322.53963169 -105.97201848 320.09349065 -100.640625 319.92578125 C-96.61691892 320.26109009 -93.55849308 321.06046098 -90 323 C-90.33 320.36 -90.66 317.72 -91 315 C-84.34443923 313.2362764 -77.86036401 311.65965039 -71 311 C-72.03808726 321.84622202 -74.32892647 332.24591745 -76.96728516 342.81005859 C-78.40269189 348.70861387 -79.33941616 353.92740221 -79 360 C-75.09691584 358.34118923 -73.77415555 356.4386221 -71.99511719 352.55810547 C-67.67707574 341.4578998 -65.71133442 329.81086939 -63.75 318.125 C-63.47987197 316.55066007 -63.20904227 314.97644037 -62.9375 313.40234375 C-62.28360391 309.60289396 -61.63910405 305.80196469 -61 302 C-58.91798472 301.49453964 -56.83432933 300.99583165 -54.75 300.5 C-53.00976562 300.08234375 -53.00976562 300.08234375 -51.234375 299.65625 C-48 299 -48 299 -44 299 C-44 299.99 -44 300.98 -44 302 C-42.35451172 301.54947266 -42.35451172 301.54947266 -40.67578125 301.08984375 C-39.22150358 300.70516385 -37.767068 300.3210806 -36.3125 299.9375 C-35.59126953 299.73833984 -34.87003906 299.53917969 -34.12695312 299.33398438 C-26.89736374 297.45231043 -26.89736374 297.45231043 -23 299 C-21.34765625 300.70703125 -21.34765625 300.70703125 -20.0625 302.8125 C-19.62035156 303.49957031 -19.17820312 304.18664062 -18.72265625 304.89453125 C-18 307 -18 307 -18.69921875 309.01953125 C-20.00533412 311.00812132 -21.35509689 312.94763387 -22.75 314.875 C-28.26339354 323.09767783 -34.01529607 333.76243133 -33 344 C-32.34 344.66 -31.68 345.32 -31 346 C-27.94555495 345.82701363 -26.44846321 345.43167053 -24.2265625 343.29296875 C-23.69804688 342.59816406 -23.16953125 341.90335937 -22.625 341.1875 C-18.47677009 336.18627909 -14.99621194 333.35548277 -8.3125 332.5625 C-5 333 -5 333 -1 336 C-0.505 169.68 -0.505 169.68 0 0 Z " fill="#FCFCFC" transform="translate(818,20)"/>
<path d="M0 0 C1 1 1 1 1.1328125 4.0625 C1.11882536 11.11201934 0.98159801 18.00611419 0 25 C-1.9375 25.5625 -1.9375 25.5625 -4 26 C-6.12037563 23.87962437 -5.82345835 19.54275813 -6.20703125 16.6640625 C-7.17638663 13.40741045 -8.0451188 12.60848316 -11 11 C-17.85287063 8.89920196 -25.13428632 8.80502975 -32.25 8.75 C-32.9939502 8.74073486 -33.73790039 8.73146973 -34.50439453 8.72192383 C-39.6278728 8.75093753 -44.12336191 9.37445397 -49 11 C-49.90331047 13.7099314 -50.12628885 15.2747397 -50.12939453 18.05664062 C-50.13254669 18.86758179 -50.13569885 19.67852295 -50.13894653 20.51403809 C-50.1369223 21.38596802 -50.13489807 22.25789795 -50.1328125 23.15625 C-50.13376923 24.05492798 -50.13472595 24.95360596 -50.13571167 25.8795166 C-50.13639205 27.77921621 -50.13454766 29.67891815 -50.13037109 31.57861328 C-50.12502085 34.48865982 -50.13032089 37.39855202 -50.13671875 40.30859375 C-50.13605794 42.15364617 -50.13477673 43.9986985 -50.1328125 45.84375 C-50.13483673 46.71567993 -50.13686096 47.58760986 -50.13894653 48.48596191 C-50.13579437 49.29690308 -50.13264221 50.10784424 -50.12939453 50.94335938 C-50.12859894 51.65600952 -50.12780334 52.36865967 -50.12698364 53.10290527 C-50.06500989 55.22524131 -50.06500989 55.22524131 -49 58 C-44.81263332 58.08760181 -40.62550469 58.14059435 -36.4375 58.1875 C-35.25607422 58.21263672 -34.07464844 58.23777344 -32.85742188 58.26367188 C-23.97872714 58.38655135 -23.97872714 58.38655135 -16 55 C-14.13709642 52.58798918 -14.13709642 52.58798918 -13.0625 49.8125 C-12.66160156 48.91144531 -12.26070313 48.01039063 -11.84765625 47.08203125 C-11.56792969 46.39496094 -11.28820312 45.70789063 -11 45 C-9.02 45.495 -9.02 45.495 -7 46 C-7 57.88 -7 69.76 -7 82 C-8.32 82.33 -9.64 82.66 -11 83 C-11.15855469 82.40832031 -11.31710938 81.81664062 -11.48046875 81.20703125 C-13.03201632 75.95234253 -14.49423367 72.43296482 -19 69 C-22.75071964 67.98102301 -26.30270914 67.88326458 -30.17578125 67.90234375 C-31.33271484 67.90556641 -32.48964844 67.90878906 -33.68164062 67.91210938 C-34.87982422 67.92048828 -36.07800781 67.92886719 -37.3125 67.9375 C-39.1387793 67.94426758 -39.1387793 67.94426758 -41.00195312 67.95117188 C-44.00135226 67.96293422 -47.00065089 67.97937174 -50 68 C-50.0495439 74.15640091 -50.08578791 80.31268499 -50.10986328 86.46923828 C-50.119903 88.56235781 -50.13353753 90.65546338 -50.15087891 92.74853516 C-50.17521632 95.76207939 -50.18650357 98.7754377 -50.1953125 101.7890625 C-50.20563507 102.72054108 -50.21595764 103.65201965 -50.22659302 104.61172485 C-50.22741746 109.41697283 -50.13008648 113.57841676 -48 118 C-35.82342736 123.46703261 -19.00888651 119.02009096 -7.21484375 114.5625 C-1.22939306 111.65341096 3.32353212 107.51470182 7 102 C8.98 102.495 8.98 102.495 11 103 C10.62294285 110.91820007 8.80235237 116.93721253 3.2890625 122.828125 C-2.13255229 127.70521079 -6.63527639 129.25356657 -13.9934082 129.22705078 C-14.67688828 129.22734283 -15.36036835 129.22763489 -16.06455994 129.22793579 C-18.31009891 129.22654917 -20.55530067 129.21101987 -22.80078125 129.1953125 C-24.36305052 129.19157999 -25.92532215 129.18873414 -27.4875946 129.18673706 C-31.58935059 129.17911935 -35.6909638 129.15948696 -39.79266357 129.1373291 C-43.98219878 129.11683047 -48.17175717 129.10772677 -52.36132812 129.09765625 C-60.5742841 129.07623922 -68.78712426 129.04212588 -77 129 C-77.1027832 126.58129883 -77.1027832 126.58129883 -77 124 C-75.12760663 122.51898577 -73.20593921 121.69599749 -71.04296875 120.69921875 C-67.5240552 117.77239773 -66.28468444 113.2623938 -65.72554588 108.81890678 C-65.61984907 106.46007165 -65.60568993 104.11866274 -65.62768555 101.75756836 C-65.62220955 100.42668938 -65.62220955 100.42668938 -65.61662292 99.06892395 C-65.60856882 96.15903105 -65.62208361 93.24970403 -65.63671875 90.33984375 C-65.63723793 88.30538432 -65.636718 86.27092439 -65.63520813 84.23646545 C-65.63529762 79.9823554 -65.64568065 75.72843576 -65.66381836 71.47436523 C-65.68651897 66.03161365 -65.68704442 60.58913964 -65.68030071 55.14635372 C-65.67695373 50.94866993 -65.68360436 46.751049 -65.69342995 42.55337715 C-65.69726854 40.54679252 -65.69843574 38.54020088 -65.6968441 36.5336132 C-65.69647175 33.72661978 -65.7091407 30.91997758 -65.7253418 28.11303711 C-65.72286438 27.29050446 -65.72038696 26.4679718 -65.71783447 25.62051392 C-65.76764557 20.19167101 -66.02330844 14.67135746 -69.3671875 10.15234375 C-71.81568592 8.42433649 -74.40600925 7.77187643 -77.2578125 6.94140625 C-79 6 -79 6 -79.8046875 3.96484375 C-79.86914062 3.31644531 -79.93359375 2.66804687 -80 2 C-79 1 -79 1 -77.23675537 0.88647461 C-76.46736633 0.89171143 -75.69797729 0.89694824 -74.90527344 0.90234375 C-74.03215515 0.90564697 -73.15903687 0.9089502 -72.25946045 0.91235352 C-71.30243225 0.92065186 -70.34540405 0.9289502 -69.359375 0.9375 C-68.36738098 0.94128662 -67.37538696 0.94507324 -66.35333252 0.94897461 C-62.10545694 0.96524713 -57.85767737 0.99276591 -53.60986328 1.02050781 C-40.83817744 1.09680463 -28.13645905 0.94687894 -15.3828125 0.23095703 C-4.80652884 -0.36155305 -4.80652884 -0.36155305 0 0 Z " fill="#323234" transform="translate(99,864)"/>
<path d="M0 0 C0 21.78 0 43.56 0 66 C3.3 63.69 6.6 61.38 10 59 C16.95890951 54.85141933 25.60735272 54.68472018 33.40234375 56.5859375 C39.09777425 59.04455899 43.73955344 63.80931124 47 69 C49.66008711 75.87107074 50.46488825 82.36340481 50.58984375 89.6796875 C50.65272547 91.67969599 50.71588446 93.67969577 50.77929688 95.6796875 C50.86195387 98.79351229 50.93823058 101.90735628 51.00854492 105.02148438 C51.08189163 108.05409773 51.17846295 111.08531551 51.27734375 114.1171875 C51.291035 115.04949188 51.30472626 115.98179626 51.3188324 116.94235229 C51.45435663 122.12265398 51.45435663 122.12265398 53.91137695 126.56591797 C56.07710104 128.05293881 57.68513382 128.73702676 60.25 129.25 C62.10625 129.62125 62.10625 129.62125 64 130 C64 131.65 64 133.3 64 135 C52.78 135 41.56 135 30 135 C29.67 134.01 29.34 133.02 29 132 C29.42152344 131.60167969 29.84304688 131.20335937 30.27734375 130.79296875 C30.82519531 130.26316406 31.37304688 129.73335937 31.9375 129.1875 C32.48277344 128.66542969 33.02804687 128.14335938 33.58984375 127.60546875 C36.92957553 123.80317024 36.17931512 118.85179081 36.203125 114.08984375 C36.21167511 112.76672935 36.21167511 112.76672935 36.22039795 111.41688538 C36.22984726 109.54657183 36.23638166 107.67624165 36.24023438 105.8059082 C36.24988079 102.97251364 36.28087976 100.13986313 36.3125 97.30664062 C36.31903647 95.48437928 36.32428441 93.66211277 36.328125 91.83984375 C36.3404718 91.00404282 36.3528186 90.16824188 36.36553955 89.30711365 C36.33814001 81.90817946 35.26781023 74.77806753 30.5 68.9375 C25.09408029 64.74791222 18.53937409 65.46664679 12 66 C8.13015303 66.95229776 5.18735165 68.36472491 2.80674744 71.6434021 C-0.08696835 77.16249668 -0.57486191 81.80313 -0.49609375 87.9765625 C-0.49754898 88.90544281 -0.49900421 89.83432312 -0.50050354 90.79135132 C-0.4988527 92.74276893 -0.48738347 94.69420068 -0.46655273 96.64550781 C-0.43751354 99.62361098 -0.44597813 102.59993996 -0.45898438 105.578125 C-0.45274837 107.48177943 -0.4443585 109.38542829 -0.43359375 111.2890625 C-0.43652939 112.17357086 -0.43946503 113.05807922 -0.44248962 113.96939087 C-0.36562728 119.02692675 0.12718273 122.64957361 3 127 C5.42150807 128.20277195 5.42150807 128.20277195 8.125 128.625 C10.8203125 129.1640625 10.8203125 129.1640625 13 130 C13.8671875 132.0234375 13.8671875 132.0234375 14 134 C13 135 13 135 9.67358398 135.11352539 C8.19774444 135.11336629 6.72189931 135.10767314 5.24609375 135.09765625 C4.47064713 135.0962413 3.6952005 135.09482635 2.89625549 135.09336853 C0.40996506 135.08775345 -2.0762366 135.07519846 -4.5625 135.0625 C-6.24413933 135.05748694 -7.92578006 135.0529237 -9.60742188 135.04882812 C-13.73831566 135.03777913 -17.86914276 135.02050445 -22 135 C-22.33 133.68 -22.66 132.36 -23 131 C-21.50260417 129.89322917 -20.00520833 128.78645833 -18.5078125 127.6796875 C-14.17858657 122.85697468 -14.71406115 116.2919529 -14.74121094 110.21850586 C-14.7377063 109.25030411 -14.73420166 108.28210236 -14.73059082 107.28456116 C-14.72181161 104.09458173 -14.7276088 100.90482531 -14.734375 97.71484375 C-14.73302737 95.49337217 -14.73108601 93.27190087 -14.72857666 91.0504303 C-14.72563065 86.39939561 -14.72990669 81.74843784 -14.73925781 77.09741211 C-14.75065862 71.13652146 -14.74408551 65.17581079 -14.73211288 59.21492672 C-14.72488588 54.62958927 -14.72718598 50.0442945 -14.73236847 45.45895576 C-14.73370229 43.26092063 -14.73206662 41.06288161 -14.72740936 38.864851 C-14.72232968 35.79382942 -14.73007456 32.72309948 -14.74121094 29.65209961 C-14.73716248 28.74442841 -14.73311401 27.8367572 -14.72894287 26.90158081 C-14.6475394 19.9078201 -14.6475394 19.9078201 -18 14 C-20.32817964 13.63239269 -22.6618385 13.29758419 -25 13 C-25.33 11.35 -25.66 9.7 -26 8 C-24.90300781 7.60167969 -23.80601562 7.20335937 -22.67578125 6.79296875 C-21.22125618 6.25807888 -19.76683452 5.72290775 -18.3125 5.1875 C-17.59126953 4.92646484 -16.87003906 4.66542969 -16.12695312 4.39648438 C-12.92668037 3.21282185 -10.1680104 2.1093401 -7.29296875 0.23828125 C-5 -1 -5 -1 0 0 Z " fill="#323234" transform="translate(413,858)"/>
<path d="M0 0 C1.32 0 2.64 0 4 0 C5.57729855 6.30919421 4.32655023 11.09422331 1.6875 16.875 C-0.31186521 19.39271915 -1.95317615 20.0941875 -5 21 C-4.66742187 21.85851562 -4.33484375 22.71703125 -3.9921875 23.6015625 C-2.05199909 30.24708972 -2.75573657 38.04283244 -5.625 44.375 C-9.69256751 51.23630604 -14.81622102 55.81663883 -22.41796875 58.37890625 C-28.15976983 59.37448572 -33.93729006 59.0865365 -39.73876953 58.67749023 C-42.27851501 58.56039656 -44.50446551 58.50795919 -47 59 C-49.969937 62.18239151 -50.95454624 63.84092907 -51.125 68.1875 C-50.23708266 71.20648378 -50.23708266 71.20648378 -47.39990234 72.63671875 C-43.57500987 74.17041109 -40.58808065 74.47009834 -36.4765625 74.625 C-35.77155609 74.65803223 -35.06654968 74.69106445 -34.34017944 74.72509766 C-32.10212112 74.8295575 -29.8639465 74.91689711 -27.625 75 C-9.41673267 75.67905941 -9.41673267 75.67905941 -3 79 C1.70964002 84.29834502 1.61302799 89.70421443 1.37109375 96.625 C0.5865846 103.75990426 -1.9215879 107.37953164 -7.4375 111.875 C-13.16350307 116.15705447 -17.98055702 117.31938929 -25.08203125 117.37109375 C-25.85504074 117.38012222 -26.62805023 117.3891507 -27.42448425 117.39845276 C-29.05581819 117.41291791 -30.68720965 117.42183269 -32.31860352 117.42553711 C-34.79479468 117.43741507 -37.26847603 117.48661577 -39.74414062 117.53710938 C-54.08113058 117.68410381 -54.08113058 117.68410381 -59.65136719 113.34082031 C-63.6205239 109.39465654 -66.13498976 106.38550153 -66.25 100.75 C-66.15842167 95.54668603 -65.08459838 92.01511177 -61.2421875 88.30078125 C-59.53018886 86.81404559 -57.79402464 85.38606835 -56 84 C-56.474375 83.38125 -56.94875 82.7625 -57.4375 82.125 C-59.62264053 77.75471894 -60.37522353 73.88498555 -60 69 C-58.99514338 66.25948194 -57.78144052 63.85034819 -56.32421875 61.32421875 C-54.96889922 58.94541308 -53.96465166 56.55881779 -53 54 C-53.763125 53.175 -54.52625 52.35 -55.3125 51.5 C-61.93554333 43.33408863 -62.03261374 34.04542683 -61 24 C-58.86268831 16.13221493 -53.69239005 10.47587046 -47 6 C-39.65716161 2.26138345 -31.94109788 2.36506808 -24 4 C-20.41656913 5.21286658 -16.90843823 6.60569282 -13.46826172 8.17944336 C-10.15538019 9.6095693 -8.58369583 10.22437555 -5.14453125 8.90234375 C-3.03938415 7.0349364 -2.12311437 5.92237166 -1.1875 3.3125 C-0.795625 2.219375 -0.40375 1.12625 0 0 Z M-44.578125 13.875 C-49.606467 21.50420856 -49.75109632 29.16484711 -48.3125 38 C-47.20286761 43.00105154 -45.47310602 47.17866699 -42 51 C-37.28583237 53.79358082 -33.43897024 54.59334221 -28 54 C-23.31914021 52.25615027 -20.72202446 50.18025185 -18 46 C-14.35466091 36.76863769 -14.84733334 26.45923859 -18.67578125 17.3515625 C-21.16878854 12.92445221 -24.15505367 10.04903832 -28.94921875 8.28125 C-35.10621384 7.02323922 -40.54389271 9.08185273 -44.578125 13.875 Z M-53.4375 88.8125 C-56.73920567 93.43488794 -56.59622127 98.5317992 -56 104 C-54.154486 108.06013079 -52.72288612 109.58072605 -48.875 111.8125 C-38.70315055 115.42533448 -26.1530679 114.67519534 -16.375 110.1875 C-12.47276704 107.95645889 -10.00717924 105.01435847 -8 101 C-7.43639251 95.7037531 -7.43639251 95.7037531 -9.375 91.0625 C-12.77866627 88.8370259 -15.42199944 88.73126773 -19.4765625 88.46484375 C-21.44302734 88.33432617 -21.44302734 88.33432617 -23.44921875 88.20117188 C-24.1354834 88.15790771 -24.82174805 88.11464355 -25.52880859 88.07006836 C-27.59640757 87.93930826 -29.66342081 87.80128039 -31.73046875 87.66210938 C-43.11632329 86.00936844 -43.11632329 86.00936844 -53.4375 88.8125 Z " fill="#323234" transform="translate(684,909)"/>
<path d="M0 0 C13.2 0 26.4 0 40 0 C40.495 1.485 40.495 1.485 41 3 C39.08221901 5.23741116 37.80184183 6.07843761 35 7.1875 C30.97476322 9.61941389 30.11442077 12.62504798 29 17 C28.61322851 20.19212854 28.59885319 23.33691763 28.62768555 26.54956055 C28.62403488 27.4692865 28.62038422 28.38901245 28.61662292 29.33660889 C28.60856709 32.35350446 28.62208307 35.36985463 28.63671875 38.38671875 C28.63723782 40.49323018 28.63671831 42.5997421 28.63520813 44.70625305 C28.63529762 49.10998818 28.64568268 53.51353937 28.66381836 57.91723633 C28.68654648 63.55972057 28.68703953 69.20193729 28.68030071 74.84445477 C28.67695924 79.18960445 28.68359353 83.53469319 28.69342995 87.87983131 C28.69727599 89.96063735 28.69843263 92.04145016 28.6968441 94.12225914 C28.69647308 97.02784529 28.70910288 99.93308846 28.7253418 102.83862305 C28.72286438 103.69639847 28.72038696 104.55417389 28.71783447 105.4379425 C28.755492 109.66174158 28.80420706 113.25394784 31 117 C35.98451568 119.10595787 40.68053222 119.25262226 46 118.875 C47.10106079 118.80212769 47.10106079 118.80212769 48.22436523 118.7277832 C60.84387937 117.70113385 73.80656438 114.9110528 82.5 105.25 C83.67933892 103.84386513 84.85056325 102.43068191 86 101 C87.98 101.495 87.98 101.495 90 102 C89.55489803 111.61420251 86.67911887 117.77025264 79.87890625 124.5546875 C75.47702129 127.94075285 71.35565405 128.24637888 65.91479492 128.22705078 C65.22156128 128.22734283 64.52832764 128.22763489 63.81408691 128.22793579 C61.53608426 128.22654897 59.25841385 128.21101867 56.98046875 128.1953125 C55.3957792 128.19158006 53.81108734 128.18873418 52.22639465 128.18673706 C48.06545587 128.17911877 43.90465779 128.15948588 39.74377441 128.1373291 C35.49391584 128.11683172 31.24403443 128.10772703 26.99414062 128.09765625 C18.66269601 128.0762382 10.33136553 128.04212416 2 128 C2 126.35 2 124.7 2 123 C3.093125 122.443125 4.18625 121.88625 5.3125 121.3125 C9.30065002 119.03240615 11.24961838 116.550291 12.56153488 112.09153461 C13.31890324 108.47879079 13.15626421 104.79678465 13.16113281 101.11987305 C13.16609772 100.22345093 13.17106262 99.32702881 13.17617798 98.40344238 C13.19077613 95.43952668 13.19759769 92.47566449 13.203125 89.51171875 C13.20887836 87.4491221 13.21463607 85.38652546 13.22039795 83.32392883 C13.23090124 78.99890901 13.23674832 74.67390774 13.24023438 70.34887695 C13.24571781 64.81406147 13.26974557 59.27949215 13.29820633 53.74475384 C13.31685394 49.48359974 13.32203944 45.2225047 13.32357025 40.96131325 C13.32659248 38.92121853 13.33460646 36.88112475 13.34775543 34.84107018 C13.36486023 31.98329447 13.3629248 29.12611704 13.35644531 26.26831055 C13.3656601 25.43014297 13.37487488 24.5919754 13.3843689 23.72840881 C13.34243154 17.8068989 12.56603467 12.56603467 8.1875 8.1875 C5.54322668 6.75203734 2.88092252 5.85118165 0 5 C0 3.35 0 1.7 0 0 Z " fill="#323234" transform="translate(739,865)"/>
<path d="M0 0 C0.66 3.96 1.32 7.92 2 12 C3.134375 11.0925 4.26875 10.185 5.4375 9.25 C13.99984893 2.93302229 21.25489219 0.72018567 32 2 C39.21776112 3.74447399 43.90957926 7.90882999 48 14 C52.07048925 21.72195755 52.13038112 30.37582575 52.2109375 38.91796875 C52.23897621 40.60092168 52.26764041 42.28386429 52.296875 43.96679688 C52.33824788 46.58683299 52.3751915 49.20666952 52.40136719 51.8269043 C52.42898526 54.37848132 52.4748111 56.9292171 52.5234375 59.48046875 C52.52669037 60.2607695 52.52994324 61.04107025 52.53329468 61.84501648 C52.63557032 66.38011757 53.15546916 69.40765788 56 73 C58.20163893 74.11589216 58.20163893 74.11589216 60.625 74.625 C63.0390625 75.2265625 63.0390625 75.2265625 65 76 C65.33 76.99 65.66 77.98 66 79 C65.67 79.66 65.34 80.32 65 81 C53.78 81 42.56 81 31 81 C32.109358 75.45320998 33.20490782 74.79509218 37 71 C38.21536789 66.88750751 38.16103958 62.71619956 38.16796875 58.4609375 C38.17129715 57.73943512 38.17462555 57.01793274 38.17805481 56.27456665 C38.18310268 54.74994541 38.1854638 53.22531319 38.18530273 51.70068359 C38.18747343 49.40312732 38.20560774 47.10606423 38.22460938 44.80859375 C38.66808946 28.87017151 38.66808946 28.87017151 32 15 C27.98307571 12.02291781 25.02059299 11.59269972 20.0625 11.625 C18.28552734 11.61339844 18.28552734 11.61339844 16.47265625 11.6015625 C11.37649904 12.18627345 8.11838017 13.76071386 4.6875 17.5625 C2.4137083 20.84686578 1.87055814 22.52260137 1.82299805 26.4621582 C1.81016281 27.38684402 1.79732758 28.31152985 1.78410339 29.26423645 C1.77671646 30.26629623 1.76932953 31.26835602 1.76171875 32.30078125 C1.753647 33.3293071 1.74557526 34.35783295 1.73725891 35.41752625 C1.72341233 37.59726268 1.71269275 39.77702086 1.70483398 41.95678711 C1.68762311 45.28866727 1.64374165 48.61955486 1.59960938 51.95117188 C1.58948244 54.06770103 1.58096634 56.18423863 1.57421875 58.30078125 C1.55671066 59.29676834 1.53920258 60.29275543 1.52116394 61.31892395 C1.53495424 65.72220615 1.56405513 68.27831499 3.87915039 72.11083984 C6.2337547 74.20821848 7.66301834 74.81313532 10.75 75.3125 C11.54921875 75.45300781 12.3484375 75.59351563 13.171875 75.73828125 C14.07679688 75.86783203 14.07679688 75.86783203 15 76 C15 77.65 15 79.3 15 81 C3.12 81 -8.76 81 -21 81 C-20.67 79.35 -20.34 77.7 -20 76 C-18.67532254 75.3162955 -17.34136367 74.65035814 -16 74 C-14.25088262 70.48889754 -13.74520767 67.60272994 -13.7253418 63.70654297 C-13.71580978 62.6755246 -13.70627777 61.64450623 -13.69645691 60.58224487 C-13.69782402 58.92891647 -13.69782402 58.92891647 -13.69921875 57.2421875 C-13.69493362 56.10218292 -13.6906485 54.96217834 -13.68623352 53.78762817 C-13.68049839 51.3820258 -13.67998392 48.97640608 -13.68432617 46.57080078 C-13.68749439 42.88153787 -13.66398726 39.19307054 -13.63867188 35.50390625 C-13.63639972 33.16666768 -13.635695 30.82942695 -13.63671875 28.4921875 C-13.627509 27.3859201 -13.61829926 26.27965271 -13.60881042 25.13986206 C-13.61503922 24.11514801 -13.62126801 23.09043396 -13.62768555 22.03466797 C-13.62674141 20.68162064 -13.62674141 20.68162064 -13.6257782 19.30123901 C-13.82962437 16.95309631 -13.82962437 16.95309631 -15.2928009 15.228302 C-17.96639025 13.30469792 -20.78666857 13.30314447 -24 13 C-24.33 11.68 -24.66 10.36 -25 9 C-24.23816406 8.68546875 -23.47632812 8.3709375 -22.69140625 8.046875 C-21.65886719 7.61890625 -20.62632813 7.1909375 -19.5625 6.75 C-18.47066406 6.29753906 -17.37882812 5.84507812 -16.25390625 5.37890625 C-12.77260403 3.90363652 -9.34694637 2.3329118 -5.9375 0.69921875 C-4 0 -4 0 0 0 Z " fill="#323234" transform="translate(140,912)"/>
<path d="M0 0 C0.33 3.96 0.66 7.92 1 12 C2.505625 10.906875 4.01125 9.81375 5.5625 8.6875 C14.42466885 2.58162634 21.22046357 0.92579359 32 2 C38.11751024 3.49207567 42.01282453 7.63221416 46.23828125 12.09765625 C52.39647117 22.24296692 51.48103109 34.29991499 51.5625 45.75 C51.58642055 48.3860932 51.61468267 51.02186946 51.65428162 53.65777588 C51.67832551 55.28604053 51.69343732 56.91447164 51.69789124 58.54290771 C51.76403149 63.37863343 52.27351423 67.45809763 54 72 C57.68734758 74.45823172 60.69699971 75.01242616 65 76 C64.67 77.65 64.34 79.3 64 81 C53.11 81 42.22 81 31 81 C30.67 80.01 30.34 79.02 30 78 C31.1796875 76.24609375 31.1796875 76.24609375 32.875 74.4375 C37.18382372 69.77795807 37.17208779 66.43259753 37.203125 60.1875 C37.21167511 58.86226318 37.21167511 58.86226318 37.22039795 57.51025391 C37.22985872 55.63396402 37.23638619 53.75765744 37.24023438 51.88134766 C37.24986754 49.03908208 37.28084975 46.19756226 37.3125 43.35546875 C37.31903753 41.52865011 37.32428505 39.70182631 37.328125 37.875 C37.3404718 37.03606201 37.3528186 36.19712402 37.36553955 35.33276367 C37.33821224 27.92394491 36.27493187 20.78679154 31.5 14.9375 C25.90427508 10.60081318 18.7569882 11.34971463 12 12 C7.22625231 13.60323153 4.77624263 15.52492231 2.42578125 19.99145508 C0.51827027 24.59030622 0.5857553 28.99599246 0.63671875 33.9140625 C0.63622025 34.84672943 0.63572174 35.77939636 0.63520813 36.74032593 C0.63753824 38.70190575 0.64720359 40.66348916 0.66381836 42.625 C0.68748159 45.62266802 0.68436219 48.61944929 0.67773438 51.6171875 C0.68330964 53.52865112 0.69041856 55.44011101 0.69921875 57.3515625 C0.69830734 58.2443692 0.69739594 59.1371759 0.69645691 60.05703735 C0.75504544 66.26986579 0.75504544 66.26986579 3 72 C5.6860286 73.79068573 7.6626589 74.66055791 10.6875 75.625 C11.49574219 75.88539063 12.30398438 76.14578125 13.13671875 76.4140625 C14.05904297 76.70410156 14.05904297 76.70410156 15 77 C14.505 78.98 14.505 78.98 14 81 C2.45 81 -9.1 81 -21 81 C-21.33 79.68 -21.66 78.36 -22 77 C-20.50260417 75.89322917 -19.00520833 74.78645833 -17.5078125 73.6796875 C-12.98919883 68.64599869 -13.70835666 61.60087869 -13.734375 55.2734375 C-13.73246155 54.24819977 -13.7305481 53.22296204 -13.72857666 52.16665649 C-13.7272195 50.00660963 -13.7308831 47.84655449 -13.73925781 45.68652344 C-13.74998582 42.37937161 -13.73933516 39.07276026 -13.7265625 35.765625 C-13.72788375 33.6640613 -13.73044542 31.56249794 -13.734375 29.4609375 C-13.73032654 28.47233734 -13.72627808 27.48373718 -13.72210693 26.46517944 C-13.72841125 25.54387238 -13.73471558 24.62256531 -13.74121094 23.67333984 C-13.74280212 22.86536957 -13.74439331 22.05739929 -13.74603271 21.22494507 C-14.03126239 18.72611791 -14.65164112 17.1164128 -16 15 C-18.14560594 14.19752795 -18.14560594 14.19752795 -20.5625 13.9375 C-23.00390625 13.58984375 -23.00390625 13.58984375 -25 13 C-25.33 12.01 -25.66 11.02 -26 10 C-24.40552381 6.81104763 -21.60667598 6.66744304 -18.3125 5.5625 C-14.66149142 4.332646 -11.26493281 3.13987136 -7.85546875 1.33984375 C-5 0 -5 0 0 0 Z " fill="#323234" transform="translate(549,912)"/>
<path d="M0 0 C8.08519704 5.01963452 12.56338141 11.69707533 16.76171875 20.09375 C16.83167889 21.80077735 16.84612029 23.51043003 16.82421875 25.21875 C16.81519531 26.12882813 16.80617188 27.03890625 16.796875 27.9765625 C16.78527344 28.67523437 16.77367187 29.37390625 16.76171875 30.09375 C14.32204378 31.31358748 12.76267351 31.21426527 10.03662109 31.20727539 C9.05575531 31.20719986 8.07488953 31.20712433 7.06430054 31.20704651 C6.00280792 31.20188522 4.94131531 31.19672394 3.84765625 31.19140625 C2.76287994 31.1899913 1.67810364 31.18857635 0.56045532 31.18711853 C-2.91415125 31.18150802 -6.38869406 31.16895372 -9.86328125 31.15625 C-12.21484282 31.15123635 -14.5664054 31.14667321 -16.91796875 31.14257812 C-22.69142811 31.13153518 -28.46485013 31.11478679 -34.23828125 31.09375 C-33.80486158 33.62430062 -33.36061734 36.15216196 -32.91015625 38.6796875 C-32.7901123 39.38730225 -32.67006836 40.09491699 -32.54638672 40.82397461 C-30.90356531 49.92227532 -27.43778719 58.15888918 -20.046875 64.0078125 C-13.47006809 67.9567376 -6.72038639 68.02115379 0.76171875 67.09375 C5.03459531 65.49632138 8.81835106 63.36221487 12.76171875 61.09375 C14.41619054 60.39736985 16.07958536 59.7203675 17.76171875 59.09375 C17.88217307 61.98465376 17.84292076 63.46017996 16.76171875 66.09375 C9.95776629 73.34143849 0.64411427 78.56500173 -9.33984375 79.33203125 C-20.28712306 79.56262804 -28.34109188 77.80547526 -36.421875 70.1328125 C-45.04704838 60.4503598 -47.84421202 49.33323813 -47.5234375 36.5859375 C-46.4313681 23.21182737 -41.16865527 12.16442733 -31.23828125 3.09375 C-22.72002502 -3.36266683 -9.77015246 -4.57777208 0 0 Z M-27.92578125 8.78125 C-31.79431969 13.79787082 -33.31760195 18.82483502 -33.23828125 25.09375 C-28.73593752 25.14319705 -24.23375195 25.17949161 -19.73120117 25.20361328 C-18.19959764 25.21366935 -16.6680133 25.227316 -15.13647461 25.24462891 C-12.93468489 25.26889498 -10.73314906 25.28023688 -8.53125 25.2890625 C-7.50453438 25.30454636 -7.50453438 25.30454636 -6.45707703 25.32034302 C-2.80766464 25.32120382 -1.36679623 25.17942666 1.76171875 23.09375 C1.84923757 17.69258854 1.14538653 13.94171033 -2.36328125 9.71875 C-6.56048429 5.40996487 -10.25085626 3.45955714 -16.30078125 2.71875 C-21.36615715 3.36539373 -24.33396814 5.18943689 -27.92578125 8.78125 Z " fill="#323234" transform="translate(1008.23828125,915.90625)"/>
<path d="M0 0 C10.89 0 21.78 0 33 0 C33 1.32 33 2.64 33 4 C31.865625 4.391875 30.73125 4.78375 29.5625 5.1875 C25.85350666 6.5574153 25.85350666 6.5574153 25.18690491 9.3273468 C24.98230861 12.25297864 25.36910613 13.86613064 26.44702148 16.57495117 C26.7874498 17.44903122 27.12787811 18.32311127 27.47862244 19.22367859 C27.85563797 20.15404434 28.2326535 21.0844101 28.62109375 22.04296875 C28.99984146 23.00777664 29.37858917 23.97258453 29.76881409 24.96662903 C30.97974719 28.04513709 32.20786662 31.11641916 33.4375 34.1875 C34.66028206 37.27048455 35.87947671 40.35483939 37.09547424 43.44050598 C37.85311799 45.35990967 38.61532373 47.27751987 39.38243103 49.19316101 C39.72601151 50.05778458 40.06959198 50.92240814 40.42358398 51.81323242 C40.72860336 52.57536545 41.03362274 53.33749847 41.34788513 54.12272644 C42 56 42 56 42 58 C42.66 58 43.32 58 44 58 C44.57041016 56.17855469 44.57041016 56.17855469 45.15234375 54.3203125 C47.64816241 46.83139097 50.92447812 39.6550505 54.06054688 32.41796875 C58.98203733 21.13778448 58.98203733 21.13778448 60 9 C58.694761 6.38952199 57.64173426 6.31933577 54.9375 5.375 C53.83728516 4.98441406 53.83728516 4.98441406 52.71484375 4.5859375 C52.14894531 4.39257812 51.58304688 4.19921875 51 4 C51 2.68 51 1.36 51 0 C60.24 0 69.48 0 79 0 C79.495 1.98 79.495 1.98 80 4 C79.08476563 4.3609375 78.16953125 4.721875 77.2265625 5.09375 C73.42079526 7.3421936 72.12219226 9.61323756 70.375 13.5 C70.04854492 14.18795654 69.72208984 14.87591309 69.38574219 15.5847168 C68.23122459 18.04534196 67.11317827 20.52040216 66 23 C65.55881836 23.97662598 65.11763672 24.95325195 64.66308594 25.95947266 C60.48989058 35.22224544 56.40294862 44.52279691 52.32128906 53.82617188 C51.20971362 56.3593615 50.09577902 58.89149048 48.97949219 61.42260742 C47.9264347 63.81153531 46.87746763 66.20227134 45.83300781 68.5949707 C45.35959961 69.66835693 44.88619141 70.74174316 44.3984375 71.84765625 C43.77461182 73.2709021 43.77461182 73.2709021 43.13818359 74.72290039 C42 77 42 77 40 79 C38.02856445 78.92597961 38.02856445 78.92597961 36 78 C34.68041992 75.91618347 34.68041992 75.91618347 33.54296875 73.18432617 C33.12063965 72.18428558 32.69831055 71.184245 32.26318359 70.15390015 C31.84633301 69.1131131 31.42948242 68.07232605 31 67 C30.61279785 66.04163239 30.2255957 65.08326477 29.82666016 64.09585571 C28.6330934 61.08899291 27.46977796 58.0717859 26.3125 55.05078125 C25.44039525 52.79871538 24.5679905 50.54676567 23.6953125 48.29492188 C22.34254641 44.79420918 20.99234844 41.2925659 19.64746094 37.78881836 C18.33479433 34.37325985 17.01187435 30.9618141 15.6875 27.55078125 C15.09352417 25.99113396 15.09352417 25.99113396 14.48754883 24.39997864 C10.52897676 13.6438052 10.52897676 13.6438052 2.6875 5.75 C1.800625 5.1725 0.91375 4.595 0 4 C0 2.68 0 1.36 0 0 Z " fill="#323234" transform="translate(874,916)"/>
<path d="M0 0 C0.81210937 -0.01611328 1.62421875 -0.03222656 2.4609375 -0.04882812 C8.60600909 -0.05375206 14.36225027 0.69744369 19.33081055 4.6796875 C21.57857511 7.51557684 20.93020125 11.04441194 20.8125 14.5 C20.79219727 15.62438477 20.79219727 15.62438477 20.77148438 16.77148438 C20.73618539 18.61879767 20.68237917 20.46574066 20.625 22.3125 C16.91499757 21.76643904 15.71010254 20.51670742 13.5 17.5625 C8.93380621 12.1607899 3.83751276 8.96726471 -3.21484375 7.87109375 C-8.22390422 7.65808844 -12.64019398 7.99967337 -16.875 10.83984375 C-22.89862942 16.75366742 -24.49402779 24.13269086 -24.66748047 32.21777344 C-24.76078604 44.60238097 -23.4443171 55.0683527 -14.375 64.3125 C-8.94899195 68.77862456 -1.74460791 70.6298089 5.20703125 70.125 C12.2765024 68.9087469 18.12536585 66.12704366 23.9375 62 C24.824375 61.443125 25.71125 60.88625 26.625 60.3125 C28.11 60.8075 28.11 60.8075 29.625 61.3125 C26.78771849 69.41701204 20.86957826 73.93857634 13.375 77.75 C4.36519748 82.03315741 -5.54720236 82.728569 -15.33203125 80.69921875 C-24.17483572 77.53809022 -30.47456561 71.62022638 -34.8125 63.375 C-40.60372458 50.55730349 -40.99851629 37.66521505 -36.375 24.3125 C-31.42192204 13.0363438 -23.99737036 5.94427204 -12.6484375 1.1640625 C-8.37743537 0.05299035 -4.39452173 -0.01727406 0 0 Z " fill="#323234" transform="translate(352.375,913.6875)"/>
<path d="M0 0 C1.90262709 3.61749492 2.2482955 6.63630878 2.1875 10.6875 C2.18105469 11.64011719 2.17460938 12.59273437 2.16796875 13.57421875 C2 16 2 16 1 18 C0.01 18 -0.98 18 -2 18 C-2.21914062 17.48050781 -2.43828125 16.96101562 -2.6640625 16.42578125 C-5.46966951 10.25572682 -8.44967454 7.05545158 -14.375 3.625 C-19.0622731 2.50898259 -23.45441436 3.48480479 -28 5 C-29.57828355 9.23266951 -30.32516977 11.67222342 -29.25 16.0625 C-24.59358891 22.14170337 -17.95938503 25.56325465 -11.23999023 28.98388672 C1.407656 35.44192912 1.407656 35.44192912 4 41 C6.61552218 49.41983168 6.78445464 57.54281267 2.734375 65.48046875 C-0.82544492 71.22302035 -4.56640211 74.43927369 -10.75 77.25 C-20.71037062 79.54854707 -28.81211841 76.94278404 -38 73 C-38.99 72.34 -39.98 71.68 -41 71 C-41.34057617 68.66162109 -41.34057617 68.66162109 -41.29296875 65.7734375 C-41.28330078 64.7421875 -41.27363281 63.7109375 -41.26367188 62.6484375 C-41.23853516 61.56820312 -41.21339844 60.48796875 -41.1875 59.375 C-41.17396484 58.28703125 -41.16042969 57.1990625 -41.14648438 56.078125 C-41.11104754 53.38492591 -41.06164331 50.69270626 -41 48 C-39.68 48 -38.36 48 -37 48 C-36.54560547 49.53720703 -36.54560547 49.53720703 -36.08203125 51.10546875 C-35.65967319 52.46640028 -35.23644997 53.82706353 -34.8125 55.1875 C-34.61591797 55.86103516 -34.41933594 56.53457031 -34.21679688 57.22851562 C-32.29061345 63.30340181 -29.31356116 66.69043708 -23.6875 69.875 C-19.01148022 71.30158231 -16.74751117 71.14859141 -12 70 C-8.0598695 67.6016597 -6.14557803 65.47816866 -5 61 C-4.50960576 57.6898389 -4.24794863 55.25898298 -6.01196289 52.3059082 C-10.88962014 46.40110679 -16.79033693 43.59759635 -23.56835938 40.27148438 C-30.62378561 36.63977972 -35.95569648 32.26637257 -39.4375 25 C-40.70945754 18.21622645 -40.61520377 12.01733251 -37 6 C-27.88528442 -4.24147954 -12.12553727 -6.89491335 0 0 Z " fill="#323234" transform="translate(1080,917)"/>
<path d="M0 0 C0.99 0.66 1.98 1.32 3 2 C3.51171875 4.6015625 3.51171875 4.6015625 3.6875 7.625 C3.78611328 9.12933594 3.78611328 9.12933594 3.88671875 10.6640625 C3.92410156 11.43492187 3.96148437 12.20578125 4 13 C4.93972656 12.04287109 4.93972656 12.04287109 5.8984375 11.06640625 C7.12433594 9.82697266 7.12433594 9.82697266 8.375 8.5625 C9.59316406 7.32693359 9.59316406 7.32693359 10.8359375 6.06640625 C14.36987426 2.69194317 16.94986117 2.66895049 21.671875 2.70703125 C25.18934382 3.14966575 27.34317023 4.74169469 30 7 C31.44430855 9.88861709 31.37688506 11.79647701 31 15 C28.5 17.875 28.5 17.875 26 20 C20.30845771 18.18905473 20.30845771 18.18905473 18.0625 16.8125 C14.74145544 15.50420972 12.39199621 16.09142959 9 17 C4.68005788 21.08643173 3.15607721 25.70778264 2.75708008 31.56762695 C2.76118896 32.86144287 2.76529785 34.15525879 2.76953125 35.48828125 C2.76998947 36.19091599 2.77044769 36.89355072 2.7709198 37.61747742 C2.77392621 39.0974599 2.78176389 40.57743967 2.79418945 42.05737305 C2.81236219 44.29552735 2.81469927 46.53326416 2.81445312 48.77148438 C2.14960186 61.43245311 2.14960186 61.43245311 6 72.875 C9.78778513 75.55801447 13.54713126 76.80674759 18 78 C17.505 79.98 17.505 79.98 17 82 C5.12 82 -6.76 82 -19 82 C-18.67 80.35 -18.34 78.7 -18 77 C-17.360625 76.690625 -16.72125 76.38125 -16.0625 76.0625 C-13.78284971 75.15140807 -13.78284971 75.15140807 -12.88549805 72.66308594 C-11.64367806 67.52598444 -11.73443884 62.59439583 -11.76953125 57.328125 C-11.76998947 56.20935974 -11.77044769 55.09059448 -11.7709198 53.93792725 C-11.77393327 51.58116592 -11.78179239 49.22440643 -11.79418945 46.86767578 C-11.8125053 43.24895225 -11.8146986 39.63048391 -11.81445312 36.01171875 C-11.8193664 33.72135194 -11.82519389 31.43098687 -11.83203125 29.140625 C-11.83314407 28.05420715 -11.8342569 26.96778931 -11.83540344 25.84844971 C-11.84178329 24.84690857 -11.84816315 23.84536743 -11.85473633 22.81347656 C-11.85854813 21.93000549 -11.86235992 21.04653442 -11.86628723 20.1362915 C-11.86373939 17.94713261 -11.86373939 17.94713261 -13 16 C-15.11846285 15.31270746 -15.11846285 15.31270746 -17.5625 14.875 C-18.80193359 14.62363281 -18.80193359 14.62363281 -20.06640625 14.3671875 C-20.70449219 14.24601563 -21.34257812 14.12484375 -22 14 C-22.33 12.68 -22.66 11.36 -23 10 C-22.030625 9.5875 -21.06125 9.175 -20.0625 8.75 C-17.19774129 7.52307304 -14.34621727 6.26932503 -11.5 5 C-10.74460938 4.66742187 -9.98921875 4.33484375 -9.2109375 3.9921875 C-7.78881067 3.35398924 -6.37612424 2.69408409 -4.9765625 2.0078125 C-3.125 1.125 -3.125 1.125 0 0 Z " fill="#323234" transform="translate(232,911)"/>
<path d="M0 0 C0.99 0.66 1.98 1.32 3 2 C3.34057617 4.66105652 3.34057617 4.66105652 3.29296875 8.08276367 C3.28305908 9.36136765 3.27314941 10.63997162 3.26293945 11.95732117 C3.25058258 12.64303381 3.23822571 13.32874645 3.22549438 14.03523827 C3.1872157 16.18392747 3.16765977 18.33206109 3.15307617 20.48103333 C3.11294008 25.8224437 3.04063029 31.16333185 2.96887207 36.50439453 C2.90949099 41.01020199 2.86263074 45.51580719 2.83218384 50.0219059 C2.8128395 52.13095396 2.77530572 54.23916889 2.73706055 56.34794617 C2.57596337 65.61827059 2.57596337 65.61827059 6 74 C8.66167317 75.46717221 8.66167317 75.46717221 11.6875 75.9375 C13.17830078 76.26041016 13.17830078 76.26041016 14.69921875 76.58984375 C15.45847656 76.72519531 16.21773437 76.86054687 17 77 C16.67 78.65 16.34 80.3 16 82 C4.12 82 -7.76 82 -20 82 C-19 77 -19 77 -16.5625 75.0625 C-13.32295012 72.45505742 -12.98437527 71.03403046 -12 67 C-11.72155709 63.59163526 -11.7195667 60.19953647 -11.734375 56.78125 C-11.73246155 55.80514771 -11.7305481 54.82904541 -11.72857666 53.82336426 C-11.72721963 51.76586651 -11.73088228 49.70836006 -11.73925781 47.65087891 C-11.74996405 44.51054561 -11.739346 41.37078435 -11.7265625 38.23046875 C-11.72788418 36.22656124 -11.73044675 34.22265409 -11.734375 32.21875 C-11.73032654 31.28421997 -11.72627808 30.34968994 -11.72210693 29.38684082 C-11.7565505 24.57288502 -11.94407099 20.45735459 -14 16 C-16.14364195 14.85585408 -16.14364195 14.85585408 -18.625 14.625 C-19.44226563 14.49351562 -20.25953125 14.36203125 -21.1015625 14.2265625 C-21.72804688 14.15179687 -22.35453125 14.07703125 -23 14 C-22.875 11.66015625 -22.875 11.66015625 -22 9 C-19.375 7.55859375 -19.375 7.55859375 -16 6.4375 C-11.0707058 4.73662266 -6.44510708 2.87664909 -1.8046875 0.50390625 C-0.91136719 0.25447266 -0.91136719 0.25447266 0 0 Z " fill="#323234" transform="translate(855,911)"/>
<path d="M0 0 C0.99 0.66 1.98 1.32 3 2 C3.34057617 4.70574951 3.34057617 4.70574951 3.29296875 8.19042969 C3.28305908 9.4922821 3.27314941 10.79413452 3.26293945 12.13543701 C3.25058258 12.83357262 3.23822571 13.53170822 3.22549438 14.25099945 C3.18723147 16.43721796 3.16766434 18.62289085 3.15307617 20.80938721 C3.11293235 26.24304215 3.04055168 31.67618292 2.96887207 37.10949707 C2.90955548 41.69450241 2.86267196 46.27931072 2.83218384 50.86460114 C2.81280539 53.01301808 2.775274 55.16062462 2.73706055 57.30877686 C2.72715088 58.62323792 2.71724121 59.93769897 2.70703125 61.29199219 C2.6913208 62.44511902 2.67561035 63.59824585 2.65942383 64.78631592 C3.04999247 68.47173 4.06113464 70.85705437 6 74 C8.42150807 75.20277195 8.42150807 75.20277195 11.125 75.625 C13.8203125 76.1640625 13.8203125 76.1640625 16 77 C16.8671875 79.0234375 16.8671875 79.0234375 17 81 C16 82 16 82 12.58178711 82.11352539 C11.06363012 82.11336628 9.54546771 82.10767226 8.02734375 82.09765625 C7.22970108 82.0962413 6.43205841 82.09482635 5.61024475 82.09336853 C3.05262565 82.08775316 0.49509282 82.07519812 -2.0625 82.0625 C-3.79231645 82.05748698 -5.52213426 82.05292373 -7.25195312 82.04882812 C-11.50133553 82.03777875 -15.75065312 82.02050386 -20 82 C-19.3046875 77.234375 -19.3046875 77.234375 -16.5625 75.125 C-13.34656023 72.45812312 -12.70777368 69.97048294 -12 66 C-11.7322314 62.71549125 -11.71926299 59.45036804 -11.734375 56.15625 C-11.73246155 55.22832642 -11.7305481 54.30040283 -11.72857666 53.34436035 C-11.72722149 51.39119189 -11.73087104 49.43801421 -11.73925781 47.48486328 C-11.74996677 44.50923269 -11.73933969 41.53420575 -11.7265625 38.55859375 C-11.72788421 36.65364451 -11.73044685 34.74869565 -11.734375 32.84375 C-11.73032654 31.96126587 -11.72627808 31.07878174 -11.72210693 30.16955566 C-11.7605287 25.06375731 -12.35042404 20.83897456 -14 16 C-18.455 15.01 -18.455 15.01 -23 14 C-22.875 11.66015625 -22.875 11.66015625 -22 9 C-19.375 7.55859375 -19.375 7.55859375 -16 6.4375 C-11.0707058 4.73662266 -6.44510708 2.87664909 -1.8046875 0.50390625 C-0.91136719 0.25447266 -0.91136719 0.25447266 0 0 Z " fill="#323234" transform="translate(504,911)"/>
<path d="M0 0 C1.48168945 1.11174011 1.48168945 1.11174011 3 3 C3.34057617 5.78804016 3.34057617 5.78804016 3.29296875 9.2121582 C3.28305908 10.49391434 3.27314941 11.77567047 3.26293945 13.0962677 C3.25058258 13.78110544 3.23822571 14.46594318 3.22549438 15.17153358 C3.18715656 17.32002817 3.16764574 19.46796613 3.15307617 21.616745 C3.11298162 26.95523721 3.04053068 32.29320258 2.96887207 37.63134766 C2.90954876 42.1394424 2.86267269 46.64733691 2.83218384 51.15572166 C2.81281478 53.26647758 2.77528762 55.37640662 2.73706055 57.4868927 C2.72715088 58.77810532 2.71724121 60.06931793 2.70703125 61.3996582 C2.6913208 62.53200394 2.67561035 63.66434967 2.65942383 64.83100891 C3.05283942 68.49165989 4.0773857 70.87548253 6 74 C8.42150807 75.20277195 8.42150807 75.20277195 11.125 75.625 C13.8203125 76.1640625 13.8203125 76.1640625 16 77 C16.8671875 79.0234375 16.8671875 79.0234375 17 81 C16 82 16 82 12.58178711 82.11352539 C11.06363012 82.11336628 9.54546771 82.10767226 8.02734375 82.09765625 C7.22970108 82.0962413 6.43205841 82.09482635 5.61024475 82.09336853 C3.05262565 82.08775316 0.49509282 82.07519812 -2.0625 82.0625 C-3.79231645 82.05748698 -5.52213426 82.05292373 -7.25195312 82.04882812 C-11.50133553 82.03777875 -15.75065312 82.02050386 -20 82 C-19.26974417 77.06872184 -17.50472739 75.50472739 -14 72 C-11.66205389 66.78454335 -11.70882072 61.85680895 -11.734375 56.25390625 C-11.73150482 54.85989845 -11.73150482 54.85989845 -11.72857666 53.43772888 C-11.7272199 51.47858407 -11.73088065 49.51943011 -11.73925781 47.56030273 C-11.74995234 44.57580168 -11.73935138 41.59190418 -11.7265625 38.60742188 C-11.72788442 36.69791535 -11.73044749 34.7884092 -11.734375 32.87890625 C-11.73032654 31.99328506 -11.72627808 31.10766388 -11.72210693 30.19520569 C-11.76044927 25.08033233 -12.3463479 20.84723691 -14 16 C-14.63808594 15.89042969 -15.27617187 15.78085937 -15.93359375 15.66796875 C-16.75988281 15.50941406 -17.58617187 15.35085938 -18.4375 15.1875 C-19.26121094 15.03667969 -20.08492188 14.88585937 -20.93359375 14.73046875 C-21.61550781 14.48941406 -22.29742187 14.24835937 -23 14 C-23.33 13.01 -23.66 12.02 -24 11 C-21.06765686 8.58713956 -18.40304151 7.26970948 -14.8125 6.0625 C-9.74160505 4.29722877 -4.86827492 2.2598412 0 0 Z " fill="#323234" transform="translate(291,911)"/>
<path d="M0 0 C0.66 0.33 1.32 0.66 2 1 C1.01 2.485 1.01 2.485 0 4 C-0.69920885 8.79689791 -0.71482085 12.77459282 1.75 17 C3.81035701 18.83142845 5.53625144 19.84058891 8 21 C7.67948539 28.21157864 6.25844714 32.74155286 1 38 C-1.375 38.4375 -1.375 38.4375 -4 38 C-8.49349229 33.50650771 -9.15665643 29.59742228 -9.3125 23.4375 C-9.22233878 14.2072453 -6.44060002 6.61950558 0 0 Z " fill="#3A3A3C" transform="translate(568,389)"/>
<path d="M0 0 C-0.1409349 2.43787385 -0.28754542 4.87517853 -0.4375 7.3125 C-0.47681641 8.00279297 -0.51613281 8.69308594 -0.55664062 9.40429688 C-0.74927415 12.47161535 -1.02322717 15.06968152 -2 18 C-4.67270759 18.88498291 -7.20205294 19.57988557 -9.9375 20.1875 C-11.0502832 20.45336914 -11.0502832 20.45336914 -12.18554688 20.72460938 C-17.61703668 22 -17.61703668 22 -20 22 C-19.85805236 19.93722893 -19.71127784 17.87478969 -19.5625 15.8125 C-19.48128906 14.66394531 -19.40007812 13.51539063 -19.31640625 12.33203125 C-19.04596188 9.48401829 -18.62478253 6.78789518 -18 4 C-15.5636811 3.32873871 -13.12611117 2.66283646 -10.6875 2 C-9.65206055 1.71382813 -9.65206055 1.71382813 -8.59570312 1.421875 C-5.64212051 0.62283816 -3.07440781 0 0 0 Z " fill="#F7F7F7" transform="translate(449,388)"/>
<path d="M0 0 C1.11375 0.3403125 1.11375 0.3403125 2.25 0.6875 C2.25 2.3375 2.25 3.9875 2.25 5.6875 C4.56 5.6875 6.87 5.6875 9.25 5.6875 C7.5970817 12.29917322 3.92293388 17.90554408 -1.75 21.6875 C-4.51020996 22.05917184 -6.93852476 21.86600636 -9.75 21.6875 C-11.75 19.6875 -11.75 19.6875 -12.1875 16.6875 C-12.04666298 11.53069821 -9.5576847 6.91380434 -6.75 2.6875 C-3.36928758 -0.38287359 -3.36928758 -0.38287359 0 0 Z " fill="#3B3B3D" transform="translate(714.75,358.3125)"/>
<path d="M0 0 C0.08103404 2.91722548 0.14051081 5.83219516 0.1875 8.75 C0.21263672 9.575 0.23777344 10.4 0.26367188 11.25 C0.30690413 14.82386665 0.32666452 17.33251212 -1.26171875 20.578125 C-3 22 -3 22 -7 22 C-7.12375 20.88625 -7.2475 19.7725 -7.375 18.625 C-7.6465813 14.96896323 -7.6465813 14.96896323 -10 13 C-12.06666487 13.05160705 -12.06666487 13.05160705 -14 14 C-16.69217063 19.58376131 -17.58730423 24.85225618 -18 31 C-18.33 31 -18.66 31 -19 31 C-19.52473035 27.00070381 -19.82162239 23.02950449 -20 19 C-20.06058594 17.93652344 -20.12117187 16.87304688 -20.18359375 15.77734375 C-20.04395676 12.21434841 -19.76509042 10.12147033 -18 7 C-13.30268275 3.54951018 -5.85753361 0 0 0 Z " fill="#3D3D3E" transform="translate(607,398)"/>
<path d="M0 0 C3.46743174 0.0912482 4.74723773 0.7542589 7.25 3.1875 C9.23490873 6.37753189 10 8.23700375 10 12 C8.00773389 15.69992277 6.50497559 17.66334961 3 20 C-0.5013183 19.91022261 -1.75031189 19.23619145 -4.3125 16.8125 C-6.34166959 13.43055069 -6.63371472 11.88150266 -6 8 C-4.2344231 4.9396667 -2.49412245 2.49412245 0 0 Z " fill="#323234" transform="translate(498,876)"/>
<path d="M0 0 C3.46743174 0.0912482 4.74723773 0.7542589 7.25 3.1875 C9.23490873 6.37753189 10 8.23700375 10 12 C8.00773389 15.69992277 6.50497559 17.66334961 3 20 C-0.5013183 19.91022261 -1.75031189 19.23619145 -4.3125 16.8125 C-6.34166959 13.43055069 -6.63371472 11.88150266 -6 8 C-4.2344231 4.9396667 -2.49412245 2.49412245 0 0 Z " fill="#333335" transform="translate(285,876)"/>
<path d="M0 0 C3.40502926 0.28375244 4.76257746 0.76917253 7.25 3.1875 C9.23490873 6.37753189 10 8.23700375 10 12 C8.00773389 15.69992277 6.50497559 17.66334961 3 20 C0.5625 20 0.5625 20 -2 19 C-4.947969 15.74171847 -5.98354746 13.92134244 -6.0625 9.5 C-4.76040423 5.21074333 -3.06418774 3.22132558 0 0 Z " fill="#323234" transform="translate(849,876)"/>
<path d="M0 0 C0.33 0 0.66 0 1 0 C0.95827339 9.84747892 -2.32207968 18.03577219 -6 27 C-6.33 27 -6.66 27 -7 27 C-6.22418488 17.84538164 -5.34152449 7.71236156 0 0 Z " fill="#525254" transform="translate(658,325)"/>
<path d="M0 0 C0.33 0 0.66 0 1 0 C0.62983489 11.34556075 -1.47166903 21.96942116 -4 33 C-4.33 33 -4.66 33 -5 33 C-4.0512091 8.10241821 -4.0512091 8.10241821 0 0 Z " fill="#59595B" transform="translate(525,372)"/>
<path d="M0 0 C0.6875 1.75 0.6875 1.75 1 4 C-0.3125 6.25 -0.3125 6.25 -2 8 C-2.66 8 -3.32 8 -4 8 C-4 6.68 -4 5.36 -4 4 C-8.455 5.485 -8.455 5.485 -13 7 C-9.10548524 1.71458711 -6.6563694 -0.3697983 0 0 Z " fill="#3E3E40" transform="translate(660,374)"/>
<path d="M0 0 C0.66 0.33 1.32 0.66 2 1 C1.01 2.485 1.01 2.485 0 4 C-0.39387788 6.32387947 -0.73486085 8.65793749 -1 11 C-1.33 11 -1.66 11 -2 11 C-2.59732819 8.23735711 -3 5.83967231 -3 3 C-1.5 1.3125 -1.5 1.3125 0 0 Z " fill="#636364" transform="translate(568,389)"/>
</svg>
