<?xml version="1.0" encoding="UTF-8"?>
<svg version="1.1" xmlns="http://www.w3.org/2000/svg" width="448" height="98">
<path d="M0 0 C9.23022219 7.21527802 14.79048165 17.55747901 17.43359375 28.90234375 C18.9327982 42.92667432 16.94885226 55.23548067 8.26171875 66.66015625 C7.35679687 67.77003906 7.35679687 67.77003906 6.43359375 68.90234375 C5.68335938 69.85753906 5.68335938 69.85753906 4.91796875 70.83203125 C-1.76139082 78.42221257 -12.80066871 83.44070202 -22.72265625 84.75390625 C-37.99502737 85.55109046 -50.00627978 82.02195602 -61.56640625 71.90234375 C-71.38673904 61.78554808 -75.03185671 49.70468713 -75.56640625 35.90234375 C-74.7583393 21.80240002 -68.96340277 10.77951462 -58.81640625 1.15234375 C-41.74981894 -13.10288712 -17.82921688 -12.2397962 0 0 Z M-44.1328125 22.91015625 C-48.41682869 29.52536074 -49.15919211 35.08635243 -48.56640625 42.90234375 C-46.52583186 49.70425837 -42.56557923 54.83624681 -36.75390625 58.83984375 C-31.00121524 60.75740742 -25.89294283 60.79204609 -20.31640625 58.27734375 C-14.51561307 54.97907964 -11.1485906 50.21936642 -9.0703125 43.97265625 C-7.50942189 37.55969485 -8.38894509 31.67751876 -11.56640625 25.90234375 C-14.95458994 21.16725247 -17.87820888 17.65059032 -23.56640625 15.90234375 C-31.98002241 14.7075851 -38.75133552 16.01220321 -44.1328125 22.91015625 Z " fill="#000000" transform="translate(141.56640625,9.09765625)"/>
<path d="M0 0 C8.25 0 16.5 0 25 0 C25 10.23 25 20.46 25 31 C32.92 31 40.84 31 49 31 C49 20.77 49 10.54 49 0 C57.25 0 65.5 0 74 0 C74 29.7 74 59.4 74 90 C65.75 90 57.5 90 49 90 C49 78.78 49 67.56 49 56 C41.08 56 33.16 56 25 56 C25 67.22 25 78.44 25 90 C16.75 90 8.5 90 0 90 C0 60.3 0 30.6 0 0 Z " fill="#000000" transform="translate(162,3)"/>
<path d="M0 0 C8.25 0 16.5 0 25 0 C25.33 7.59 25.66 15.18 26 23 C35.55071911 12.80104649 35.55071911 12.80104649 44.828125 2.35546875 C45.52660362 1.54756181 46.24482254 0.75517746 47 0 C49.3756852 -0.0883967 51.72208674 -0.11530305 54.09765625 -0.09765625 C55.16094398 -0.09553383 55.16094398 -0.09553383 56.24571228 -0.09336853 C58.51801712 -0.08775443 60.79022475 -0.07519963 63.0625 -0.0625 C64.59960796 -0.05748681 66.13671745 -0.05292359 67.67382812 -0.04882812 C71.44925642 -0.03778042 75.22461171 -0.02050641 79 0 C77.41349427 3.2997416 75.60383018 5.86909808 73.25 8.6875 C72.05310547 10.12996094 72.05310547 10.12996094 70.83203125 11.6015625 C70.16228271 12.4044873 70.16228271 12.4044873 69.47900391 13.22363281 C66.61868079 16.65904235 63.77963396 20.11204167 60.9375 23.5625 C60.33631348 24.29162598 59.73512695 25.02075195 59.11572266 25.77197266 C54.69294257 31.14154005 50.31631648 36.54428321 46 42 C48.61388084 46.09727316 51.34696655 49.63179531 54.6875 53.1875 C58.91020687 57.7569394 62.87252797 62.46717313 66.77734375 67.30859375 C68.98918047 69.98689867 71.28255021 72.56059219 73.625 75.125 C85 87.61950791 85 87.61950791 85 90 C53.17752022 92.59878698 53.17752022 92.59878698 46.1640625 87.046875 C43.30447634 84.01332769 41.14648528 80.62354367 39.14111328 76.97998047 C37.38064997 73.92534686 35.16942038 71.42502845 32.875 68.75 C31.85019531 67.47382813 31.85019531 67.47382813 30.8046875 66.171875 C28.88088135 63.78893459 28.88088135 63.78893459 26 61 C25.67 70.57 25.34 80.14 25 90 C16.75 90 8.5 90 0 90 C0 60.3 0 30.6 0 0 Z " fill="#000000" transform="translate(1,3)"/>
<path d="M0 0 C44.90238612 0 44.90238612 0 54 9 C59.36188916 15.54150477 62.32276432 21.72832937 61.9375 30.3125 C60.87984044 39.17495766 56.9065954 45.70407449 50.55078125 51.8203125 C49 53 49 53 47 53 C50.69572922 59.10651947 54.61014064 64.9399748 59 70.5625 C62.10242809 74.5408037 65.1792034 78.52831525 68.125 82.625 C68.68445313 83.40101562 69.24390625 84.17703125 69.8203125 84.9765625 C71 87 71 87 71 90 C48.67086696 93.34495902 48.67086696 93.34495902 41.16699219 87.97119141 C35.25961726 81.8515963 30.79272235 74.5854447 27 67 C26.67 74.59 26.34 82.18 26 90 C17.42 90 8.84 90 0 90 C0 60.3 0 30.6 0 0 Z M26 21 C26 26.61 26 32.22 26 38 C32.13880639 37.7699047 32.13880639 37.7699047 37.5625 35.3125 C39.49217275 32.20824383 39.66048916 30.59599652 39 27 C37.10614087 24.02208359 37.10614087 24.02208359 34 22 C31.36 21.67 28.72 21.34 26 21 Z " fill="#000000" transform="translate(353,3)"/>
<path d="M0 0 C16.83 0 33.66 0 51 0 C51 6.93 51 13.86 51 21 C42.75 21 34.5 21 26 21 C26 25.29 26 29.58 26 34 C34.25 34 42.5 34 51 34 C51 40.93 51 47.86 51 55 C42.75 55 34.5 55 26 55 C26 59.29 26 63.58 26 68 C34.25 68 42.5 68 51 68 C51 75.26 51 82.52 51 90 C34.17 90 17.34 90 0 90 C0 60.3 0 30.6 0 0 Z " fill="#000000" transform="translate(298,3)"/>
<path d="M0 0 C8.58 0 17.16 0 26 0 C26 21.78 26 43.56 26 66 C34.91 66 43.82 66 53 66 C53 73.92 53 81.84 53 90 C35.51 90 18.02 90 0 90 C0 60.3 0 30.6 0 0 Z " fill="#000000" transform="translate(241,3)"/>
<path d="M0 0 C3.14249107 2.02952548 4.63745366 3.46955631 5.51171875 7.16015625 C5.75802839 10.43881119 5.73398271 12.91530883 3.85546875 15.69140625 C1.43005003 17.93763837 -0.79056388 18.95636748 -4 19.625 C-8.16792934 18.75668139 -10.11123215 17.09030979 -13 14 C-14.38666474 10.16627983 -14.21605148 8.56173386 -12.75 4.75 C-9.55674481 -0.26797245 -5.62372858 -1.02846398 0 0 Z M-7 3 C-7 3.33 -7 3.66 -7 4 C-5.02 4 -3.04 4 -1 4 C-1 3.67 -1 3.34 -1 3 C-2.98 3 -4.96 3 -7 3 Z M-9 4 C-10.57035335 6.49409061 -11.0274945 7.70443416 -10.75 10.6875 C-10.37875 11.8321875 -10.37875 11.8321875 -10 13 C-9.34 13.33 -8.68 13.66 -8 14 C-8 10.7 -8 7.4 -8 4 C-8.33 4 -8.66 4 -9 4 Z M0 5 C-0.67673447 8.40320934 -0.67673447 8.40320934 -1 12 C-0.34 12.66 0.32 13.32 1 14 C3.30075262 11.23254916 3.30075262 11.23254916 2.75 8.375 C2.5025 7.59125 2.255 6.8075 2 6 C1.34 5.67 0.68 5.34 0 5 Z M-5 6 C-5 6.66 -5 7.32 -5 8 C-4.34 7.67 -3.68 7.34 -3 7 C-3.66 6.67 -4.32 6.34 -5 6 Z M-5 11 C-5 11.99 -5 12.98 -5 14 C-5.99 14.33 -6.98 14.66 -8 15 C-5.09926819 15.67801034 -5.09926819 15.67801034 -2 16 C-1.34 15.34 -0.68 14.68 0 14 C-0.99 14 -1.98 14 -3 14 C-3.33 13.01 -3.66 12.02 -4 11 C-4.33 11 -4.66 11 -5 11 Z " fill="#000000" transform="translate(443,79)"/>
</svg>
