<?xml version="1.0" encoding="UTF-8"?>
<svg version="1.1" xmlns="http://www.w3.org/2000/svg" width="1042" height="1019">
<path d="M0 0 C1.89362309 5.51883929 -0.3307767 11.01641881 -1.625 16.5 C-1.99818359 18.18222656 -1.99818359 18.18222656 -2.37890625 19.8984375 C-5.48753724 33.29184266 -10.1760614 47.87104221 -22 56 C-26.528794 57.83996313 -30.37799266 58.25889626 -35.24853516 58.28710938 C-36.2989373 58.29735893 -36.2989373 58.29735893 -37.37055969 58.30781555 C-38.88459726 58.32134881 -40.39867982 58.33043714 -41.91276932 58.33552551 C-44.3300534 58.34389187 -46.74697336 58.36447733 -49.16415405 58.38806152 C-54.3177141 58.43615905 -59.47131239 58.46904584 -64.625 58.5 C-102.19781307 55.79652961 -102.19781307 55.79652961 -136 65.703125 C-157.04018396 90.18954599 -161.47322962 136.86560788 -161.3125 168.25 C-161.31034485 169.01413208 -161.3081897 169.77826416 -161.30596924 170.56555176 C-161.25171466 182.5975245 -160.68463456 194.22909555 -158 206 C-157.80132324 206.87914062 -157.60264648 207.75828125 -157.39794922 208.6640625 C-152.67025369 229.00554798 -145.69421614 248.57884265 -138.355896 268.09671021 C-132.66405044 283.24770252 -127.3692398 298.40421231 -123 314 C-122.80641907 314.69009155 -122.61283813 315.38018311 -122.41339111 316.09118652 C-99.44570211 398.20683666 -96.58087991 482.12101665 -165 716 C-175.50961905 734.25838727 -186.83504509 752.54579725 -199.74414062 769.23413086 C-201.09538888 771.04868871 -201.09538888 771.04868871 -202.25585938 773.40844727 C-203.94723413 776.26723829 -205.30333272 778.03797657 -208 780 C-213.69995618 780.9691637 -219.15249924 780.38265894 -224.875 779.8125 C-226.53359991 779.68012435 -228.1924639 779.55102027 -229.8515625 779.42504883 C-234.90891268 779.02202351 -239.95350872 778.51973327 -245 778 C-246.49770613 777.85108376 -247.9954269 777.70231474 -249.49316406 777.55371094 C-346.44917294 767.74611353 -439.77023394 733.01347875 -517 673 C-518.18595164 672.09082449 -519.37214805 671.18196818 -520.55859375 670.2734375 C-526.70495542 665.53680746 -532.69037674 660.6352288 -538.5625 655.5625 C-539.39116577 654.84719116 -539.39116577 654.84719116 -540.23657227 654.11743164 C-550.75696448 644.93186221 -560.85027061 635.31774554 -570.70458984 625.42578125 C-572.39175958 623.73318653 -574.08430196 622.04609403 -575.77734375 620.359375 C-581.39910212 614.74136348 -586.86434054 609.07190077 -592 603 C-592.96042973 601.90466041 -593.92262286 600.8108641 -594.88671875 599.71875 C-607.02506806 585.82494276 -617.60214981 570.87623576 -628.10546875 555.72851562 C-630.09589318 552.86189404 -632.09407506 550.00080037 -634.09375 547.140625 C-640.11328889 538.52475429 -646.1255098 529.90319752 -652 521.1875 C-652.41540039 520.57737061 -652.83080078 519.96724121 -653.25878906 519.33862305 C-656 515.23580011 -656 515.23580011 -656 513 C-653.95067942 511.6152299 -651.91582764 510.36743058 -649.7734375 509.140625 C-649.12263718 508.75964661 -648.47183685 508.37866821 -647.80131531 507.98614502 C-646.3962486 507.16410195 -644.98934458 506.3451931 -643.58084106 505.52905273 C-639.88375891 503.3853067 -636.20169381 501.21611757 -632.51953125 499.046875 C-631.41752632 498.398396 -631.41752632 498.398396 -630.29325867 497.73681641 C-620.70097703 492.07651361 -611.34365953 486.05900237 -602 480 C-600.43397651 478.99159284 -598.86757907 477.98376614 -597.30078125 476.9765625 C-570.89776798 459.9827065 -544.99250349 442.19037606 -519.57714844 423.75341797 C-514.57856202 420.12960818 -509.55049566 416.55104768 -504.5 413 C-491.58205669 403.90887598 -478.81351105 394.6185444 -466.1081543 385.2331543 C-457.01137967 378.51973276 -447.83522368 371.91731435 -438.65771484 365.31494141 C-436.31280637 363.62755631 -433.96889656 361.93879029 -431.625 360.25 C-430.59234009 359.50834595 -430.59234009 359.50834595 -429.53881836 358.75170898 C-428.51800171 358.01609741 -428.51800171 358.01609741 -427.4765625 357.265625 C-426.80600327 356.7882489 -426.13544403 356.3108728 -425.44456482 355.81903076 C-423.73871956 354.54969031 -422.07718111 353.21955949 -420.4536438 351.84651184 C-412.85862231 345.61155626 -406.04593653 343.05595931 -396.328125 341.18359375 C-394.90609792 340.88479046 -393.48470861 340.58293846 -392.06391907 340.27830505 C-389.04010619 339.63510811 -386.01340009 339.00972761 -382.98294067 338.39862061 C-375.69309486 336.92611898 -368.42501313 335.35096445 -361.15422249 333.78761292 C-358.65861151 333.2518976 -356.16229283 332.71957885 -353.6658783 332.18762207 C-337.54967325 328.74263631 -321.54210017 324.90264093 -305.5625 320.875 C-304.90100826 320.70846043 -304.23951653 320.54192085 -303.55797958 320.37033463 C-258.17338761 308.93165923 -213.54576058 295.30791731 -169 281 C-169.20382797 280.18518661 -169.40765594 279.37037323 -169.61766052 278.53086853 C-170.02045982 276.92025291 -170.02045982 276.92025291 -170.43139648 275.27709961 C-170.82995094 273.68362953 -170.82995094 273.68362953 -171.23655701 272.05796814 C-176.36015006 251.53543474 -179.2329462 231.70220555 -179.25 210.5 C-179.25067474 209.73743896 -179.25134949 208.97487793 -179.25204468 208.18920898 C-179.17915755 155.79221639 -165.22087163 104.61112345 -144 57 C-143.33967773 55.4847876 -143.33967773 55.4847876 -142.66601562 53.93896484 C-141.4045223 51.05252104 -140.11428554 48.18096189 -138.8125 45.3125 C-138.44519775 44.46961426 -138.07789551 43.62672852 -137.69946289 42.75830078 C-133.73512643 34.26143805 -127.67145443 29.28135705 -119.078125 25.7265625 C-108.02875999 21.86343864 -95.51814437 22.89045213 -83.96266174 23.01653099 C-81.34746539 23.04357669 -78.7323583 23.06118492 -76.11706543 23.07600403 C-68.69214174 23.11838455 -61.26739865 23.16685881 -53.84277344 23.24682617 C-49.27609494 23.29533596 -44.70964842 23.3243304 -40.14274597 23.34057045 C-38.41076472 23.35045121 -36.67880874 23.36763593 -34.94697571 23.39235497 C-32.53271883 23.42610425 -30.11954163 23.43498558 -27.70507812 23.43823242 C-26.64058945 23.46216064 -26.64058945 23.46216064 -25.55459595 23.48657227 C-20.76116738 23.4571869 -18.36222477 22.39287897 -15 19 C-13.67936622 16.73427315 -13.67936622 16.73427315 -12.875 14.25 C-12.55402344 13.37988281 -12.23304688 12.50976562 -11.90234375 11.61328125 C-11.32660258 9.94587501 -10.75577344 8.27675901 -10.19140625 6.60546875 C-9.53246064 4.71057334 -8.77400421 2.85087963 -8 1 C-5.07175348 0.02391783 -3.04386724 -0.08226668 0 0 Z M-164.49194336 308.95581055 C-165.37795605 309.17755636 -166.26396873 309.39930218 -167.17683029 309.62776756 C-170.14962886 310.3738128 -173.11970487 311.13015969 -176.08984375 311.88671875 C-178.1910197 312.41679962 -180.29232552 312.94636598 -182.39375305 313.47544861 C-188.06443613 314.90556009 -193.73260124 316.34541883 -199.40016174 317.78784943 C-202.93478582 318.6868097 -206.47003451 319.58327088 -210.00549316 320.47894287 C-250.00001505 330.61346702 -289.90582139 341.05144331 -329.72784424 351.84265137 C-334.11477031 353.03140993 -338.50241059 354.21751876 -342.89013672 355.40332031 C-359.59783558 359.919367 -376.30160087 364.44966898 -393 369 C-390.18979627 371.89315168 -387.4795409 374.55435721 -384.12890625 376.8046875 C-383.40123047 377.29775391 -382.67355469 377.79082031 -381.92382812 378.29882812 C-381.14458984 378.81896484 -380.36535156 379.33910156 -379.5625 379.875 C-377.8554212 381.02857547 -376.14839193 382.18222425 -374.44140625 383.3359375 C-373.5508252 383.9350293 -372.66024414 384.53412109 -371.74267578 385.15136719 C-367.14844011 388.24799817 -362.57560779 391.37594209 -358 394.5 C-356.13939208 395.76833063 -354.27871534 397.03656031 -352.41796875 398.3046875 C-345.0479607 403.3297525 -337.68700276 408.36802002 -330.32666016 413.40722656 C-326.38497795 416.10560376 -322.44245097 418.80274619 -318.5 421.5 C-313.78474996 424.72596938 -309.0696501 427.95215656 -304.35546875 431.1796875 C-295.90938599 436.96156966 -287.45798358 442.73553847 -279 448.5 C-268.21933354 455.84746485 -257.45144982 463.21348603 -246.68652344 470.58398438 C-237.46372078 476.89820632 -228.23609048 483.20522681 -219 489.5 C-209.76827289 495.79179937 -200.54505681 502.09591644 -191.32666016 508.40722656 C-187.38497795 511.10560377 -183.4424411 513.80273174 -179.5 516.5 C-177.91666268 517.5833275 -176.33332934 518.66666083 -174.75 519.75 C-173.96625 520.28625 -173.1825 520.8225 -172.375 521.375 C-165.25 526.25 -165.25 526.25 -162.87207031 527.87719727 C-161.29874238 528.95355695 -159.72517706 530.02956973 -158.15136719 531.10522461 C-154.03787315 533.91736337 -149.92945474 536.73655026 -145.828125 539.56640625 C-144.97798828 540.15164063 -144.12785156 540.736875 -143.25195312 541.33984375 C-141.63452074 542.45348572 -140.01853212 543.56922879 -138.40429688 544.6875 C-134.04118781 547.68785322 -129.63718852 550.44218569 -125 553 C-122.97921302 550.97921302 -123.35120438 547.07352024 -123.0625 544.29296875 C-122.97768372 543.5050293 -122.89286743 542.71708984 -122.80548096 541.90527344 C-122.53113372 539.33326016 -122.26464454 536.76052883 -122 534.1875 C-121.90940308 533.31421051 -121.81880615 532.44092102 -121.72546387 531.54116821 C-120.43452257 519.03694015 -119.22315323 506.57609513 -119 494 C-118.97953613 493.10297363 -118.95907227 492.20594727 -118.93798828 491.28173828 C-117.69901815 430.40837127 -126.94476818 363.20729735 -154 308 C-157.38867188 306.30566406 -160.96437291 308.04963616 -164.49194336 308.95581055 Z M-427.859375 388.19921875 C-428.57325378 388.64690109 -429.28713257 389.09458344 -430.02264404 389.55583191 C-437.9896211 394.58189802 -445.81662834 399.81431485 -453.6390686 405.06137085 C-458.23352381 408.1428323 -462.83342387 411.21614107 -467.43359375 414.2890625 C-468.3853801 414.92496811 -469.33716644 415.56087372 -470.3177948 416.21604919 C-479.69887517 422.47763087 -489.1210048 428.67615171 -498.54690552 434.8699646 C-517.69816635 447.45608116 -536.73517106 460.20063141 -555.69287109 473.07617188 C-559.96517883 475.97746018 -564.24184807 478.87227011 -568.51953125 481.765625 C-600.1725271 502.80013828 -600.1725271 502.80013828 -631 525 C-626.3236135 537.8418904 -617.23310692 549.24585897 -609 560 C-608.29907227 560.91942383 -608.29907227 560.91942383 -607.58398438 561.85742188 C-602.39017979 568.64600463 -597.06934886 575.2398782 -591.265625 581.5234375 C-589.38537438 583.57874594 -587.54931744 585.65918918 -585.72265625 587.76171875 C-577.20434939 597.52099787 -568.41276104 607.20642351 -558.6171875 615.69921875 C-555.86012741 618.12296262 -553.19305334 620.62536671 -550.52539062 623.14648438 C-543.90349306 629.39940058 -537.15802059 635.36004276 -530 641 C-528.94746969 641.84449529 -527.89540802 642.68957493 -526.84375 643.53515625 C-508.2408889 658.41202945 -488.66722128 672.14122712 -468 684 C-467.18644043 684.46696289 -466.37288086 684.93392578 -465.53466797 685.41503906 C-440.09799075 701.24154251 -440.09799075 701.24154251 -412 709 C-411.43401955 634.16929931 -413.63331244 559.41366923 -416.59082031 484.64770508 C-416.76048919 480.33938359 -416.92936627 476.03103181 -417.09765625 471.72265625 C-417.15897043 470.15781714 -417.15897043 470.15781714 -417.22152328 468.56136513 C-417.88035587 451.61553518 -418.34846946 434.67022089 -418.6552887 417.71437073 C-418.8667996 406.45899722 -419.33862209 395.23796216 -420 384 C-422.56841351 384 -425.66856993 386.82258523 -427.859375 388.19921875 Z M-396 398 C-395.41326099 426.14179231 -394.60613208 454.2687569 -393.58389711 482.39797115 C-393.39805438 487.52544459 -393.21506217 492.65302007 -393.03158569 497.78057861 C-392.72251436 506.40603489 -392.41126606 515.03141042 -392.09863281 523.65673828 C-391.7840911 532.33536549 -391.47186828 541.01407186 -391.16210938 549.69287109 C-389.67423292 591.37244745 -388.17690405 633.05152154 -386.43180418 674.72126102 C-386.33721743 676.98499273 -386.24350789 679.24875932 -386.14998245 681.5125351 C-385.97922635 685.63645129 -385.80335495 689.76013136 -385.62646484 693.88378906 C-385.57752453 695.06457787 -385.52858421 696.24536667 -385.47816086 697.46193695 C-385.17690133 704.33137459 -384.69191331 711.15868461 -384 718 C-375.36269115 721.72635808 -366.4874829 724.31945068 -357.4375 726.8125 C-356.65233002 727.02965668 -355.86716003 727.24681335 -355.05819702 727.47055054 C-309.74508021 739.9439724 -262.15944944 748.1894715 -215.02734375 747.046875 C-212 747 -212 747 -208.87890625 747.265625 C-203.77922259 747.44752454 -201.07748673 746.97870445 -197.23046875 743.484375 C-194.14602922 739.88953286 -191.5808166 735.96304154 -189 732 C-188.04599916 730.59736625 -187.09156573 729.19502663 -186.13671875 727.79296875 C-158.97513689 687.0438067 -138.8521624 636.40444848 -131 588 C-130.835 587.11441406 -130.67 586.22882813 -130.5 585.31640625 C-131.3260288 581.48956972 -134.42525692 579.94592321 -137.5 577.875 C-138.17562988 577.40054443 -138.85125977 576.92608887 -139.54736328 576.43725586 C-141.68693115 574.94103902 -143.84184563 573.46924646 -146 572 C-147.32096334 571.08818175 -148.64129344 570.17544531 -149.9609375 569.26171875 C-152.60640568 567.43444002 -155.25833036 565.61701072 -157.9140625 563.8046875 C-162.05460042 560.97231379 -166.15584943 558.08638964 -170.25 555.1875 C-176.42551326 550.81605328 -182.6126831 546.46192154 -188.8125 542.125 C-189.646604 541.54145752 -190.48070801 540.95791504 -191.34008789 540.35668945 C-193.89320355 538.57085675 -196.44655755 536.7853654 -199 535 C-209.20529182 527.86446619 -219.40510455 520.72189219 -229.57373047 513.53417969 C-238.36140404 507.32605403 -247.18228559 501.16534054 -256 495 C-266.20529182 487.86446619 -276.40510455 480.72189219 -286.57373047 473.53417969 C-295.36140404 467.32605403 -304.18228559 461.16534054 -313 455 C-323.20529182 447.86446619 -333.40510455 440.72189219 -343.57373047 433.53417969 C-354.21264377 426.01823021 -364.896229 418.56573994 -375.57421875 411.10546875 C-376.48260498 410.47044434 -377.39099121 409.83541992 -378.3269043 409.18115234 C-380.06883968 407.96343626 -381.81117059 406.74628571 -383.55395508 405.52978516 C-384.73380981 404.70486572 -384.73380981 404.70486572 -385.9375 403.86328125 C-386.62714844 403.38157471 -387.31679688 402.89986816 -388.02734375 402.40356445 C-389.42086245 401.4120621 -390.7860169 400.3801103 -392.12890625 399.32104492 C-393.8905626 397.80774576 -393.8905626 397.80774576 -396 398 Z " fill="#000000" transform="translate(735,239)"/>
<path d="M0 0 C5.21722998 2.18134184 7.39112219 6.15294284 10 11 C20.52439379 36.9291847 15.37582739 67.73206058 5 93 C4.01382032 95.00685068 3.01602979 97.00809552 2 99 C6.02073616 98.93078246 10.04058464 98.84265529 14.06054688 98.73754883 C15.4259925 98.70444614 16.79157013 98.67636914 18.15722656 98.65356445 C20.12853224 98.61975009 22.09946191 98.56591714 24.0703125 98.51171875 C25.25383301 98.48553467 26.43735352 98.45935059 27.65673828 98.43237305 C31.36136659 97.95326565 33.81455279 96.92508767 37 95 C38.68766988 92.7392822 38.68766988 92.7392822 39.75 90.125 C40.33007812 88.86042969 40.33007812 88.86042969 40.921875 87.5703125 C41.97594987 85.05733689 43.00048073 82.53514434 44 80 C46.31 80.33 48.62 80.66 51 81 C50.42891131 85.21362441 49.44471858 88.74121754 47.7421875 92.6328125 C47.28481201 93.68098145 46.82743652 94.72915039 46.35620117 95.80908203 C45.86740479 96.90333496 45.3786084 97.99758789 44.875 99.125 C44.37653564 100.24632324 43.87807129 101.36764648 43.36450195 102.52294922 C31.36833263 129.17032097 31.36833263 129.17032097 22 133 C18.95410156 133.34716797 18.95410156 133.34716797 15.390625 133.4921875 C14.08528809 133.55543213 12.77995117 133.61867676 11.43505859 133.68383789 C10.7504657 133.71462433 10.0658728 133.74541077 9.36053467 133.77713013 C-2.52396818 134.32823919 -13.58584367 135.44653624 -25 139 C-26.66194453 139.35613097 -28.32729681 139.69841597 -30 140 C-28.47063016 134.69762436 -26.02908062 130.23040747 -23.375 125.4375 C-16.04675034 111.85039911 -9.93184534 97.21526631 -7 82 C-6.6596875 80.2675 -6.6596875 80.2675 -6.3125 78.5 C-5.12358547 65.18415727 -6.75905261 53.95345284 -14.4375 42.70703125 C-16.14555424 40.84098199 -17.68291464 39.9737751 -20 39 C-20.78503906 39.9178125 -21.57007813 40.835625 -22.37890625 41.78125 C-33.88516303 55.22600111 -33.88516303 55.22600111 -37.25 59.01953125 C-38.57889198 60.52343356 -39.8879319 62.04490557 -41.1875 63.57421875 C-47.46192246 70.78377147 -54.14739001 76.58140934 -62 82 C-63.01707031 82.71285156 -64.03414063 83.42570312 -65.08203125 84.16015625 C-74.16358836 89.15543721 -86.27654983 88.33532081 -96.40474892 88.52072144 C-98.74177533 88.56371405 -101.07834592 88.61765793 -103.41508484 88.67407227 C-108.38070346 88.79208645 -113.34655084 88.89697501 -118.3125 89 C-124.06817601 89.11968801 -129.82362469 89.2451424 -135.5788784 89.38375854 C-137.84940564 89.43575108 -140.11996586 89.47805871 -142.39070129 89.51977539 C-162.62096398 89.95642172 -177.26384962 91.82065713 -192 107 C-195.51203 111.03789545 -198.71886569 115.28312348 -201.91796875 119.5703125 C-209.12618098 128.97983505 -217.8636282 137.56158901 -230.08990479 139.29656982 C-236.08590104 139.91186594 -242.10650342 140.19993557 -248.125 140.5 C-275.86310148 141.83613457 -275.86310148 141.83613457 -298.625 156.5 C-304.07886499 162.80692999 -310 171.49136664 -310 180 C-309.56171875 179.50371094 -309.1234375 179.00742187 -308.671875 178.49609375 C-298.67939956 167.79277148 -286.69489334 162.21333814 -272.09619141 161.49169922 C-269.51501748 161.41559926 -266.93338708 161.35400162 -264.3515625 161.3046875 C-262.942072 161.26807361 -261.53261238 161.23025388 -260.1231842 161.1913147 C-257.15373804 161.11179004 -254.18426234 161.04057953 -251.21444702 160.97631836 C-246.59936039 160.87640276 -241.98490607 160.75688541 -237.37036133 160.63476562 C-225.35693863 160.32088351 -213.34263202 160.04849439 -201.32794189 159.78787231 C-197.87461019 159.71206158 -194.42140722 159.63115198 -190.96820068 159.54986572 C-188.75246824 159.50142048 -186.53677493 159.46456623 -184.32080078 159.42919922 C-182.37343018 159.38690186 -182.37343018 159.38690186 -180.38671875 159.34375 C-179.30608154 159.32505859 -178.22544434 159.30636719 -177.11206055 159.28710938 C-171.17019075 158.73893028 -166.76563244 157.26613008 -162.25 153.375 C-158.31020408 150 -158.31020408 150 -155 150 C-156.35560078 162.87820745 -169.82972573 174.47414235 -179.17578125 182.625 C-186.1652115 187.89326434 -195.25185192 187.14524467 -203.64379883 187.46484375 C-204.56218033 187.50239777 -205.48056183 187.53995178 -206.42677307 187.5786438 C-208.40565742 187.65914927 -210.38460108 187.73820755 -212.36359596 187.81594849 C-215.5055983 187.93940836 -218.6474224 188.06676244 -221.78923035 188.19506836 C-228.46351397 188.46689835 -235.13799699 188.73362037 -241.8125 189 C-249.5425951 189.30904218 -257.27259698 189.62022103 -265.00244713 189.93533325 C-268.07974058 190.05987779 -271.15714706 190.18127981 -274.23457336 190.30249023 C-296.37438324 191.18998722 -309.65607885 192.65607885 -326 209 C-328.68839385 209.26991906 -331.29141936 209.08737357 -334 209 C-333.4117932 203.85923369 -331.70442983 199.53286298 -329.5625 194.875 C-329.18125977 194.03952637 -328.80001953 193.20405273 -328.40722656 192.34326172 C-292.72503019 115.22932262 -292.72503019 115.22932262 -272.73828125 107.78515625 C-260.35620117 103.95747253 -248.17879568 103.86646294 -235.3125 104 C-214.5108869 104.21389834 -203.02325784 99.98066386 -187.76364136 85.81185913 C-184.86904852 82.83812842 -182.59917923 79.48494505 -180.2421875 76.08203125 C-172.2224599 65.04960913 -163.39615322 54.12340719 -149.20946503 51.77977467 C-132.33309516 49.54748534 -114.87818498 50.39180482 -97.93504333 51.4745636 C-86.7163324 52.17546713 -76.23031299 51.87933203 -65.4375 48.5625 C-64.59106934 48.30299561 -63.74463867 48.04349121 -62.87255859 47.77612305 C-37.09166162 39.41584886 -15.9962145 21.56011519 0 0 Z " fill="#000000" transform="translate(498,215)"/>
<path d="M0 0 C8.0845597 7.00539902 13.64470656 19.46369484 14.40234375 29.99609375 C14.8608986 52.77902946 3.3580567 69.66960621 -11.8359375 85.68359375 C-12.73054687 86.64265625 -13.62515625 87.60171875 -14.546875 88.58984375 C-22.66054499 97.11361585 -31.7441306 104.7004055 -42.03515625 110.48046875 C-57.48775072 119.28743763 -64.60586539 138.59820313 -72.58520508 153.81152344 C-82.49706779 172.6889642 -91.69885677 182.27998829 -110.61523438 192.09570312 C-119.67807253 196.90108569 -128.75557727 202.43008047 -133.8359375 211.68359375 C-134.51004649 214.33138354 -134.51004649 214.33138354 -134.8359375 216.68359375 C-132.25326337 218.14310494 -129.66983009 219.60124256 -127.0859375 221.05859375 C-125.99152344 221.67734375 -125.99152344 221.67734375 -124.875 222.30859375 C-124.16601562 222.70820313 -123.45703125 223.1078125 -122.7265625 223.51953125 C-121.75251465 224.06939697 -121.75251465 224.06939697 -120.75878906 224.63037109 C-118.80756559 225.69913418 -116.83183194 226.70117878 -114.8359375 227.68359375 C-115.40704569 231.16701083 -116.27493141 233.8829272 -117.98046875 236.96875 C-118.62532227 238.13567383 -118.62532227 238.13567383 -119.28320312 239.32617188 C-119.73373047 240.12474609 -120.18425781 240.92332031 -120.6484375 241.74609375 C-121.08736328 242.54853516 -121.52628906 243.35097656 -121.97851562 244.17773438 C-124.22250599 248.19557744 -126.30017627 251.64234458 -129.8359375 254.68359375 C-130.90070313 253.92175781 -131.96546875 253.15992188 -133.0625 252.375 C-152.24878261 238.69943423 -171.0104381 226.59934494 -193.43334961 218.86523438 C-194.38089111 218.52169922 -195.32843262 218.17816406 -196.3046875 217.82421875 C-197.57989258 217.38384277 -197.57989258 217.38384277 -198.88085938 216.93457031 C-200.8359375 215.68359375 -200.8359375 215.68359375 -201.76342773 213.39477539 C-201.85344201 210.02908997 -201.02330842 208.17280043 -199.52734375 205.1640625 C-199.02783203 204.14248047 -198.52832031 203.12089844 -198.01367188 202.06835938 C-197.48064453 201.01326172 -196.94761719 199.95816406 -196.3984375 198.87109375 C-195.86927734 197.79666016 -195.34011719 196.72222656 -194.79492188 195.61523438 C-193.48746856 192.96499118 -192.16754223 190.32176232 -190.8359375 187.68359375 C-185.0859375 187.55859375 -185.0859375 187.55859375 -182.8359375 188.68359375 C-182.8978125 187.65234375 -182.9596875 186.62109375 -183.0234375 185.55859375 C-182.92242644 174.04333248 -179.23808637 164.73047404 -173.94921875 154.78125 C-172.14329002 151.3653149 -170.60802731 147.8905067 -169.13208008 144.3215332 C-164.4735184 133.06124522 -157.67246377 122.22884688 -146.2734375 116.74609375 C-138.52678232 114.35167306 -131.90077805 116.01070905 -124.8359375 119.68359375 C-117.62887089 125.32448382 -115.00992019 133.40067165 -113.0859375 142.05859375 C-112.55820999 149.71064268 -112.50831027 157.12060107 -113.8359375 164.68359375 C-110.02397914 162.70776597 -106.22006121 160.71740086 -102.42236328 158.71435547 C-101.13466764 158.03765009 -99.84500541 157.36467114 -98.55322266 156.69580078 C-82.69449559 148.88279033 -82.69449559 148.88279033 -71.8359375 135.68359375 C-71.35210647 129.39379033 -74.64808493 125.85894166 -78.51171875 121.30859375 C-79.27871094 120.44234375 -80.04570312 119.57609375 -80.8359375 118.68359375 C-81.61324219 117.79671875 -82.39054687 116.90984375 -83.19140625 115.99609375 C-86.95471207 111.76001082 -90.81670394 107.67790183 -94.8359375 103.68359375 C-95.59132813 102.905 -96.34671875 102.12640625 -97.125 101.32421875 C-106.22532868 92.0108389 -116.23317802 84.2101174 -126.8359375 76.68359375 C-125.12663473 67.29272551 -113.42897958 59.17920171 -106.8359375 52.68359375 C-106.0728125 53.32296875 -105.3096875 53.96234375 -104.5234375 54.62109375 C-101.95347037 56.82592156 -101.95347037 56.82592156 -98.8359375 57.68359375 C-98.371875 55.85828125 -98.371875 55.85828125 -97.8984375 53.99609375 C-94.60478553 44.17699046 -87.62012825 36.13564038 -80.21875 29.12109375 C-77.33477662 26.17093081 -74.84949113 23.01192957 -72.3359375 19.74609375 C-53.75096807 -4.18401129 -28.50340873 -20.43755052 0 0 Z M-66.8984375 24.68359375 C-75.53433816 35.18303087 -76.90069782 48.62895258 -75.8359375 61.68359375 C-74.17655019 73.44783029 -71.24608143 85.84966878 -61.58203125 93.52734375 C-55.29721572 97.68910079 -49.22956073 97.41754799 -41.8359375 96.68359375 C-32.89533775 94.38702392 -24.39101175 89.53595282 -19.5 81.484375 C-18.46081083 79.24582089 -17.61855009 77.02348622 -16.8359375 74.68359375 C-16.55105469 73.89339844 -16.26617187 73.10320312 -15.97265625 72.2890625 C-11.39657207 59.21143805 -11.09465821 45.74361583 -17.0546875 33.09765625 C-21.64792323 24.60017015 -28.55030644 18.61589829 -37.8359375 15.68359375 C-49.03573807 13.25380651 -58.93867912 16.38126349 -66.8984375 24.68359375 Z M-161.50390625 147.1640625 C-168.49182003 154.70410774 -169.53636294 162.59981843 -169.1796875 172.515625 C-168.32527139 185.71330243 -162.96464956 197.16180221 -153.3359375 206.18359375 C-149.69063099 209.23489662 -146.32470951 211.15550115 -141.8359375 212.68359375 C-132.49336477 199.07013063 -128.49058803 184.09353543 -129.8359375 167.68359375 C-131.43816924 159.68109577 -133.78742437 151.61828623 -140.46484375 146.4140625 C-147.68445449 141.84325749 -154.87739022 141.28244757 -161.50390625 147.1640625 Z " fill="#000000" transform="translate(230.8359375,136.31640625)"/>
<path d="M0 0 C1.30408813 -0.02682861 1.30408813 -0.02682861 2.63452148 -0.05419922 C7.36723164 -0.04776453 10.89421628 0.03463036 14.625 3.3125 C14.625 4.3025 14.625 5.2925 14.625 6.3125 C12.0625 8.21484375 12.0625 8.21484375 8.625 10.25 C8.03211182 10.60118896 7.43922363 10.95237793 6.82836914 11.31420898 C5.10217109 12.32783624 3.36378334 13.32061672 1.625 14.3125 C0.79871094 14.78945313 -0.02757812 15.26640625 -0.87890625 15.7578125 C-5.74175777 18.39685526 -5.74175777 18.39685526 -8.515625 18.02734375 C-10.375 17.3125 -10.375 17.3125 -11.5625 15.3125 C-13.92605059 12.70444418 -16.02189134 12.38007199 -19.46875 12.15625 C-33.42282815 12.90646926 -48.83024376 18.88953516 -58.88671875 28.64453125 C-63.21421722 33.49450985 -63.96028658 37.96917893 -63.8046875 44.296875 C-63.03280548 49.71408333 -60.6949245 54.40550817 -58.375 59.3125 C-57.69657448 60.97441487 -57.0259045 62.6396146 -56.375 64.3125 C-55.715 64.3125 -55.055 64.3125 -54.375 64.3125 C-54.14425781 63.60609375 -53.91351562 62.8996875 -53.67578125 62.171875 C-46.40703355 46.19372691 -27.498302 37.24582857 -12.375 30.3125 C-11.59753418 29.9520459 -10.82006836 29.5915918 -10.01904297 29.22021484 C3.60243814 22.96939246 16.56590114 17.75646741 31.625 22.3125 C40.11301542 25.75267579 46.71549582 30.56467218 50.90234375 38.8359375 C55.81680676 50.4837395 56.20385973 63.03623083 52.16796875 75.02734375 C49.28299484 81.16978188 44.97176058 86.15298953 40.625 91.3125 C39.61873143 92.6411088 38.6174525 93.97353928 37.625 95.3125 C38.34155762 94.88316162 39.05811523 94.45382324 39.79638672 94.01147461 C43.02603323 92.08265066 46.26285002 90.16620172 49.5 88.25 C51.19189453 87.23583008 51.19189453 87.23583008 52.91796875 86.20117188 C53.99433594 85.56630859 55.07070313 84.93144531 56.1796875 84.27734375 C57.17468262 83.6855835 58.16967773 83.09382324 59.19482422 82.48413086 C60.39776123 81.90417358 60.39776123 81.90417358 61.625 81.3125 C62.285 81.6425 62.945 81.9725 63.625 82.3125 C63.625 85.9425 63.625 89.5725 63.625 93.3125 C32.42993391 108.43866653 32.42993391 108.43866653 17.87231445 115.34130859 C17.095896 115.70949707 16.31947754 116.07768555 15.51953125 116.45703125 C14.52723511 116.92653198 14.52723511 116.92653198 13.51489258 117.40551758 C12.16660269 118.05257828 10.83710958 118.73942263 9.5222168 119.4519043 C7.15071128 120.52764191 6.02782796 120.17065284 3.625 119.3125 C2.84375 117.65625 2.84375 117.65625 2.625 115.3125 C4.46875 112.71875 4.46875 112.71875 7.125 109.8125 C18.01132552 97.34996905 24.64619862 83.28179268 24.00390625 66.375 C22.89000344 57.37190921 19.11117334 49.67099276 12.625 43.3125 C7.54357579 39.49229259 2.06971191 36.9270219 -4.375 37.3125 C-13.07515179 38.68847129 -20.63130083 42.97155699 -26.3828125 49.640625 C-28.19303464 52.13261912 -29.81185445 54.65916062 -31.375 57.3125 C-31.83648438 58.08335937 -32.29796875 58.85421875 -32.7734375 59.6484375 C-40.60056668 73.92701862 -42.69229951 89.81613951 -38.875 105.5625 C-36.74670374 112.80644654 -33.90752595 119.7664525 -30.9296875 126.70019531 C-30.58550781 127.51584961 -30.24132812 128.33150391 -29.88671875 129.171875 C-29.57178467 129.89858398 -29.25685059 130.62529297 -28.93237305 131.37402344 C-28.375 133.3125 -28.375 133.3125 -29.375 136.3125 C-32.26992386 138.23768001 -35.47836458 139.59345224 -38.625 141.0625 C-39.48480469 141.48660156 -40.34460938 141.91070313 -41.23046875 142.34765625 C-42.06707031 142.74339844 -42.90367187 143.13914062 -43.765625 143.546875 C-44.52907227 143.91006836 -45.29251953 144.27326172 -46.07910156 144.64746094 C-49.16727244 145.54199278 -50.42913588 145.71590452 -53.375 144.3125 C-55.09755197 141.46716967 -56.20085424 138.41588252 -57.375 135.3125 C-57.99105039 133.87679633 -58.6148038 132.44436949 -59.24682617 131.015625 C-74.35685155 96.05146475 -74.35685155 96.05146475 -79.75 81.0625 C-80.08797607 80.12664062 -80.42595215 79.19078125 -80.77416992 78.2265625 C-85.19816654 65.57141865 -88.67092945 54.91125054 -82.8125 42.25 C-72.34081014 22.89098944 -50.78718554 11.22456664 -30.375 4.8125 C-27.38739626 3.92782703 -24.38872676 3.10305838 -21.375 2.3125 C-20.40691406 2.04695312 -19.43882812 1.78140625 -18.44140625 1.5078125 C-12.36795984 0.12446901 -6.20337606 0.08751973 0 0 Z " fill="#000000" transform="translate(717.375,866.6875)"/>
<path d="M0 0 C6.99373091 6.2451062 12.01041291 14.47947883 16.25 22.75 C16.56308105 23.34852783 16.87616211 23.94705566 17.19873047 24.5637207 C22.77205403 35.93502663 24.7001129 48.30755157 26.1875 60.75 C26.36097614 62.13163673 26.53545132 63.51314839 26.7109375 64.89453125 C27.12956173 68.2202682 27.53825529 71.54689094 27.9375 74.875 C36.38988797 75.20508324 43.96324585 74.34632625 52.1875 72.4375 C58.76668137 70.95842711 65.225406 69.57350739 71.9375 68.875 C73.50187717 75.37013558 74.49265063 81.72797867 75.125 88.375 C75.21974609 89.27992188 75.31449219 90.18484375 75.41210938 91.1171875 C75.49654297 91.97570312 75.58097656 92.83421875 75.66796875 93.71875 C75.74426514 94.49412109 75.82056152 95.26949219 75.89916992 96.06835938 C75.91181885 96.66455078 75.92446777 97.26074219 75.9375 97.875 C74.01217132 99.80032868 70.60845612 99.6447595 67.9765625 100.0390625 C66.47723569 100.2718356 64.97797095 100.50500875 63.47875977 100.73852539 C62.67995392 100.86180206 61.88114807 100.98507874 61.05813599 101.11209106 C23.18339085 106.99914837 -13.85272587 115.72032605 -51.0625 124.875 C-52.0654846 120.96214061 -53.06220697 117.04774436 -54.05322266 113.13183594 C-54.39103375 111.80067238 -54.73053521 110.46993658 -55.07177734 109.13964844 C-55.56274399 107.2244491 -56.04707742 105.30755319 -56.53125 103.390625 C-56.82451172 102.23852539 -57.11777344 101.08642578 -57.41992188 99.89941406 C-58.0625 96.875 -58.0625 96.875 -58.0625 92.875 C-54.5975 91.885 -54.5975 91.885 -51.0625 90.875 C-51.88041016 89.39193359 -51.88041016 89.39193359 -52.71484375 87.87890625 C-58.34084334 77.13390121 -61.95202627 66.23296674 -65.0625 54.5625 C-65.3550618 53.4674968 -65.3550618 53.4674968 -65.65353394 52.35037231 C-74.00450142 20.86399446 -74.00450142 20.86399446 -66.0625 6.875 C-58.85268365 -2.99777406 -51.43661716 -8.20337615 -39.5 -10.62109375 C-23.65771014 -12.94342942 -12.86067473 -8.92373349 0 0 Z M-52.8515625 31.05078125 C-57.64773016 37.89063612 -61.49006605 45.29338138 -60.0625 53.875 C-57.27092684 63.32979244 -50.89551806 70.33111326 -42.6484375 75.49609375 C-37.6495409 78.16166852 -32.42845015 80.08634995 -27.0625 81.875 C-26.33675781 82.12378906 -25.61101563 82.37257813 -24.86328125 82.62890625 C-19.67068412 84.0877302 -14.35850517 84.10664762 -9 84.1875 C-7.86558472 84.21420776 -7.86558472 84.21420776 -6.70825195 84.24145508 C-0.59368513 84.23280459 4.96014155 83.17352072 9.890625 79.3671875 C16.2142736 71.48167388 19.61710361 63.06905415 18.9375 52.875 C16.76572173 42.66028017 10.36013539 34.82592102 1.9375 28.875 C-15.93633746 18.23003885 -37.95182496 12.93035809 -52.8515625 31.05078125 Z " fill="#000000" transform="translate(82.0625,574.125)"/>
<path d="M0 0 C0.6396167 0.17668213 1.2792334 0.35336426 1.93823242 0.53540039 C29.46231147 8.09522927 56.64437664 13.75893059 85 17 C85.11389989 24.0930101 84.85816125 31.01440848 84.0625 38.0625 C83.97548828 38.90232422 83.88847656 39.74214844 83.79882812 40.60742188 C83.13355119 46.73289761 83.13355119 46.73289761 82 49 C79.67843403 49.40729228 77.3431213 49.74438677 75 50 C75.32355469 51.11375 75.64710937 52.2275 75.98046875 53.375 C77.52087392 60.34836379 77.33486658 67.44906253 77.31567383 74.55322266 C77.31254288 76.96694397 77.33592474 79.37940085 77.36132812 81.79296875 C77.43153525 99.07175889 76.03825099 120.27372795 63.55859375 133.53125 C58.67953776 137.91348306 53.72140786 139.46580541 47.19921875 139.2421875 C38.71259736 138.30760397 31.98792694 135.11835703 26 129 C19.82556734 120.56212195 17.786159 110.89619254 16.4296875 100.72265625 C16.14734981 98.04277122 16.14734981 98.04277122 15 96 C14.52691406 96.44802979 14.05382812 96.89605957 13.56640625 97.35766602 C11.37906087 99.42748955 9.18954382 101.4950023 7 103.5625 C6.25621094 104.26697266 5.51242187 104.97144531 4.74609375 105.69726562 C1.19316296 109.04937859 -2.37935875 112.36192356 -6.06640625 115.56640625 C-18.58884748 126.45420563 -28.19139613 136.71846687 -35 152 C-35.99 152 -36.98 152 -38 152 C-37.47578404 142.95890605 -36.15095993 134.16455632 -34.52587891 125.27026367 C-34.12153291 123.04340565 -33.73431446 120.81397342 -33.34765625 118.58398438 C-33.08957094 117.15085593 -32.83049247 115.7179059 -32.5703125 114.28515625 C-32.34102051 113.00519775 -32.11172852 111.72523926 -31.87548828 110.40649414 C-30.67050957 105.71796433 -28.72473569 102.36845319 -25.14453125 99.1328125 C-24.60852295 98.64321045 -24.07251465 98.1536084 -23.52026367 97.64916992 C-22.95670166 97.14619385 -22.39313965 96.64321777 -21.8125 96.125 C-21.23024658 95.59688721 -20.64799316 95.06877441 -20.0480957 94.5246582 C-9.54550398 85.02495102 -9.54550398 85.02495102 -5.08984375 81.48046875 C8.04795592 70.74560659 17.25693687 55.94978634 19 39 C10.76842586 36.07816197 2.54234789 33.81869342 -6 32 C-5.34941146 24.82856996 -4.01874321 17.95786552 -2.4375 10.9375 C-2.08655273 9.35291992 -2.08655273 9.35291992 -1.72851562 7.73632812 C-1.15653688 5.15658727 -0.58028727 2.57788225 0 0 Z M28 40 C25.53909124 45.03278687 24.47980496 49.1672295 24.5625 54.8125 C24.56862305 55.54025635 24.57474609 56.2680127 24.58105469 57.01782227 C25.02021574 72.83944373 29.24091744 89.12372151 40 101 C43.64332037 104.3830832 46.983272 106.94962792 52.10546875 107.03515625 C57.39384602 106.67196786 60.93938285 105.59918339 65 102 C69.39045333 96.7192603 71.76107788 90.8789661 72 84 C70.28408299 69.43420449 62.16245562 58.01344145 51 49 C43.78384538 44.2169847 36.61605092 41.01365305 28 40 Z " fill="#000000" transform="translate(957,512)"/>
<path d="M0 0 C0.92727905 0.21148682 0.92727905 0.21148682 1.87329102 0.42724609 C24.03974368 5.45095629 45.60776416 7.9542266 68.3125 8.5625 C69.84310711 8.60583285 71.37370617 8.64945099 72.90429688 8.69335938 C76.60277793 8.7988506 80.30135177 8.90052066 84 9 C82.66477273 38.00568182 82.66477273 38.00568182 81 43 C78.93359375 43.73046875 78.93359375 43.73046875 76.4375 44.1875 C75.61121094 44.34605469 74.78492187 44.50460937 73.93359375 44.66796875 C73.29550781 44.77753906 72.65742187 44.88710938 72 45 C72.20496094 45.71285156 72.40992187 46.42570312 72.62109375 47.16015625 C72.89050781 48.11792969 73.15992187 49.07570313 73.4375 50.0625 C73.70433594 51.00222656 73.97117187 51.94195312 74.24609375 52.91015625 C76.01355205 60.15398793 76.18654157 67.17340978 76.23828125 74.6015625 C76.246353 75.71502045 76.25442474 76.82847839 76.26274109 77.97567749 C76.27653239 80.32735663 76.28727654 82.67905537 76.29516602 85.03076172 C76.30667049 87.4162388 76.32709774 89.80169045 76.35668945 92.18701172 C76.76008944 124.75198287 76.76008944 124.75198287 66 136 C59.02569819 142.89558508 52.17477252 146.09199296 42.3125 146.25 C29.70613042 146.11095916 19.29179574 140.77182683 10.140625 132.30859375 C4.56171298 126.29192039 1.21224339 119.49523458 -2 112 C-2.66 119.92 -3.32 127.84 -4 136 C-5.65 135.34 -7.3 134.68 -9 134 C-9.928125 133.67 -10.85625 133.34 -11.8125 133 C-14 131 -14 131 -14.24960327 129.00431824 C-14.12173406 122.62366052 -13.66180804 116.33257586 -12.9765625 109.98828125 C-12.87032562 108.97581833 -12.76408875 107.96335541 -12.65463257 106.92021179 C-12.43024594 104.79638365 -12.20321082 102.67283379 -11.97363281 100.54956055 C-11.6249328 97.31187605 -11.28853253 94.07306977 -10.953125 90.83398438 C-10.73250962 88.76033793 -10.51117999 86.68676733 -10.2890625 84.61328125 C-10.19001617 83.65271317 -10.09096985 82.69214508 -9.98892212 81.70246887 C-9.42650994 76.59239464 -8.58604172 71.89331351 -7 67 C-5.35 67.33 -3.7 67.66 -2 68 C-1.79246094 68.71542969 -1.58492187 69.43085938 -1.37109375 70.16796875 C3.86769846 87.11184482 12.54406978 101.72644187 28 111 C35.63455414 114.94341318 44.54857533 115.25802108 52.84375 113.34375 C58.72414072 111.28915565 62.85317087 108.43165555 66 103 C69.79876369 94.40583879 70.4603118 85.29098896 67.08984375 76.46875 C58.84513688 57.79256813 47.24341738 45.58527574 28.01953125 38.05859375 C17.88305216 34.50492514 7.62079222 33.14564383 -3 32 C-3.12506795 25.09995511 -2.78657468 18.36073596 -2.0625 11.5 C-1.93198242 10.16195313 -1.93198242 10.16195313 -1.79882812 8.796875 C-1.13035714 2.26071429 -1.13035714 2.26071429 0 0 Z " fill="#000000" transform="translate(14,397)"/>
<path d="M0 0 C7.20102851 0.68378865 14.03013614 2.37934933 21.03125 4.16015625 C22.26290894 4.46948593 23.49456787 4.77881561 24.7635498 5.09751892 C28.0128387 5.91446936 31.26104427 6.73548096 34.50878906 7.55853271 C37.83311301 8.39990541 41.15880204 9.23584611 44.484375 10.07226562 C50.99084351 11.70987725 57.4959368 13.35286276 64 15 C64 16.32 64 17.64 64 19 C63.33581055 19.1858667 62.67162109 19.3717334 61.98730469 19.56323242 C33.49550226 26.45235341 33.49550226 26.45235341 12 45 C8.2161731 53.6423502 5.75570816 63.7235551 9.1875 72.875 C12.89993667 79.27575289 18.05438642 83.74210539 25.1875 85.6875 C36.99036405 88.63431811 48.47054225 86.77810423 59.1875 80.9375 C78.63935556 68.65211754 89.1486578 46.55183805 95 25 C101.59693839 26.06221889 108.12251435 27.40664575 114.625 28.9375 C115.33591797 29.09508789 116.04683594 29.25267578 116.77929688 29.41503906 C118.7890625 29.90234375 118.7890625 29.90234375 122 31 C123.31806208 34.95418624 122.07335504 37.39602648 120.71875 41.1484375 C120.20376288 42.62987135 119.6892996 44.11148739 119.17529297 45.59326172 C118.90150818 46.37312439 118.62772339 47.15298706 118.34564209 47.95648193 C113.97064683 60.46887365 109.95051416 72.97607344 106.875 85.875 C106.60494141 86.9995459 106.33488281 88.1240918 106.05664062 89.28271484 C104.25263652 97.13247555 103.03284323 105.01457782 102 113 C94.99490754 112.43240789 88.6589411 110.95346459 81.9375 108.9375 C80.97650391 108.65583984 80.01550781 108.37417969 79.02539062 108.08398438 C76.68161994 107.39601189 74.34052048 106.69894995 72 106 C72 102.37 72 98.74 72 95 C70.57429687 95.32226562 69.14859375 95.64453125 67.6796875 95.9765625 C51.43121057 99.20341293 34.87437413 97.05352776 19 93 C18.25524414 92.81808105 17.51048828 92.63616211 16.74316406 92.44873047 C1.9104263 88.77176247 -14.53607101 83.11241992 -23.9375 70.375 C-28.04638825 61.19042627 -26.76274488 50.01042384 -23.328125 40.85546875 C-18.31009911 30.06671309 -11.12605984 22.85494412 -0.265625 18.16796875 C6.03241501 15.91544008 12.48393882 14.50370643 19 13 C11.41 12.01 3.82 11.02 -4 10 C-1.75 3.25 -1.75 3.25 0 0 Z " fill="#000000" transform="translate(593,6)"/>
<path d="M0 0 C0.22550537 0.76328613 0.45101074 1.52657227 0.68334961 2.31298828 C8.36845802 28.14688004 16.68341344 53.54491236 32.62890625 75.609375 C33.08136719 76.39828125 33.53382813 77.1871875 34 78 C32.81096705 81.56709885 32.2017243 81.73053793 28.9921875 83.41015625 C27.75855469 84.05887695 27.75855469 84.05887695 26.5 84.72070312 C25.63375 85.16349609 24.7675 85.60628906 23.875 86.0625 C23.03195312 86.50916016 22.18890625 86.95582031 21.3203125 87.41601562 C16.60763372 89.86382782 12.16639335 91.76090566 7 93 C5.02 91.02 3.04 89.04 1 87 C-2.53927902 88.34628078 -4.70037025 90.61155228 -7.25830078 93.33959961 C-17.8653538 104.64343125 -30.3441665 111.31375855 -43.9375 118.4375 C-44.52976379 118.74904022 -45.12202759 119.06058044 -45.73223877 119.38156128 C-47.45147302 120.28184462 -49.17684404 121.170378 -50.90234375 122.05859375 C-52.41042603 122.83674438 -52.41042603 122.83674438 -53.94897461 123.63061523 C-63.47904348 127.9079743 -75.36506681 129.03662895 -85.375 125.5625 C-94.1041464 121.41137136 -102.29653763 113.5731242 -105.99609375 104.578125 C-109.94606545 92.42976759 -107.36106286 81.27819341 -102 70 C-99.55799428 65.50503359 -96.83560889 61.25341334 -94 57 C-94.52956299 57.30292969 -95.05912598 57.60585937 -95.60473633 57.91796875 C-98.0036049 59.28529491 -100.40792919 60.64272891 -102.8125 62 C-103.64587891 62.47695312 -104.47925781 62.95390625 -105.33789062 63.4453125 C-106.14033203 63.89648438 -106.94277344 64.34765625 -107.76953125 64.8125 C-108.87711792 65.44091797 -108.87711792 65.44091797 -110.00708008 66.08203125 C-112 67 -112 67 -115 67 C-115 63.37 -115 59.74 -115 56 C-102.89316352 49.11295425 -90.61470446 42.68333406 -78.03320312 36.712677 C-76.59542962 36.02971425 -75.15954343 35.34276395 -73.72558594 34.65182495 C-71.6951233 33.67588741 -69.65767994 32.71647463 -67.6171875 31.76171875 C-66.43753418 31.20444092 -65.25788086 30.64716309 -64.04248047 30.07299805 C-61.02918617 29.01029315 -59.88715643 28.77591321 -57 30 C-57.19979054 33.99581088 -58.08271135 36.3508675 -60.5625 39.375 C-71.07242846 52.69601776 -77.00540213 69.99197953 -76.37109375 86.9453125 C-75.41157013 94.84370689 -71.4278126 99.23328834 -65.4296875 104.23828125 C-59.75779989 108.35085571 -53.1302644 111.34148776 -46 111 C-36.09737374 109.0904492 -30.7224127 103.23901092 -25.20288086 95.15917969 C-21.82516814 90.04286468 -19.57409345 84.90488943 -18 79 C-17.7383606 78.02716064 -17.7383606 78.02716064 -17.47143555 77.03466797 C-14.41539174 64.72088863 -14.26503714 49.85384798 -19 38 C-19.26296875 37.33983887 -19.5259375 36.67967773 -19.796875 35.99951172 C-21.28440335 32.28803063 -22.81063148 28.59601289 -24.37890625 24.91796875 C-25.7558829 21.6606302 -26.93520419 18.37450214 -28 15 C-22.31184815 11.36791267 -16.52289234 7.96680588 -10.625 4.6875 C-9.81933594 4.23310547 -9.01367188 3.77871094 -8.18359375 3.31054688 C-7.41402344 2.88193359 -6.64445312 2.45332031 -5.8515625 2.01171875 C-5.15885254 1.62459717 -4.46614258 1.23747559 -3.75244141 0.83862305 C-2 0 -2 0 0 0 Z " fill="#000000" transform="translate(350,31)"/>
<path d="M0 0 C3.74876369 1.37661456 6.94495205 3.09909196 10.30078125 5.2578125 C11.27724609 5.88300781 12.25371094 6.50820312 13.25976562 7.15234375 C14.26716797 7.80332031 15.27457031 8.45429687 16.3125 9.125 C17.33923828 9.78371094 18.36597656 10.44242188 19.42382812 11.12109375 C21.95165527 12.74360606 24.47615451 14.37130106 27 16 C26.34 19.63 25.68 23.26 25 27 C26.546875 26.896875 28.09375 26.79375 29.6875 26.6875 C46.65286489 26.75258452 62.13525004 39.01920575 75.0234375 48.98046875 C77.60207295 50.9665103 80.21402098 52.85831495 82.9140625 54.67578125 C89.73003835 59.26742932 95.31248251 63.42951357 99 71 C99.39574219 71.77988281 99.79148437 72.55976563 100.19921875 73.36328125 C104.35183784 82.49904326 105.15631671 91.88646032 102.05859375 101.46875 C98.46332214 110.06556182 92.25031447 114.93405555 84 119 C76.02132314 122.27101401 67.69032699 125.10021768 59 124 C57.081875 123.76990234 57.081875 123.76990234 55.125 123.53515625 C51.40928878 123.06976896 47.70457391 122.54665649 44 122 C46.1237019 123.37704014 48.24872047 124.75194831 50.375 126.125 C51.00680176 126.53371338 51.63860352 126.94242676 52.28955078 127.36352539 C56.88323807 130.32076245 61.54581869 133.12312277 66.3046875 135.80859375 C67.14386719 136.39833984 67.14386719 136.39833984 68 137 C68 137.66 68 138.32 68 139 C66.25364835 139.53293835 64.50272348 140.05090663 62.75 140.5625 C61.77546875 140.85253906 60.8009375 141.14257812 59.796875 141.44140625 C56.21638852 142.15650341 54.20463299 141.74721668 51.10327148 139.82348633 C50.44915283 139.33130615 49.79503418 138.83912598 49.12109375 138.33203125 C48.37432373 137.77547852 47.62755371 137.21892578 46.8581543 136.64550781 C45.65993042 135.73816895 45.65993042 135.73816895 44.4375 134.8125 C42.72405916 133.53241711 41.01051453 132.25247314 39.296875 130.97265625 C38.41966797 130.31410645 37.54246094 129.65555664 36.63867188 128.97705078 C32.50442901 125.87942877 28.34624137 122.81460338 24.1875 119.75 C23.40584473 119.17121094 22.62418945 118.59242188 21.81884766 117.99609375 C18.14414086 115.28151496 14.45364981 112.60175927 10.6953125 110.00390625 C10.03635986 109.5459668 9.37740723 109.08802734 8.69848633 108.61621094 C7.47529876 107.77066768 6.24625031 106.933517 5.01049805 106.10644531 C3.39453125 104.98828125 3.39453125 104.98828125 1 103 C1 102.01 1 101.02 1 100 C6.34190588 100.55951605 11.14337374 101.53960008 16.3125 103.0625 C30.54481009 106.86684064 45.67730966 106.89228712 58.703125 99.45703125 C67.12092659 93.95017602 74.22154708 86.89721099 77 77 C78.28542887 68.59833087 75.73640545 62.42034727 71.375 55.375 C62.56226632 46.56226632 50.97401782 41.09053526 38.4375 40.6875 C18.80521124 41.00648844 -0.65181872 56.9627561 -13.69921875 70.39453125 C-17.48342361 74.6798702 -20.78594908 79.27767937 -24 84 C-27.71710317 82.64356298 -30.8054197 80.95339775 -34.08203125 78.7421875 C-35.01337891 78.11699219 -35.94472656 77.49179688 -36.90429688 76.84765625 C-37.86400391 76.19667969 -38.82371094 75.54570312 -39.8125 74.875 C-40.79154297 74.21628906 -41.77058594 73.55757813 -42.77929688 72.87890625 C-45.18903347 71.25674211 -47.59578494 69.63033154 -50 68 C-48.47396585 64.78369859 -46.90199229 62.71230701 -44.3125 60.25 C-41.07644448 57.08906719 -38.03125634 53.86076421 -35.08984375 50.42578125 C-33.45516643 48.52833337 -31.80117217 46.65687667 -30.12890625 44.79296875 C-17.91407643 31.08939226 -6.94153189 17.11403135 0 0 Z " fill="#000000" transform="translate(758,58)"/>
<path d="M0 0 C1.92525694 0.32120522 3.85063433 0.64168919 5.77612305 0.96150208 C10.83209283 1.80289991 15.88664585 2.65250366 20.94085693 3.50439453 C55.56024544 9.33674335 55.56024544 9.33674335 90.2203064 14.92074013 C91.87866152 15.18268208 93.53658049 15.44740379 95.19400024 15.71520042 C112.75168879 19.26148135 112.75168879 19.26148135 129 13.83203125 C133.53591121 9.55531496 135.5874109 3.47788525 138 -2.16796875 C140.375 -1.91796875 140.375 -1.91796875 143 -1.16796875 C144.54861087 1.06698646 145.05557697 2.29906235 144.77148438 5.0234375 C144.54783203 5.80589844 144.32417969 6.58835937 144.09375 7.39453125 C143.84753906 8.26835449 143.60132813 9.14217773 143.34765625 10.04248047 C142.92806641 11.42330811 142.92806641 11.42330811 142.5 12.83203125 C142.08041016 14.24572998 142.08041016 14.24572998 141.65234375 15.68798828 C138.22764525 26.85089287 133.90477766 38.98212269 123.375 45.26953125 C113.50473436 49.45409222 101.23915128 46.27390221 90.97265625 44.8125 C89.40595465 44.59520573 87.83917478 44.37847508 86.27232361 44.16226196 C82.07151455 43.57991741 77.87238819 42.98619942 73.67358398 42.38959122 C71.0544864 42.01839551 68.43492426 41.65066879 65.81518555 41.2840271 C37.92461074 37.37798811 10.09530865 33.12814897 -17.69165707 28.54295349 C-20.47658972 28.08384436 -23.26209928 27.62829049 -26.04763603 27.17286301 C-27.933951 26.86243218 -29.81918001 26.54542465 -31.70436096 26.22817993 C-41.86289103 24.56230335 -49.18158616 23.66195895 -58 29.83203125 C-60.64368844 32.64506629 -62.87993616 35.60981501 -65 38.83203125 C-67.31 38.50203125 -69.62 38.17203125 -72 37.83203125 C-71.24110897 30.02690398 -67.89398054 24.8540633 -63.875 18.26953125 C-63.22273437 17.15900391 -62.57046875 16.04847656 -61.8984375 14.90429688 C-56.70418395 6.29358489 -51.84137372 0.17106876 -42 -3.16796875 C-28.10747527 -5.64777671 -13.73523664 -2.33317587 0 0 Z " fill="#000000" transform="translate(708,475.16796875)"/>
<path d="M0 0 C1.06676216 -0.01930573 1.06676216 -0.01930573 2.15507507 -0.03900146 C8.02299942 0.02489529 13.47486548 1.34865243 18.2578125 4.93359375 C21.76039273 9.11089199 23.61216165 12.8007882 23.19921875 18.390625 C21.87707054 26.93688202 17.87847138 32.65630882 11.1875 37.99609375 C9.55851167 39.17570599 7.88317103 40.29090106 6.19921875 41.390625 C7.20082031 41.24625 8.20242188 41.101875 9.234375 40.953125 C10.57678797 40.76537493 11.9192379 40.57788906 13.26171875 40.390625 C13.91849609 40.29523437 14.57527344 40.19984375 15.25195312 40.1015625 C19.60060638 39.50174826 23.81250946 39.29935407 28.19921875 39.390625 C27.19728438 43.18366225 26.38897648 46.10598841 24.19921875 49.390625 C21.25123596 50.26156616 21.25123596 50.26156616 17.51391602 50.93896484 C16.84480226 51.06233908 16.1756885 51.18571331 15.48629856 51.31282616 C8.40633002 52.59195969 1.28929936 53.62637934 -5.8359375 54.6171875 C-7.21265664 54.81189127 -8.58931872 55.00699895 -9.96592712 55.20248413 C-13.53857625 55.70884035 -17.11189979 56.21025579 -20.6854248 56.71038818 C-25.04075891 57.32080873 -29.39531825 57.93672788 -33.74992275 58.55232811 C-37.13318768 59.03058475 -40.51660819 59.50760455 -43.90040588 59.98208618 C-45.1128447 60.15251434 -46.32528351 60.3229425 -47.57446289 60.49853516 C-48.63508438 60.64714996 -49.69570587 60.79576477 -50.78846741 60.94888306 C-53.79993584 61.39050102 -56.80029694 61.8800841 -59.80078125 62.390625 C-59.44136659 69.39921078 -55.61576821 74.64957766 -50.71875 79.41796875 C-43.99629147 84.98666031 -37.84786126 87.76054164 -29.05078125 87.390625 C-13.18425646 85.46254098 0.07894394 76.17130707 12.015625 66.1171875 C14.30403555 64.3077466 16.67024381 62.83956319 19.19921875 61.390625 C19.19921875 67.91001187 17.3797618 72.94911498 14.63671875 78.765625 C14.32669922 79.46751953 14.01667969 80.16941406 13.69726562 80.89257812 C11.83729154 84.64515742 10.63638652 86.15699275 6.8515625 88.1796875 C0.47209118 90.07182195 -6.13984414 91.17988809 -12.67578125 92.390625 C-14.07499306 92.65358578 -15.47416274 92.91677086 -16.87329102 93.18017578 C-19.6162508 93.69464927 -22.36015662 94.20357816 -25.10498047 94.70800781 C-28.16413358 95.2730357 -31.21913804 95.8548421 -34.2734375 96.4453125 C-47.15420489 98.86537659 -60.88303451 101.09956635 -72.80078125 94.390625 C-73.579375 93.95492187 -74.35796875 93.51921875 -75.16015625 93.0703125 C-84.72807078 87.19471398 -91.27100069 78.92386735 -94.05078125 68.015625 C-96.43291778 55.26036669 -93.69181353 41.07192644 -87.390625 29.6953125 C-76.48547827 13.88686884 -59.19938053 8.79375891 -41.1953125 5.46875 C-38.562559 5.00074829 -35.92818943 4.54490098 -33.29174805 4.09814453 C-30.63191921 3.64380862 -27.97740706 3.16447128 -25.32226562 2.68359375 C-16.88590562 1.203884 -8.57568118 0.08766997 0 0 Z M-54.11328125 27.140625 C-60.5380306 35.53319818 -63.87482313 44.81727934 -62.80078125 55.390625 C-54.96058626 58.40910007 -41.85872121 51.933207 -34.5859375 48.7421875 C-24.79270373 43.98979075 -15.5352842 38.5952708 -10.80078125 28.390625 C-9.56884729 24.36227653 -9.53607756 21.20030688 -10.86328125 17.140625 C-13.75046715 13.04268372 -17.08195327 10.96356766 -21.80078125 9.390625 C-36.12346194 8.1342495 -45.23343394 16.91130746 -54.11328125 27.140625 Z " fill="#000000" transform="translate(478.80078125,-0.390625)"/>
<path d="M0 0 C10.32721093 9.88398299 16.30124258 22.84696704 20.375 36.3125 C20.57770508 36.97991211 20.78041016 37.64732422 20.98925781 38.33496094 C24.1467711 49.32563742 25.02969933 60.09545722 25 71.5 C25.01611328 72.74523437 25.03222656 73.99046875 25.04882812 75.2734375 C25.05402985 85.13590794 24.07518339 93.98433228 17.6875 101.875 C13.16397959 105.95720135 9.98948943 106.94933594 3.91796875 107.30078125 C-0.81854274 106.39661356 -4.08538516 103.49912197 -6.76171875 99.6328125 C-7.52049381 98.42978053 -8.26650528 97.21861028 -9 96 C-9.56557617 95.10087891 -9.56557617 95.10087891 -10.14257812 94.18359375 C-12.42297449 90.51426486 -14.43616195 86.7706352 -16.3125 82.875 C-15.65201685 89.65364289 -14.56558378 96.25730956 -13.25 102.9375 C-13.06373047 103.89849609 -12.87746094 104.85949219 -12.68554688 105.84960938 C-12.23104438 108.19204531 -11.77331098 110.53379844 -11.3125 112.875 C-16.22821821 112.41772389 -18.90874242 111.50027142 -22.3125 107.875 C-23.43829252 104.61451493 -23.87260419 101.29987048 -24.33984375 97.890625 C-24.49429459 96.89413437 -24.64874542 95.89764374 -24.80787659 94.87095642 C-25.30753206 91.62486971 -25.77850128 88.37528408 -26.25 85.125 C-26.75839225 81.78166589 -27.27451177 78.43958918 -27.79153442 75.09757996 C-28.13631856 72.8679603 -28.47882683 70.63798753 -28.81906128 68.40766907 C-30.47813658 57.59197688 -32.47986443 46.85614018 -34.58569336 36.12011719 C-34.81522705 34.9396582 -35.04476074 33.75919922 -35.28125 32.54296875 C-35.48169922 31.53516357 -35.68214844 30.5273584 -35.88867188 29.48901367 C-36.3125 26.875 -36.3125 26.875 -36.3125 22.875 C-43.18997223 23.77952016 -47.72850857 25.57647753 -52.3125 30.875 C-58.25612193 38.73456595 -62.28643218 48.12791374 -60.9375 58.125 C-57.13565503 73.94339068 -48.14619953 88.28033661 -37.94921875 100.76953125 C-36.3125 102.875 -36.3125 102.875 -36.3125 104.875 C-44.85908552 103.95165347 -53.68916998 101.63758107 -60.3125 95.875 C-63.61296514 90.96276636 -64.70709799 85.15812717 -65.81689453 79.42724609 C-66.2966226 76.95676468 -66.86415243 74.52558111 -67.46484375 72.08203125 C-72.70894088 50.08779149 -76.98285908 22.42491093 -65.625 1.8125 C-59.70578564 -5.70650203 -52.94070313 -10.13653906 -43.8125 -12.875 C-28.05332441 -14.45091756 -12.43254365 -9.89679712 0 0 Z M-30.3125 20.875 C-27.13106942 39.11002892 -22.52525613 57.94167006 -8.3125 70.875 C-2.89658907 74.18472335 2.47518233 74.76686739 8.6875 73.875 C12.80619909 72.07774949 14.82168 70.22081839 16.625 66.1875 C19.10838712 57.98479709 16.57107199 51.55989998 12.75366211 44.11669922 C6.9899802 33.57306478 -0.99292083 26.27688634 -12.12109375 21.7265625 C-15.86208912 20.72835321 -19.35169271 20.65336144 -23.1875 20.75 C-24.22003906 20.76353516 -24.22003906 20.76353516 -25.2734375 20.77734375 C-26.95327838 20.80067487 -28.63293746 20.83653674 -30.3125 20.875 Z M-18.3125 78.875 C-17.3125 80.875 -17.3125 80.875 -17.3125 80.875 Z " fill="#000000" transform="translate(1014.3125,381.125)"/>
<path d="M0 0 C3.96 0 7.92 0 12 0 C12.78761719 1.46566406 13.57523438 2.93132812 14.38671875 4.44140625 C20.79416579 16.33202534 27.28463021 28.16187759 34.03588867 39.86157227 C34.55642822 40.77092529 35.07696777 41.68027832 35.61328125 42.6171875 C36.07516846 43.41753418 36.53705566 44.21788086 37.01293945 45.04248047 C38 47 38 47 38 49 C35.06764653 47.85106618 32.16895726 46.64352689 29.28515625 45.37890625 C11.8296734 37.80533196 -6.63397843 33.1671605 -25.1875 39.73046875 C-32.13746299 42.86760482 -37.59668784 47.4463559 -41.1875 54.25 C-43.67902261 62.68284577 -43.212086 69.12421593 -39 77 C-29.62276908 89.84028502 -11.8486559 96.10681407 3.34375 98.71484375 C15.34995366 100.00374503 24.7718594 99.24096659 34.9375 92.5625 C38.92098291 89.22938165 40.48499963 86.83928704 41.875 81.875 C42.04628478 76.56517186 40.60808836 72.02414046 39 67 C47.70267096 68.08586672 55.36575407 75.62440593 61 82 C63.71566351 90.14699054 63.01632335 101.04376384 59.328125 108.7578125 C53.83433624 118.03262059 47.67245441 124.34150683 37.234375 127.44140625 C33.81844068 128.29538983 30.50513369 128.80137576 27 129 C25.43765625 129.09667969 25.43765625 129.09667969 23.84375 129.1953125 C6.95947217 129.75563145 -5.05708748 123.42191438 -17.140625 112.23046875 C-29.51933495 100.394391 -39.67581751 87.28118956 -49.0625 73 C-49.50384277 72.33033203 -49.94518555 71.66066406 -50.39990234 70.97070312 C-58.51386176 58.2826209 -61.88007389 44.98802657 -59.0625 30.0625 C-56.91863638 22.20834541 -52.17036115 16.68138776 -45.36328125 12.3046875 C-32.80109289 5.73254113 -20.08649972 7.45783625 -6.92333984 11.37939453 C-2.14017083 12.92278316 2.42323848 14.93940599 7 17 C8.66348312 17.67457108 10.32921335 18.34372705 12 19 C11.63648438 18.49549316 11.27296875 17.99098633 10.8984375 17.47119141 C9.26074246 15.19259071 7.6303038 12.90889407 6 10.625 C5.14148438 9.43390625 5.14148438 9.43390625 4.265625 8.21875 C3.72421875 7.45820313 3.1828125 6.69765625 2.625 5.9140625 C2.12226562 5.2123291 1.61953125 4.5105957 1.1015625 3.78759766 C0 2 0 2 0 0 Z " fill="#000000" transform="translate(940,228)"/>
<path d="M0 0 C0.804375 0.495 1.60875 0.99 2.4375 1.5 C1.57008642 7.85424109 -0.78843058 13.02281996 -3.4375 18.8125 C-4.10845703 20.33327148 -4.10845703 20.33327148 -4.79296875 21.88476562 C-5.22996094 22.84705078 -5.66695312 23.80933594 -6.1171875 24.80078125 C-6.51405762 25.67903564 -6.91092773 26.55729004 -7.31982422 27.4621582 C-8.5625 29.5 -8.5625 29.5 -11.5625 30.5 C-12.59375 30.025625 -13.625 29.55125 -14.6875 29.0625 C-18.97648696 27.10389285 -22.91143114 26.74462568 -27.5625 27.5 C-32.44204797 29.89374051 -35.07506042 32.6966684 -37.5625 37.5 C-40.09587735 45.02685253 -41.9599222 51.65367721 -38.2890625 59.07421875 C-35.11167873 65.04721863 -35.11167873 65.04721863 -29.5625 68.5 C-23.85903717 69.165404 -20.31400287 68.57953003 -15.61474609 65.21118164 C-8.78049277 59.51271846 -4.50421087 51.25559626 -0.1875 43.625 C14.19958281 18.79581299 14.19958281 18.79581299 26.25 15.4375 C31.99575392 15.05743067 37.71235436 17.23222146 42.11328125 20.89453125 C47.33960684 26.73753242 47.89492251 33.33171821 47.7421875 40.82421875 C45.82960198 63.89784668 32.61984002 88.64300658 18.4375 106.5 C17.43976563 107.799375 17.43976563 107.799375 16.421875 109.125 C11.72618762 114.74503529 6.95671809 116.74402802 -0.3125 117.4375 C-4.39578343 117.70359074 -7.05127112 117.69025685 -10.5625 115.5 C-9.95708825 111.80090527 -8.90992345 108.78645598 -7.27734375 105.41796875 C-6.82939453 104.48662109 -6.38144531 103.55527344 -5.91992188 102.59570312 C-5.45134766 101.63599609 -4.98277344 100.67628906 -4.5 99.6875 C-4.02755859 98.70845703 -3.55511719 97.72941406 -3.06835938 96.72070312 C-1.90479316 94.31129833 -0.73603704 91.90455993 0.4375 89.5 C1.78328125 89.73783203 1.78328125 89.73783203 3.15625 89.98046875 C8.83275015 90.87924794 13.48756617 91.45657131 18.75 88.875 C24.09422213 84.15219905 27.01308255 78.43373454 28.4375 71.5 C28.63763724 65.03674458 26.54445572 59.78253536 22.1875 55.0625 C19.4830259 53.25662002 19.4830259 53.25662002 16.125 53.3125 C2.06127159 57.84149728 -4.24980004 75.52639277 -10.70629883 87.6081543 C-14.30525479 94.28106827 -17.63141852 99.91068995 -24.5625 103.5 C-32.35947175 105.79852924 -39.19518057 106.22714305 -46.5625 102.5 C-53.18314554 98.07847925 -58.03894059 92.07067822 -60.5625 84.5 C-60.79220727 79.05019498 -60.34728161 74.12547265 -59.0625 68.8125 C-58.80291504 67.73488403 -58.80291504 67.73488403 -58.53808594 66.63549805 C-52.30123661 42.20089676 -39.81411707 14.00797671 -17.359375 0.4453125 C-11.73778536 -2.51213249 -5.75457119 -2.42297734 0 0 Z " fill="#000000" transform="translate(950.5625,671.5)"/>
<path d="M0 0 C2.875 -0.125 2.875 -0.125 6 0 C6.99 0.99 6.99 0.99 8 2 C7.85449219 4.01147461 7.85449219 4.01147461 7.296875 6.46484375 C7.09513672 7.36187012 6.89339844 8.25889648 6.68554688 9.18310547 C6.34620117 10.57746826 6.34620117 10.57746826 6 12 C5.68385742 13.30735107 5.68385742 13.30735107 5.36132812 14.64111328 C4.69340507 17.29249034 3.97808683 19.92705804 3.25 22.5625 C2.9096875 23.88411133 2.9096875 23.88411133 2.5625 25.23242188 C0.05462751 34.27010067 -4.30351676 41.52694525 -12 47 C-16.87159522 48.62386507 -21.87043945 48.16231215 -26.97265625 48.1484375 C-28.20943619 48.14629242 -29.44621613 48.14414734 -30.72047424 48.14193726 C-45.85915396 48.05810153 -60.97333525 47.40033845 -76.09528732 46.72811508 C-79.27233648 46.58824662 -82.44961687 46.45407608 -85.6269083 46.31984234 C-99.62056693 45.72774682 -113.6122142 45.12185877 -127.59375 44.28515625 C-128.47627945 44.23300964 -129.3588089 44.18086304 -130.26808167 44.12713623 C-134.08396137 43.89903365 -137.89776937 43.65639725 -141.71069336 43.38330078 C-149.90142126 42.85842069 -157.13108623 42.47032561 -164.25 47.125 C-167.02378276 50.02486379 -168.90974578 52.82812631 -170.82421875 56.328125 C-172 58 -172 58 -175 59 C-177.6875 58.0625 -177.6875 58.0625 -180 57 C-179.52351319 50.87663761 -176.77081197 46.07269318 -173.9375 40.75 C-173.43943848 39.81212646 -172.94137695 38.87425293 -172.42822266 37.90795898 C-166.08085094 26.19012689 -158.72679987 15.87823601 -145.44247437 11.58283997 C-135.53951185 9.21972721 -125.28031409 10.03553124 -115.2734375 11.14453125 C-113.37182358 11.33930305 -113.37182358 11.33930305 -111.43179321 11.53800964 C-108.08468746 11.8823015 -104.73894196 12.23630398 -101.39349365 12.59613037 C-95.45930672 13.23223731 -89.5226479 13.84500899 -83.5859375 14.45703125 C-81.64430725 14.65739235 -81.64430725 14.65739235 -79.66345215 14.86180115 C-70.71909212 15.76770016 -61.77159888 16.53469122 -52.8046875 17.1796875 C-51.69306244 17.26019852 -50.58143738 17.34070953 -49.43612671 17.42366028 C-27.38045291 20.01731795 -27.38045291 20.01731795 -7.3125 12.9375 C-4.16958304 8.94514602 -2.10245362 4.60750475 0 0 Z " fill="#000000" transform="translate(797,367)"/>
<path d="M0 0 C14.65713816 11.05966385 23.5713439 27.37711255 26.55859375 45.36328125 C29.46762407 69.33060185 22.08875196 91.01786131 12.54858398 112.64428711 C7.78996627 123.54506329 3.9108414 134.77327236 0 146 C-5.75 145.125 -5.75 145.125 -8 144 C-6.61593331 140.52748604 -5.21014372 137.06458823 -3.79296875 133.60546875 C12.24338404 94.40374649 12.24338404 94.40374649 6.55859375 53.5078125 C-1.61232157 36.18016378 -13.62478323 22.33097161 -31.58984375 14.93359375 C-46.65660846 9.7442089 -62.048993 11.30877714 -77 16 C-78.26328125 16.35835938 -79.5265625 16.71671875 -80.828125 17.0859375 C-88.66723483 20.02136174 -91.58035696 23.20039204 -95.13305664 30.60375977 C-95.94168278 32.44880077 -96.71758669 34.30864458 -97.45483398 36.18334961 C-99.81312749 42.11491305 -102.42597204 45.91546393 -107.12255859 50.25073242 C-109.4654539 52.43367714 -111.2858354 54.82206462 -113.125 57.4375 C-113.77726562 58.36046875 -114.42953125 59.2834375 -115.1015625 60.234375 C-117.77549141 64.12972822 -120.41985845 68.0418283 -123 72 C-126.37462715 71.45276317 -128.08235 70.9451 -131 69 C-129.52742074 65.8142716 -127.7055768 63.13354409 -125.625 60.3125 C-121.15952169 53.99570881 -117.80001925 47.80018765 -117 40 C-125.77279569 45.45266923 -132.30434234 53.4565135 -138 62 C-139.65 61.34 -141.3 60.68 -143 60 C-142.43448061 55.93986081 -141.16969051 53.37515017 -138.875 50 C-136.12056009 45.86554659 -133.85453882 41.71790901 -131.6875 37.25 C-125.87607673 26.47915644 -116.73379974 23.36779553 -105.89501953 19.04956055 C-100.36733262 16.77869451 -96.39099015 14.28847021 -92.15625 10.01171875 C-67.97344301 -12.55013922 -27.64499988 -18.19033802 0 0 Z " fill="#000000" transform="translate(322,423)"/>
<path d="M0 0 C1.55710598 0.53235731 3.11448622 1.063913 4.67211914 1.59472656 C25.7994011 8.83813746 46.83189269 16.46098499 67.65625 24.53515625 C68.61990479 24.90866211 69.58355957 25.28216797 70.57641602 25.66699219 C72.21833882 26.30871611 73.85733984 26.95801907 75.49194336 27.61816406 C83.55955234 30.79673355 92.15202496 33.16096955 100.75 30.875 C106.08733558 28.02842102 107.68296683 23.2793102 109.75 17.875 C112.06 18.205 114.37 18.535 116.75 18.875 C116.26544602 24.84231542 115.03703718 29.37229018 112.3125 34.6875 C111.96123047 35.3774707 111.60996094 36.06744141 111.24804688 36.77832031 C107.02798112 44.69922908 100.86017777 53.94962776 92.15248108 57.26617432 C81.00110939 60.09210354 70.30503532 56.761022 59.78515625 53.265625 C58.27376005 52.78018714 56.76176537 52.29660925 55.2492218 51.8147583 C52.06722679 50.79709581 48.88952272 49.7673669 45.71478271 48.72729492 C40.78430306 47.11240405 35.8445564 45.5273562 30.90283203 43.94726562 C24.43380226 41.87639188 17.96794019 39.7960265 11.50537109 37.70507812 C1.52462213 34.47647552 -8.46019339 31.26182377 -18.47219849 28.13122559 C-20.8096884 27.3955553 -23.14099462 26.64234675 -25.47241211 25.88769531 C-26.84849167 25.4554116 -28.22485352 25.02402495 -29.6015625 24.59375 C-30.73416504 24.23216797 -31.86676758 23.87058594 -33.03369141 23.49804688 C-37.42733092 22.64693347 -41.44347945 22.76931416 -45.32421875 25.14453125 C-45.85660156 25.65371094 -46.38898437 26.16289063 -46.9375 26.6875 C-47.51757812 27.22246094 -48.09765625 27.75742187 -48.6953125 28.30859375 C-49.95149328 29.57424323 -51.14326917 30.90361298 -52.3125 32.25 C-54.25 33.875 -54.25 33.875 -57.5 34.125 C-58.4075 34.0425 -59.315 33.96 -60.25 33.875 C-60.91 32.225 -61.57 30.575 -62.25 28.875 C-61.65574219 28.17117188 -61.06148437 27.46734375 -60.44921875 26.7421875 C-55.70241233 21.08736057 -51.04316136 15.38244637 -46.5 9.5625 C-45.1427153 7.83398011 -43.78459205 6.10612236 -42.42626953 4.37841797 C-41.42068343 3.09315454 -40.42600173 1.79937215 -39.43359375 0.50390625 C-29.58308209 -11.86710187 -12.4826795 -4.36408751 0 0 Z " fill="#000000" transform="translate(724.25,567.125)"/>
<path d="M0 0 C14.21571632 10.70250329 25.26048987 24.61238355 34.38671875 39.796875 C34.38671875 40.456875 34.38671875 41.116875 34.38671875 41.796875 C40.57276541 37.18406984 46.29009229 32.22558651 51.90625 26.93359375 C54.04272542 25.09319681 55.81019426 23.88394011 58.38671875 22.796875 C59.59740053 26.58025556 59.8627112 29.84654447 59.38671875 33.796875 C57.45575336 36.54215225 55.06566562 38.68816401 52.57421875 40.921875 C46.73106896 46.24117129 46.73106896 46.24117129 42.38671875 52.796875 C43.84131306 54.44601382 45.30051132 56.09109282 46.76171875 57.734375 C47.57382812 58.65089844 48.3859375 59.56742188 49.22265625 60.51171875 C51.17381222 62.83288895 51.17381222 62.83288895 53.38671875 63.796875 C52.82418271 67.27718552 51.81462871 68.65092387 49.0703125 70.8203125 C48.38775391 71.366875 47.70519531 71.9134375 47.00195312 72.4765625 C46.28330078 73.03601563 45.56464844 73.59546875 44.82421875 74.171875 C44.13263672 74.72359375 43.44105469 75.2753125 42.72851562 75.84375 C40.62750022 77.51203064 38.50873983 79.15543071 36.38671875 80.796875 C35.65855957 81.37469727 34.93040039 81.95251953 34.18017578 82.54785156 C33.47618652 83.09666992 32.77219727 83.64548828 32.046875 84.2109375 C31.41531494 84.70803223 30.78375488 85.20512695 30.13305664 85.71728516 C28.38671875 86.796875 28.38671875 86.796875 25.38671875 86.796875 C23.68611132 84.65863284 22.18466217 82.57597639 20.69921875 80.296875 C20.07563477 79.36681641 20.07563477 79.36681641 19.43945312 78.41796875 C18.41268369 76.88371557 17.3984965 75.34105571 16.38671875 73.796875 C14.04989582 75.79291125 11.7169402 77.79315291 9.38671875 79.796875 C8.80792969 80.291875 8.22914063 80.786875 7.6328125 81.296875 C4.30121291 84.17514678 1.0389288 87.11220092 -2.1640625 90.1328125 C-2.79304443 90.72441162 -3.42202637 91.31601074 -4.07006836 91.92553711 C-5.33937309 93.12246707 -6.60458827 94.32375015 -7.86547852 95.52954102 C-12.39238421 99.796875 -12.39238421 99.796875 -14.61328125 99.796875 C-15.94657812 95.25487468 -16.46890589 91.48029409 -15.61328125 86.796875 C-12.49478757 82.3863033 -7.79567085 79.3232873 -3.47265625 76.18261719 C-0.76265756 74.16292804 1.69917298 71.94662595 4.19921875 69.671875 C5.38451172 68.61613281 5.38451172 68.61613281 6.59375 67.5390625 C8.46766141 65.9098407 8.46766141 65.9098407 9.38671875 63.796875 C2.5885594 45.46337738 -14.69853088 23.43146216 -32.36328125 14.734375 C-36.10305044 13.65559543 -37.95449115 13.44471344 -41.61328125 14.796875 C-49.56389871 21.9902908 -51.30220722 33.76471273 -53.61328125 43.796875 C-56.32663955 40.54084504 -57.82763978 37.23534372 -59.36328125 33.296875 C-60.03617188 31.61078125 -60.03617188 31.61078125 -60.72265625 29.890625 C-61.60190876 26.83637945 -61.84246052 25.6544 -60.61328125 22.796875 C-48.61570606 5.60035056 -20.87317966 -12.61604747 0 0 Z " fill="#000000" transform="translate(828.61328125,837.203125)"/>
<path d="M0 0 C0.72703125 -0.03738281 1.4540625 -0.07476563 2.203125 -0.11328125 C9.13747885 1.04598956 14.62053445 6.47414544 19.8125 10.875 C21.32184922 12.13669474 22.83228032 13.39709628 24.34375 14.65625 C25.46136719 15.58824219 25.46136719 15.58824219 26.6015625 16.5390625 C29.63002412 19.03891991 32.71284748 21.46435852 35.8125 23.875 C40.20880167 27.29632053 44.55417151 30.77067204 48.86352539 34.30102539 C64.85434515 48.77990909 64.85434515 48.77990909 84.75 54.3125 C88.0850733 53.06306659 88.0850733 53.06306659 90.75 51.3125 C94.37326739 50.1047442 95.39146369 50.76938872 98.75 52.3125 C97.55035307 59.1104993 91.23820164 63.09992578 85.9375 66.9375 C77.34855564 72.7110351 68.26288854 77.96153228 57.546875 77.14453125 C50.15707766 75.32445154 44.3552329 69.61452105 38.62792969 64.86376953 C35.53333872 62.30747325 32.38850196 59.81450546 29.25 57.3125 C27.98821617 56.30086242 26.72649724 55.28914388 25.46484375 54.27734375 C21.37038027 51.00155977 17.24183844 47.77005095 13.10742188 44.54492188 C9.87929561 42.01713487 6.68895398 39.45048583 3.52734375 36.83984375 C2.81505615 36.25323975 2.10276855 35.66663574 1.36889648 35.06225586 C-0.00685804 33.92617651 -1.3786896 32.78532358 -2.74584961 31.63891602 C-9.15291057 26.23735655 -9.15291057 26.23735655 -17.0625 24.25 C-20.20739396 25.29829799 -22.08352688 26.52139118 -24.75 28.4375 C-28.82283006 31.32012803 -28.82283006 31.32012803 -32.75 31.25 C-35.25 30.3125 -35.25 30.3125 -36.25 29.3125 C-36.51953125 26.94921875 -36.51953125 26.94921875 -36.25 24.3125 C-34.88671875 22.64453125 -34.88671875 22.64453125 -32.9375 21.125 C-29.43493877 18.29577065 -26.14433979 15.34726927 -22.875 12.25 C-16.42236018 6.35455192 -9.08398527 0.30174077 0 0 Z " fill="#000000" transform="translate(703.25,648.6875)"/>
<path d="M0 0 C3.45639069 2.69767078 6.42418929 5.39393027 9.25 8.75 C12.66330681 12.74716192 16.40597086 16.19443387 20.3515625 19.66015625 C22.09915626 21.20412183 23.82401121 22.7742644 25.5234375 24.37109375 C30.852518 29.37210773 36.36585909 33.9618206 42.1875 38.375 C42.84057129 38.87491455 43.49364258 39.3748291 44.16650391 39.88989258 C51.22077561 45.15084087 57.10361215 48.43227186 66 48.75 C66.67933594 48.77964844 67.35867188 48.80929687 68.05859375 48.83984375 C69.70512491 48.90941549 71.3525582 48.95709787 73 49 C71.56997559 53.29007324 69.45268442 56.09880655 66.5 59.5 C62.70762418 63.9302736 59.04599967 68.43227296 55.5 73.0625 C55.07912109 73.61035156 54.65824219 74.15820312 54.22460938 74.72265625 C52.40356697 77.10699982 50.66506788 79.50239818 49 82 C45.65678045 80.88559348 44.93980381 80.02527657 42.75 77.375 C25.30624782 56.96978264 0.90085935 42.17205117 -21 27 C-19.62545787 24.00984091 -18.02234945 21.62681934 -15.91796875 19.1015625 C-15.31533203 18.37453125 -14.71269531 17.6475 -14.09179688 16.8984375 C-13.46337891 16.14820313 -12.83496094 15.39796875 -12.1875 14.625 C-11.57068359 13.8825 -10.95386719 13.14 -10.31835938 12.375 C-8.54929703 10.24686124 -6.77527521 8.12295674 -5 6 C-4.01668553 4.82051383 -3.03358155 3.64085213 -2.05078125 2.4609375 C-1.37402344 1.64882813 -0.69726562 0.83671875 0 0 Z " fill="#000000" transform="translate(867,770)"/>
<path d="M0 0 C3.92200745 1.32693186 6.12316333 4.08414374 8.8125 7.125 C9.6890625 8.11113281 10.565625 9.09726563 11.46875 10.11328125 C12.3040625 11.06589844 13.139375 12.01851562 14 13 C14.6703125 13.75667969 15.340625 14.51335937 16.03125 15.29296875 C19.42360237 19.13912265 22.73643047 23.04415814 26 27 C24.47558554 31.18044947 21.84662934 32.69534861 18.1875 35.0625 C10.98332117 39.85654255 4.48934066 45.29022989 -2 51 C-2.87527344 51.763125 -3.75054688 52.52625 -4.65234375 53.3125 C-10.116495 58.14650427 -15.27142034 63.24490113 -20.3984375 68.4296875 C-23.21134634 71.20880764 -26.13434891 73.79800847 -29.140625 76.36328125 C-32.24136992 79.09271848 -35.12097909 82.04000663 -38 85 C-46.69535359 78.04371713 -53.93703189 69.56735482 -61 61 C-53.8677082 55.25865308 -46.73449216 49.53130023 -39.4375 44 C-24.42732301 32.50638729 -11.35303747 21.28612808 -3.375 3.73828125 C-2 1 -2 1 0 0 Z " fill="#000000" transform="translate(896,159)"/>
</svg>
